<svg width="119" height="40" viewBox="0 0 119 40" fill="none" xmlns="http://www.w3.org/2000/svg">
<path d="M0 8C0 3.58172 3.58172 0 8 0H111C115.418 0 119 3.58172 119 8V32C119 36.4183 115.418 40 111 40H8C3.58172 40 0 36.4183 0 32V8Z" fill="#181A2D"/>
<path d="M62.0109 23.8671C60.0133 23.8671 58.3852 25.3378 58.3852 27.3634C58.3852 29.3766 60.0133 30.8597 62.0109 30.8597C64.0093 30.8597 65.6374 29.3766 65.6374 27.3634C65.6365 25.3378 64.0084 23.8671 62.0109 23.8671ZM62.0109 29.4835C60.9161 29.4835 59.9725 28.6096 59.9725 27.3642C59.9725 26.1056 60.917 25.2449 62.0109 25.2449C63.1056 25.2449 64.0492 26.1056 64.0492 27.3642C64.0492 28.6088 63.1056 29.4835 62.0109 29.4835ZM54.1005 23.8671C52.103 23.8671 50.4749 25.3378 50.4749 27.3634C50.4749 29.3766 52.103 30.8597 54.1005 30.8597C56.0989 30.8597 57.727 29.3766 57.727 27.3634C57.727 25.3378 56.0989 23.8671 54.1005 23.8671ZM54.1005 29.4835C53.0058 29.4835 52.0622 28.6096 52.0622 27.3642C52.0622 26.1056 53.0066 25.2449 54.1005 25.2449C55.1952 25.2449 56.1388 26.1056 56.1388 27.3642C56.1397 28.6088 55.1952 29.4835 54.1005 29.4835ZM44.692 24.9407V26.4237H48.3593C48.2497 27.2581 47.9626 27.8673 47.5244 28.2907C46.991 28.8069 46.1562 29.3766 44.692 29.3766C42.4346 29.3766 40.6697 27.6149 40.6697 25.4298C40.6697 23.2447 42.4346 21.483 44.692 21.483C45.9099 21.483 46.7991 21.9467 47.4556 22.5427L48.5368 21.4962C47.6195 20.6486 46.4025 20 44.692 20C41.5997 20 39 22.4366 39 25.4298C39 28.423 41.5997 30.8597 44.692 30.8597C46.3609 30.8597 47.6204 30.3294 48.6047 29.3363C49.6171 28.3564 49.9322 26.9786 49.9322 25.8664C49.9322 25.5227 49.905 25.2046 49.8498 24.9399H44.692V24.9407ZM83.1719 26.0924C82.8713 25.3115 81.954 23.8671 80.0796 23.8671C78.2188 23.8671 76.6723 25.2843 76.6723 27.3634C76.6723 29.3232 78.2052 30.8597 80.2572 30.8597C81.9124 30.8597 82.8704 29.8797 83.2679 29.31L82.0364 28.5151C81.6262 29.0979 81.0648 29.4819 80.2572 29.4819C79.4503 29.4819 78.8753 29.1243 78.5059 28.4222L83.3359 26.4887L83.1719 26.0924ZM78.246 27.2581C78.2052 25.9066 79.3272 25.2186 80.1348 25.2186C80.7642 25.2186 81.2975 25.5235 81.4759 25.9601L78.246 27.2581ZM74.3197 30.6484H75.9062V20.3716H74.3197V30.6484ZM71.7192 24.6489H71.6648C71.309 24.2378 70.6244 23.8671 69.7632 23.8671C67.9568 23.8671 66.3015 25.4035 66.3015 27.3773C66.3015 29.3372 67.9568 30.8605 69.7632 30.8605C70.6253 30.8605 71.309 30.4897 71.6648 30.0664H71.7192V30.5695C71.7192 31.907 70.9803 32.6222 69.7904 32.6222C68.8188 32.6222 68.2167 31.9473 67.9704 31.3776L66.5886 31.9341C66.9852 32.8606 68.0383 34 69.7904 34C71.6512 34 73.225 32.9403 73.225 30.3574V24.08H71.72V24.6489H71.7192ZM69.9 29.4835C68.8052 29.4835 67.8888 28.5957 67.8888 27.3773C67.8888 26.145 68.8052 25.2449 69.9 25.2449C70.9803 25.2449 71.8287 26.145 71.8287 27.3773C71.8287 28.5957 70.9803 29.4835 69.9 29.4835ZM90.6067 20.3716H86.8095V30.6484H88.3934V26.755H90.6058C92.3622 26.755 94.0896 25.5244 94.0896 23.5637C94.0896 21.6031 92.363 20.3716 90.6067 20.3716ZM90.6474 25.3246H88.3934V21.802H90.6474C91.8322 21.802 92.5049 22.7515 92.5049 23.5637C92.5049 24.3595 91.8322 25.3246 90.6474 25.3246ZM100.442 23.849C99.2941 23.849 98.106 24.3381 97.6142 25.4224L99.0207 25.9905C99.3213 25.4224 99.8819 25.2366 100.469 25.2366C101.288 25.2366 102.121 25.7126 102.135 26.5585V26.6646C101.848 26.5059 101.233 26.2684 100.482 26.2684C98.9663 26.2684 97.4223 27.0748 97.4223 28.5817C97.4223 29.957 98.6657 30.8424 100.059 30.8424C101.124 30.8424 101.711 30.3796 102.08 29.837H102.134V30.6303H103.665V26.6901C103.665 24.8667 102.257 23.849 100.442 23.849ZM100.25 29.481C99.7315 29.481 99.0071 29.2295 99.0071 28.608C99.0071 27.8147 99.909 27.5105 100.688 27.5105C101.383 27.5105 101.712 27.656 102.135 27.8541C102.012 28.8069 101.165 29.481 100.25 29.481ZM109.238 24.0734L107.421 28.5291H107.367L105.481 24.0734H103.774L106.602 30.3006L104.99 33.7649H106.642L111 24.0734H109.238ZM94.9644 30.6484H96.5484V20.3716H94.9644V30.6484Z" fill="white"/>
<path d="M81.741 9.7913C81.7874 9.93739 81.835 10.0904 81.8836 10.2504C81.9347 10.4081 81.9799 10.5681 82.0193 10.7304C82.061 10.8928 82.0947 11.0551 82.1202 11.2174C82.1457 11.3774 82.1584 11.5339 82.1584 11.687C82.1584 11.8957 82.126 12.0986 82.061 12.2957C81.9984 12.4951 81.9103 12.6864 81.7967 12.8696C81.6854 13.0551 81.5521 13.2313 81.3967 13.3983C81.2436 13.5652 81.0767 13.7229 80.8958 13.8713C80.715 14.0197 80.5236 14.1577 80.3219 14.2852C80.1202 14.4128 79.9161 14.5275 79.7097 14.6296L79.3132 13.833C79.4778 13.7519 79.6402 13.6614 79.8002 13.5617C79.9602 13.4643 80.1121 13.36 80.2558 13.2487C80.4019 13.1374 80.5364 13.0203 80.6593 12.8974C80.7845 12.7745 80.8912 12.647 80.9793 12.5148C81.0697 12.3826 81.1405 12.247 81.1915 12.1078C81.2425 11.9687 81.268 11.8284 81.268 11.687C81.268 11.5548 81.2529 11.4157 81.2228 11.2696C81.1926 11.1235 81.1555 10.9797 81.1115 10.8383C81.0697 10.6945 81.0257 10.5565 80.9793 10.4243C80.9352 10.2922 80.8981 10.1751 80.868 10.073L81.741 9.7913ZM81.8489 8.30957L81.181 8.97739L80.5167 8.30957L81.181 7.64522L81.8489 8.30957ZM83.8529 6.57043C83.9109 7.01333 83.9515 7.43652 83.9747 7.84C83.9978 8.24116 84.0118 8.6342 84.0164 9.01913C84.021 9.34609 84.0222 9.6487 84.0199 9.92696C84.0199 10.2052 84.0176 10.4649 84.0129 10.7061C84.0083 10.9449 84.0013 11.1687 83.992 11.3774C83.9828 11.5838 83.9735 11.7774 83.9642 11.9583L83.0529 12.0974C83.1016 11.3322 83.126 10.6562 83.126 10.0696C83.126 9.83304 83.1225 9.61159 83.1155 9.40522C83.097 8.92986 83.0761 8.48348 83.0529 8.06609C83.0297 7.64638 82.9984 7.24522 82.959 6.86261L83.8529 6.57043ZM94.9955 12.1043C94.8031 12.1043 94.628 12.0881 94.4703 12.0557C94.315 12.0232 94.1735 11.9722 94.046 11.9026C93.9184 11.8307 93.8048 11.7403 93.7051 11.6313C93.6054 11.52 93.5173 11.3867 93.4408 11.2313C92.8031 11.8203 91.8489 12.1148 90.5782 12.1148C89.8524 12.1101 89.2518 12.0209 88.7764 11.847C88.3034 11.6707 87.9544 11.4006 87.7295 11.0365C87.6321 10.8626 87.5648 10.6817 87.5277 10.4939C87.4999 10.3571 87.486 10.2203 87.486 10.0835C87.486 10.0301 87.4895 9.94319 87.4964 9.82261C87.5057 9.70203 87.5393 9.5513 87.5973 9.37043C87.6553 9.18725 87.7318 9.01449 87.8268 8.85217L88.4982 9.27304C88.4309 9.38435 88.3753 9.49565 88.3312 9.60696C88.2871 9.71826 88.2593 9.82957 88.2477 9.94087C88.2431 9.98261 88.2408 10.0243 88.2408 10.0661C88.2408 10.1357 88.2489 10.2157 88.2651 10.3061C88.2837 10.3965 88.3277 10.4962 88.3973 10.6052C88.4622 10.7142 88.5608 10.807 88.6929 10.8835C88.8251 10.96 88.9851 11.0226 89.1729 11.0713C89.3631 11.12 89.5764 11.1559 89.8129 11.1791C90.0495 11.2023 90.3045 11.2139 90.5782 11.2139C90.8263 11.2139 91.0616 11.2046 91.2842 11.1861C91.5068 11.1675 91.7132 11.1386 91.9034 11.0991C92.0958 11.0574 92.2697 11.0052 92.4251 10.9426C92.5805 10.8777 92.7138 10.7988 92.8251 10.7061C92.9271 10.6272 93.0095 10.5357 93.0721 10.4313C93.1347 10.327 93.1868 10.218 93.2286 10.1043C93.2703 9.98841 93.3051 9.87014 93.3329 9.74957C93.3608 9.62899 93.3909 9.51304 93.4234 9.40174L94.2234 9.61739C94.1793 9.74029 94.1445 9.86551 94.119 9.99304C94.0958 10.109 94.0842 10.2214 94.0842 10.3304C94.0842 10.342 94.0842 10.3803 94.0842 10.4452C94.0842 10.5078 94.1005 10.5913 94.1329 10.6957C94.1654 10.7977 94.2176 10.8881 94.2895 10.967C94.3613 11.0435 94.4553 11.1038 94.5712 11.1478C94.6895 11.1919 94.8332 11.2139 95.0025 11.2139H95.1277V12.1043H94.9955ZM90.8042 8.57043L90.2129 9.16174L89.6147 8.56696L90.206 7.97217L90.8042 8.57043ZM92.119 8.57391L91.5277 9.1687L90.9295 8.57043L91.5208 7.97913L92.119 8.57391ZM95.1831 11.2139C95.4266 11.2139 95.6608 11.207 95.8857 11.193C96.1106 11.1768 96.3159 11.1548 96.5014 11.127C96.6869 11.0991 96.8469 11.0655 96.9814 11.0261C97.1159 10.9867 97.2167 10.9426 97.284 10.8939H96.9292C96.7251 10.8939 96.5303 10.8684 96.3448 10.8174C96.1617 10.7641 96.0005 10.6852 95.8614 10.5809C95.7222 10.4765 95.6109 10.3467 95.5275 10.1913C95.4463 10.0336 95.4057 9.85043 95.4057 9.64174C95.4057 9.51884 95.4185 9.39246 95.444 9.26261C95.4695 9.13275 95.5077 9.00638 95.5588 8.88348C95.6098 8.76058 95.6712 8.64464 95.7431 8.53565C95.815 8.42667 95.8973 8.33159 95.9901 8.25043C96.0828 8.16696 96.1848 8.10203 96.2961 8.05565C96.4075 8.00696 96.528 7.98261 96.6579 7.98261C96.8179 7.98261 96.9675 8.01623 97.1066 8.08348C97.2457 8.15072 97.3721 8.24232 97.4857 8.35826C97.5993 8.47188 97.7002 8.60406 97.7883 8.75478C97.8764 8.90551 97.9506 9.06435 98.0109 9.2313C98.0712 9.39826 98.1164 9.5687 98.1466 9.74261C98.179 9.9142 98.1953 10.0777 98.1953 10.233C98.1953 10.4974 98.1582 10.727 98.084 10.9217C98.0121 11.1165 97.9101 11.2835 97.7779 11.4226C97.648 11.5617 97.4915 11.6754 97.3083 11.7635C97.1275 11.8516 96.9269 11.9212 96.7066 11.9722C96.4863 12.0232 96.2498 12.058 95.997 12.0765C95.7466 12.0951 95.4869 12.1043 95.2179 12.1043H95.0996V11.2139H95.1831ZM96.6579 8.88C96.6463 8.87768 96.6347 8.87652 96.6231 8.87652C96.5767 8.87652 96.5234 8.89507 96.4631 8.93217C96.4028 8.96928 96.3448 9.02261 96.2892 9.09217C96.2335 9.16174 96.1883 9.24058 96.1535 9.3287C96.1188 9.41449 96.1014 9.49913 96.1014 9.58261C96.1014 9.58725 96.1014 9.59188 96.1014 9.59652C96.1014 9.68 96.1199 9.74841 96.157 9.80174C96.1941 9.85275 96.244 9.89217 96.3066 9.92C96.3715 9.94783 96.4457 9.96754 96.5292 9.97913C96.615 9.99072 96.7054 9.99884 96.8005 10.0035C96.8631 10.0058 96.928 10.007 96.9953 10.007C97.0277 10.007 97.0776 10.007 97.1448 10.007C97.2144 10.0046 97.2851 10.0012 97.357 9.99652C97.3361 9.91304 97.306 9.80985 97.2666 9.68696C97.2295 9.56174 97.1819 9.44116 97.124 9.32522C97.0683 9.20696 97.0011 9.10493 96.9222 9.01913C96.8457 8.93333 96.7576 8.88696 96.6579 8.88ZM97.2979 6.85217L96.6301 7.52L95.9657 6.85217L96.6301 6.18783L97.2979 6.85217ZM100.802 12.1043H100.663C100.193 12.1043 99.8355 11.9861 99.592 11.7496C99.3485 11.513 99.2256 11.1559 99.2233 10.6783C99.2233 10.6041 99.2256 10.4823 99.2303 10.313C99.2349 10.1414 99.2372 9.93275 99.2372 9.68696C99.2372 9.54087 99.2361 9.38435 99.2337 9.21739C99.2314 9.04812 99.2279 8.87652 99.2233 8.70261C99.2187 8.52638 99.2117 8.3513 99.2024 8.17739C99.1955 8.00116 99.1862 7.83188 99.1746 7.66957C99.163 7.50493 99.1491 7.35188 99.1329 7.21043C99.1166 7.06667 99.0981 6.94029 99.0772 6.8313L99.9503 6.57043C99.9758 6.70493 99.999 6.86957 100.02 7.06435C100.041 7.25681 100.059 7.46319 100.075 7.68348C100.092 7.90377 100.103 8.1287 100.11 8.35826C100.12 8.58551 100.124 8.8 100.124 9.00174C100.124 9.12464 100.125 9.25565 100.128 9.39478C100.13 9.53159 100.131 9.65217 100.131 9.75652C100.131 9.84464 100.13 9.92812 100.128 10.007C100.128 10.0835 100.126 10.1577 100.124 10.2296C100.124 10.3014 100.123 10.3722 100.121 10.4417C100.121 10.5113 100.121 10.582 100.121 10.6539C100.121 10.6725 100.121 10.691 100.121 10.7096C100.121 10.793 100.129 10.8672 100.145 10.9322C100.164 10.9971 100.195 11.0516 100.239 11.0957C100.283 11.1374 100.339 11.1675 100.406 11.1861C100.475 11.2046 100.555 11.2139 100.646 11.2139H100.802V12.1043ZM100.777 11.2139H101.518C101.627 11.2139 101.744 11.2081 101.869 11.1965C101.996 11.1826 102.114 11.1559 102.22 11.1165C102.329 11.0748 102.418 11.0157 102.488 10.9391C102.56 10.8626 102.596 10.7606 102.596 10.633C102.596 10.5728 102.583 10.4881 102.558 10.3791C102.532 10.2701 102.498 10.1496 102.457 10.0174C102.415 9.88522 102.365 9.74841 102.307 9.60696C102.252 9.46551 102.192 9.33333 102.13 9.21043L102.933 8.81391C102.991 8.94609 103.049 9.08638 103.107 9.23478C103.165 9.38319 103.216 9.53623 103.26 9.69391C103.307 9.84928 103.344 10.0058 103.372 10.1635C103.399 10.3212 103.413 10.4754 103.413 10.6261C103.413 10.8951 103.363 11.1235 103.264 11.3113C103.164 11.4991 103.027 11.6522 102.853 11.7704C102.682 11.8864 102.48 11.971 102.248 12.0243C102.018 12.0777 101.773 12.1043 101.511 12.1043H100.777V11.2139ZM102.071 13.1339L101.479 13.7252L100.881 13.1304L101.472 12.5357L102.071 13.1339ZM103.385 13.1374L102.794 13.7322L102.196 13.1339L102.787 12.5426L103.385 13.1374ZM106.33 9.7913C106.376 9.93739 106.424 10.0904 106.472 10.2504C106.523 10.4081 106.569 10.5681 106.608 10.7304C106.65 10.8928 106.683 11.0551 106.709 11.2174C106.734 11.3774 106.747 11.5339 106.747 11.687C106.747 11.8957 106.715 12.0986 106.65 12.2957C106.587 12.4951 106.499 12.6864 106.385 12.8696C106.274 13.0551 106.141 13.2313 105.985 13.3983C105.832 13.5652 105.665 13.7229 105.485 13.8713C105.304 14.0197 105.112 14.1577 104.911 14.2852C104.709 14.4128 104.505 14.5275 104.298 14.6296L103.902 13.833C104.067 13.7519 104.229 13.6614 104.389 13.5617C104.549 13.4643 104.701 13.36 104.845 13.2487C104.991 13.1374 105.125 13.0203 105.248 12.8974C105.373 12.7745 105.48 12.647 105.568 12.5148C105.658 12.3826 105.729 12.247 105.78 12.1078C105.831 11.9687 105.857 11.8284 105.857 11.687C105.857 11.5548 105.842 11.4157 105.811 11.2696C105.781 11.1235 105.744 10.9797 105.7 10.8383C105.658 10.6945 105.614 10.5565 105.568 10.4243C105.524 10.2922 105.487 10.1751 105.457 10.073L106.33 9.7913ZM107.673 10.7374C107.761 10.793 107.867 10.8499 107.989 10.9078C108.115 10.9658 108.243 11.018 108.376 11.0643C108.51 11.1107 108.641 11.149 108.769 11.1791C108.898 11.2093 109.012 11.2243 109.109 11.2243C109.149 11.2243 109.198 11.2232 109.256 11.2209C109.313 11.2186 109.375 11.2139 109.44 11.207C109.505 11.1977 109.57 11.1849 109.635 11.1687C109.7 11.1501 109.758 11.1258 109.809 11.0957C109.862 11.0632 109.905 11.0238 109.937 10.9774C109.97 10.9287 109.987 10.8696 109.989 10.8C109.989 10.7954 109.989 10.7919 109.989 10.7896C109.989 10.6968 109.963 10.5925 109.909 10.4765C109.858 10.3583 109.788 10.2354 109.697 10.1078C109.607 9.97797 109.502 9.84812 109.384 9.71826C109.266 9.58841 109.143 9.46435 109.016 9.34609C108.888 9.22551 108.759 9.11536 108.629 9.01565C108.502 8.91362 108.382 8.82783 108.271 8.75826L108.789 7.98956C109.003 8.13565 109.213 8.30029 109.419 8.48348C109.628 8.66667 109.819 8.86261 109.993 9.0713C110.169 9.27768 110.321 9.49333 110.449 9.71826C110.578 9.94319 110.671 10.1704 110.727 10.4C110.757 10.5322 110.772 10.6586 110.772 10.7791C110.772 10.8951 110.75 11.0342 110.706 11.1965C110.664 11.3588 110.568 11.5188 110.417 11.6765C110.267 11.8319 110.075 11.9513 109.843 12.0348C109.644 12.1067 109.425 12.1426 109.186 12.1426C109.147 12.1426 109.106 12.1414 109.064 12.1391C108.911 12.1391 108.756 12.1241 108.598 12.0939C108.44 12.0661 108.285 12.0267 108.132 11.9757C107.981 11.9246 107.835 11.8667 107.694 11.8017C107.555 11.7345 107.425 11.6638 107.304 11.5896L107.673 10.7374Z" fill="white"/>
<path d="M8.75787 7.53803C8.47181 7.84603 8.30273 8.32403 8.30273 8.94303V31.059C8.30273 31.679 8.47181 32.156 8.75787 32.464L8.83061 32.536L21.009 20.147V20.001V19.855L8.83061 7.46503L8.75787 7.53803Z" fill="url(#paint0_linear)"/>
<path d="M25.0678 24.278L21.009 20.147V20.001V19.855L25.0688 15.725L25.1603 15.778L29.9701 18.558C31.3433 19.352 31.3433 20.651 29.9701 21.446L25.1603 24.226L25.0678 24.278Z" fill="url(#paint1_linear)"/>
<g filter="url(#filter0_i)">
<path d="M25.1603 24.225L21.0081 20.001L8.75794 32.464C9.21012 32.952 9.95818 33.012 10.8006 32.526L25.1603 24.225Z" fill="url(#paint2_linear)"/>
</g>
<defs>
<filter id="filter0_i" x="8.75793" y="20.001" width="16.4024" height="12.8607" filterUnits="userSpaceOnUse" color-interpolation-filters="sRGB">
<feFlood flood-opacity="0" result="BackgroundImageFix"/>
<feBlend mode="normal" in="SourceGraphic" in2="BackgroundImageFix" result="shape"/>
<feColorMatrix in="SourceAlpha" type="matrix" values="0 0 0 0 0 0 0 0 0 0 0 0 0 0 0 0 0 0 127 0" result="hardAlpha"/>
<feOffset dy="-0.15"/>
<feComposite in2="hardAlpha" operator="arithmetic" k2="-1" k3="1"/>
<feColorMatrix type="matrix" values="0 0 0 0 0 0 0 0 0 0 0 0 0 0 0 0 0 0 0.08 0"/>
<feBlend mode="normal" in2="shape" result="effect1_innerShadow"/>
</filter>
<linearGradient id="paint0_linear" x1="19.9295" y1="8.70903" x2="3.14995" y2="25.2033" gradientUnits="userSpaceOnUse">
<stop stop-color="#00A0FF"/>
<stop offset="0.0066" stop-color="#00A1FF"/>
<stop offset="0.2601" stop-color="#00BEFF"/>
<stop offset="0.5122" stop-color="#00D2FF"/>
<stop offset="0.7604" stop-color="#00DFFF"/>
<stop offset="1" stop-color="#00E3FF"/>
</linearGradient>
<linearGradient id="paint1_linear" x1="31.7577" y1="20.001" x2="7.97305" y2="20.001" gradientUnits="userSpaceOnUse">
<stop stop-color="#FFE000"/>
<stop offset="0.4087" stop-color="#FFBD00"/>
<stop offset="0.7754" stop-color="#FFA500"/>
<stop offset="1" stop-color="#FF9C00"/>
</linearGradient>
<linearGradient id="paint2_linear" x1="22.9054" y1="22.2949" x2="0.15024" y2="44.6632" gradientUnits="userSpaceOnUse">
<stop stop-color="#FF3A44"/>
<stop offset="1" stop-color="#C31162"/>
</linearGradient>
</defs>
</svg>
