<svg width="119" height="40" viewBox="0 0 119 40" fill="none" xmlns="http://www.w3.org/2000/svg">
<path d="M0 8C0 3.58172 3.58172 0 8 0H111C115.418 0 119 3.58172 119 8V32C119 36.4183 115.418 40 111 40H8C3.58172 40 0 36.4183 0 32V8Z" fill="#181A2D"/>
<path d="M77.7364 10.6748H75.5346L75.0755 12H74.0459L76.1955 6.31304H77.0825L79.2355 12H78.2025L77.7364 10.6748ZM75.8129 9.87826H77.4616L76.6372 7.52L75.8129 9.87826ZM80.9817 9.88522V12H79.9939V6.31304H82.1713C82.8066 6.31304 83.311 6.47884 83.6843 6.81043C84.0577 7.13971 84.2443 7.57681 84.2443 8.12174C84.2443 8.67826 84.0611 9.11188 83.6948 9.42261C83.3307 9.73101 82.8182 9.88522 82.1574 9.88522H80.9817ZM80.9817 9.09217H82.1713C82.5214 9.09217 82.7893 9.00985 82.9748 8.84522C83.1603 8.68058 83.253 8.44174 83.253 8.1287C83.253 7.82261 83.1591 7.57797 82.9713 7.39478C82.7835 7.20928 82.5261 7.1142 82.1991 7.10957H80.9817V9.09217ZM86.85 9.54435L86.2031 10.2261V12H85.2153V6.31304H86.2031V8.98087L86.7527 8.30609L88.4153 6.31304H89.6118L87.497 8.8313L89.73 12H88.5614L86.85 9.54435ZM92.9254 10.7374C93.0135 10.793 93.119 10.8499 93.2419 10.9078C93.3671 10.9658 93.4958 11.018 93.628 11.0643C93.7625 11.1107 93.8935 11.149 94.0211 11.1791C94.1509 11.2093 94.2645 11.2243 94.3619 11.2243C94.4014 11.2243 94.45 11.2232 94.508 11.2209C94.566 11.2186 94.6274 11.2139 94.6924 11.207C94.7573 11.1977 94.8222 11.1849 94.8871 11.1687C94.9521 11.1501 95.01 11.1258 95.0611 11.0957C95.1144 11.0632 95.1573 11.0238 95.1898 10.9774C95.2222 10.9287 95.2396 10.8696 95.2419 10.8C95.2419 10.7954 95.2419 10.7919 95.2419 10.7896C95.2419 10.6968 95.2153 10.5925 95.1619 10.4765C95.1109 10.3583 95.0402 10.2354 94.9498 10.1078C94.8593 9.97797 94.755 9.84812 94.6367 9.71826C94.5185 9.58841 94.3956 9.46435 94.268 9.34609C94.1405 9.22551 94.0118 9.11536 93.8819 9.01565C93.7544 8.91362 93.635 8.82783 93.5237 8.75826L94.0419 7.98956C94.2553 8.13565 94.4651 8.30029 94.6715 8.48348C94.8802 8.66667 95.0715 8.86261 95.2454 9.0713C95.4216 9.27768 95.5735 9.49333 95.7011 9.71826C95.8309 9.94319 95.9237 10.1704 95.9793 10.4C96.0095 10.5322 96.0245 10.6586 96.0245 10.7791C96.0245 10.8951 96.0025 11.0342 95.9585 11.1965C95.9167 11.3588 95.8205 11.5188 95.6698 11.6765C95.519 11.8319 95.3277 11.9513 95.0958 12.0348C94.8964 12.1067 94.6773 12.1426 94.4385 12.1426C94.399 12.1426 94.3585 12.1414 94.3167 12.1391C94.1637 12.1391 94.0083 12.1241 93.8506 12.0939C93.6929 12.0661 93.5376 12.0267 93.3845 11.9757C93.2338 11.9246 93.0877 11.8667 92.9463 11.8017C92.8071 11.7345 92.6773 11.6638 92.5567 11.5896L92.9254 10.7374ZM96.5871 13.6696C96.928 13.6023 97.2352 13.5119 97.5088 13.3983C97.7848 13.287 98.0236 13.1617 98.2254 13.0226C98.4271 12.8835 98.5906 12.7351 98.7158 12.5774C98.8433 12.4197 98.928 12.262 98.9697 12.1043C98.7819 12.1043 98.5987 12.0986 98.4202 12.087C98.2416 12.0754 98.0723 12.0522 97.9123 12.0174C97.7546 11.9849 97.6086 11.9386 97.4741 11.8783C97.3419 11.8157 97.2271 11.7345 97.1297 11.6348C97.0346 11.5328 96.9604 11.4099 96.9071 11.2661C96.8538 11.1223 96.8271 10.9507 96.8271 10.7513C96.8271 10.6238 96.841 10.4904 96.8688 10.3513C96.8967 10.2122 96.9361 10.0765 96.9871 9.94435C97.0404 9.80985 97.1054 9.68348 97.1819 9.56522C97.2584 9.44464 97.3465 9.33913 97.4462 9.2487C97.546 9.15594 97.6561 9.0829 97.7767 9.02957C97.8973 8.97623 98.0271 8.94957 98.1662 8.94957C98.5257 8.94957 98.8538 9.10957 99.1506 9.42957C99.248 9.53855 99.3361 9.66029 99.4149 9.79478C99.4938 9.92928 99.5622 10.073 99.6202 10.2261C99.6781 10.3791 99.7245 10.5391 99.7593 10.7061C99.7964 10.8707 99.8196 11.04 99.8288 11.2139H100.062V12.1043H99.7558C99.677 12.4475 99.5436 12.7559 99.3558 13.0296C99.168 13.3055 98.9419 13.5455 98.6775 13.7496C98.4155 13.9536 98.1233 14.1217 97.801 14.2539C97.4787 14.3861 97.1436 14.4812 96.7958 14.5391L96.5871 13.6696ZM98.1662 9.84348C98.106 9.84348 98.041 9.86899 97.9715 9.92C97.9019 9.97101 97.8381 10.0371 97.7802 10.1183C97.7222 10.1971 97.6735 10.2852 97.6341 10.3826C97.597 10.48 97.5784 10.5751 97.5784 10.6678C97.5784 10.7652 97.6004 10.8464 97.6445 10.9113C97.6909 10.9762 97.7488 11.0284 97.8184 11.0678C97.8903 11.1072 97.9703 11.1374 98.0584 11.1583C98.1488 11.1768 98.2381 11.1896 98.3262 11.1965C98.3749 11.2012 98.4283 11.2046 98.4862 11.207C98.5442 11.207 98.6033 11.2081 98.6636 11.2104C98.7262 11.2128 98.7877 11.2139 98.848 11.2139C98.9083 11.2139 98.9651 11.2139 99.0184 11.2139C99.0115 11.1281 98.9941 11.0354 98.9662 10.9357C98.9407 10.8336 98.9071 10.7316 98.8654 10.6296C98.8236 10.5275 98.7761 10.4301 98.7228 10.3374C98.6694 10.2423 98.6115 10.1588 98.5488 10.087C98.4886 10.0128 98.426 9.95362 98.361 9.90957C98.2961 9.86551 98.2312 9.84348 98.1662 9.84348ZM100.032 11.2139H100.286C100.369 11.2139 100.447 11.207 100.519 11.193C100.591 11.1791 100.655 11.1501 100.71 11.1061C100.766 11.0597 100.811 10.9959 100.846 10.9148C100.881 10.8336 100.903 10.7246 100.912 10.5878C100.912 10.5345 100.913 10.4417 100.915 10.3096C100.92 10.1751 100.924 10.0162 100.926 9.83304C100.928 9.64754 100.93 9.44464 100.933 9.22435C100.935 9.00406 100.936 8.77913 100.936 8.54957C100.936 8.37101 100.935 8.19594 100.933 8.02435C100.933 7.85043 100.93 7.68348 100.926 7.52348C100.924 7.36348 100.918 7.21275 100.908 7.0713C100.902 6.92986 100.891 6.80116 100.877 6.68522L101.764 6.57043C101.78 6.69565 101.793 6.8371 101.802 6.99478C101.812 7.15246 101.819 7.32058 101.823 7.49913C101.83 7.67536 101.834 7.86087 101.834 8.05565C101.836 8.24812 101.837 8.4429 101.837 8.64C101.837 9.07826 101.833 9.45971 101.823 9.78435C101.816 10.109 101.813 10.3965 101.813 10.647C101.813 10.8232 101.858 10.9623 101.948 11.0643C102.039 11.1641 102.173 11.2139 102.352 11.2139H102.428V12.1043H102.352C102.338 12.1043 102.325 12.1043 102.314 12.1043C102.223 12.1043 102.134 12.0962 102.046 12.08C101.96 12.0661 101.877 12.0441 101.795 12.0139C101.717 11.9861 101.644 11.9525 101.576 11.913C101.509 11.8736 101.45 11.833 101.399 11.7913C101.332 11.8562 101.257 11.9096 101.176 11.9513C101.097 11.9907 101.016 12.022 100.933 12.0452C100.849 12.0684 100.767 12.0835 100.686 12.0904C100.605 12.0997 100.532 12.1043 100.467 12.1043H100.032V11.2139ZM102.402 11.2139H102.962C103.071 11.2139 103.182 11.2081 103.296 11.1965C103.412 11.1826 103.516 11.1559 103.609 11.1165C103.701 11.0748 103.777 11.0157 103.835 10.9391C103.895 10.8626 103.925 10.7606 103.925 10.633C103.925 10.5728 103.912 10.4881 103.887 10.3791C103.861 10.2701 103.828 10.1496 103.786 10.0174C103.744 9.88522 103.695 9.74841 103.637 9.60696C103.581 9.46551 103.522 9.33333 103.459 9.21043L104.263 8.81391C104.321 8.94609 104.379 9.08638 104.437 9.23478C104.495 9.38319 104.546 9.53623 104.59 9.69391C104.636 9.84928 104.673 10.0058 104.701 10.1635C104.729 10.3212 104.743 10.4754 104.743 10.6261C104.743 10.8858 104.699 11.1096 104.61 11.2974C104.522 11.4829 104.399 11.6359 104.242 11.7565C104.084 11.8748 103.895 11.9617 103.675 12.0174C103.457 12.0754 103.217 12.1043 102.955 12.1043H102.402V11.2139ZM104.179 7.63478L103.511 8.30261L102.847 7.63478L103.511 6.97043L104.179 7.63478ZM106.462 6.57043C106.52 7.01333 106.561 7.43652 106.584 7.84C106.607 8.24116 106.621 8.6342 106.626 9.01913C106.631 9.34609 106.632 9.6487 106.629 9.92696C106.629 10.2052 106.627 10.4649 106.622 10.7061C106.618 10.9449 106.611 11.1687 106.602 11.3774C106.592 11.5838 106.583 11.7774 106.574 11.9583L105.662 12.0974C105.711 11.3322 105.735 10.6562 105.735 10.0696C105.735 9.83304 105.732 9.61159 105.725 9.40522C105.706 8.92986 105.686 8.48348 105.662 8.06609C105.639 7.64638 105.608 7.24522 105.569 6.86261L106.462 6.57043ZM107.673 10.7374C107.761 10.793 107.867 10.8499 107.989 10.9078C108.115 10.9658 108.243 11.018 108.376 11.0643C108.51 11.1107 108.641 11.149 108.769 11.1791C108.898 11.2093 109.012 11.2243 109.109 11.2243C109.149 11.2243 109.198 11.2232 109.256 11.2209C109.313 11.2186 109.375 11.2139 109.44 11.207C109.505 11.1977 109.57 11.1849 109.635 11.1687C109.7 11.1501 109.758 11.1258 109.809 11.0957C109.862 11.0632 109.905 11.0238 109.937 10.9774C109.97 10.9287 109.987 10.8696 109.989 10.8C109.989 10.7954 109.989 10.7919 109.989 10.7896C109.989 10.6968 109.963 10.5925 109.909 10.4765C109.858 10.3583 109.788 10.2354 109.697 10.1078C109.607 9.97797 109.502 9.84812 109.384 9.71826C109.266 9.58841 109.143 9.46435 109.016 9.34609C108.888 9.22551 108.759 9.11536 108.629 9.01565C108.502 8.91362 108.382 8.82783 108.271 8.75826L108.789 7.98956C109.003 8.13565 109.213 8.30029 109.419 8.48348C109.628 8.66667 109.819 8.86261 109.993 9.0713C110.169 9.27768 110.321 9.49333 110.449 9.71826C110.578 9.94319 110.671 10.1704 110.727 10.4C110.757 10.5322 110.772 10.6586 110.772 10.7791C110.772 10.8951 110.75 11.0342 110.706 11.1965C110.664 11.3588 110.568 11.5188 110.417 11.6765C110.267 11.8319 110.075 11.9513 109.843 12.0348C109.644 12.1067 109.425 12.1426 109.186 12.1426C109.147 12.1426 109.106 12.1414 109.064 12.1391C108.911 12.1391 108.756 12.1241 108.598 12.0939C108.44 12.0661 108.285 12.0267 108.132 11.9757C107.981 11.9246 107.835 11.8667 107.694 11.8017C107.555 11.7345 107.425 11.6638 107.304 11.5896L107.673 10.7374Z" fill="white"/>
<path d="M60.7541 29.3496H56.3506L55.4324 32H53.3733L57.6724 20.6261H59.4463L63.7524 32H61.6863L60.7541 29.3496ZM56.9072 27.7565H60.2046L58.5559 23.04L56.9072 27.7565ZM66.8483 23.5478L66.9039 24.5217C67.53 23.7658 68.3509 23.3878 69.3665 23.3878C71.1242 23.3878 72.0193 24.3965 72.0518 26.4139V32H70.1526V26.5252C70.1526 25.9872 70.0367 25.5907 69.8048 25.3357C69.5729 25.0759 69.195 24.9461 68.6709 24.9461C67.9057 24.9461 67.3352 25.2916 66.9596 25.9826V32H65.0605V23.5478H66.8483ZM73.8481 27.7078C73.8481 26.4093 74.1496 25.3658 74.7525 24.5774C75.3554 23.7843 76.1646 23.3878 77.1803 23.3878C78.0754 23.3878 78.7989 23.7009 79.3507 24.327V20H81.2499V32H79.5316L79.4412 31.1235C78.8707 31.8099 78.1125 32.153 77.1664 32.153C76.1786 32.153 75.3786 31.7565 74.7664 30.9635C74.1542 30.1658 73.8481 29.0806 73.8481 27.7078ZM75.7473 27.8748C75.7473 28.7328 75.9119 29.4029 76.2412 29.8852C76.5704 30.3675 77.0412 30.6087 77.6533 30.6087C78.4278 30.6087 78.9936 30.2632 79.3507 29.5722V25.9617C79.0029 25.2846 78.4417 24.9461 77.6673 24.9461C77.0504 24.9461 76.5751 25.1896 76.2412 25.6765C75.9119 26.1635 75.7473 26.8962 75.7473 27.8748ZM87.8825 25.28C87.6321 25.2383 87.3747 25.2174 87.1103 25.2174C86.2385 25.2174 85.6518 25.5513 85.3503 26.2191V32H83.4512V23.5478H85.2669L85.3156 24.4939C85.77 23.7565 86.4054 23.3878 87.2216 23.3878C87.4906 23.3878 87.7132 23.4249 87.8895 23.4991L87.8825 25.28ZM88.9524 27.6939C88.9524 26.8684 89.1147 26.1241 89.4393 25.4609C89.7686 24.793 90.2301 24.2806 90.8237 23.9235C91.4173 23.5664 92.099 23.3878 92.8689 23.3878C94.0098 23.3878 94.935 23.7565 95.6446 24.4939C96.3588 25.2267 96.7437 26.2006 96.7993 27.4157L96.8132 27.8609C96.8132 28.691 96.6509 29.4354 96.3263 30.0939C96.0063 30.7478 95.5472 31.2557 94.9489 31.6174C94.3553 31.9745 93.6689 32.153 92.8898 32.153C91.6979 32.153 90.7425 31.7565 90.0237 30.9635C89.3095 30.1704 88.9524 29.113 88.9524 27.7913V27.6939ZM90.8515 27.8609C90.8515 28.7281 91.0301 29.4099 91.3872 29.9061C91.7489 30.3977 92.2498 30.6435 92.8898 30.6435C93.5298 30.6435 94.0283 30.393 94.3854 29.8922C94.7425 29.3913 94.9211 28.6586 94.9211 27.6939C94.9211 26.8406 94.7356 26.1635 94.3646 25.6626C93.9982 25.1617 93.4996 24.9113 92.8689 24.9113C92.2521 24.9113 91.7605 25.1594 91.3941 25.6557C91.0324 26.1472 90.8515 26.8823 90.8515 27.8609ZM100.658 32H98.7588V23.5478H100.658V32ZM98.6405 21.3496C98.6405 21.0574 98.7333 20.8162 98.9188 20.6261C99.1043 20.4313 99.3687 20.3339 99.7118 20.3339C100.055 20.3339 100.319 20.4313 100.505 20.6261C100.695 20.8162 100.79 21.0574 100.79 21.3496C100.79 21.6371 100.695 21.8759 100.505 22.0661C100.319 22.2562 100.055 22.3513 99.7118 22.3513C99.3687 22.3513 99.1043 22.2562 98.9188 22.0661C98.7333 21.8759 98.6405 21.6371 98.6405 21.3496ZM102.588 27.7078C102.588 26.4093 102.889 25.3658 103.492 24.5774C104.095 23.7843 104.904 23.3878 105.92 23.3878C106.815 23.3878 107.539 23.7009 108.09 24.327V20H109.99V32H108.271L108.181 31.1235C107.61 31.8099 106.852 32.153 105.906 32.153C104.918 32.153 104.118 31.7565 103.506 30.9635C102.894 30.1658 102.588 29.0806 102.588 27.7078ZM104.487 27.8748C104.487 28.7328 104.652 29.4029 104.981 29.8852C105.31 30.3675 105.781 30.6087 106.393 30.6087C107.168 30.6087 107.733 30.2632 108.09 29.5722V25.9617C107.743 25.2846 107.182 24.9461 106.407 24.9461C105.79 24.9461 105.315 25.1896 104.981 25.6765C104.652 26.1635 104.487 26.8962 104.487 27.8748Z" fill="white"/>
<path d="M25.2756 6C25.4294 6.14735 25.4042 6.29775 25.3076 6.47017C24.973 7.06873 24.6562 7.67646 24.3147 8.27135C24.2145 8.44682 24.2465 8.50918 24.4162 8.60334C26.0255 9.49598 27.1556 10.7952 27.7443 12.5407C27.9166 13.0507 28.0101 13.5789 28.0298 14.1169C28.0451 14.5272 28.0808 14.474 27.692 14.4746C25.0659 14.4764 22.4397 14.4752 19.8135 14.4752C17.6205 14.4752 15.428 14.4715 13.2349 14.4807C12.995 14.4819 12.9378 14.4153 12.9513 14.1842C13.0836 11.9098 14.1884 10.2028 16.0364 8.92493C16.152 8.84484 16.2739 8.77208 16.3957 8.70055C16.7887 8.47189 16.7894 8.4725 16.5673 8.06531C16.2726 7.52544 15.981 6.98313 15.6802 6.44632C15.5861 6.2788 15.5818 6.13634 15.7245 6C15.7952 6 15.866 6 15.9367 6C16.0081 6.10944 16.0862 6.21521 16.1496 6.32893C16.4523 6.87369 16.7703 7.4105 17.0416 7.97054C17.1738 8.24384 17.303 8.24995 17.5583 8.15213C19.4887 7.40989 21.429 7.4105 23.3705 8.11666C23.7851 8.26768 23.7789 8.26951 23.9893 7.89839C24.348 7.2656 24.6562 6.60529 25.0634 6C25.1342 6 25.2049 6 25.2756 6ZM17.0539 11.7514C17.3873 11.752 17.6789 11.4702 17.6869 11.1394C17.6949 10.805 17.3904 10.4975 17.0527 10.4987C16.7229 10.4999 16.4406 10.7897 16.4399 11.1272C16.4399 11.4671 16.7192 11.7514 17.0539 11.7514ZM23.945 11.7514C24.2797 11.7514 24.5596 11.4677 24.5596 11.1284C24.5596 10.7915 24.2772 10.5011 23.9481 10.4993C23.6104 10.4975 23.3059 10.8044 23.3132 11.1388C23.32 11.4696 23.611 11.7514 23.945 11.7514Z" fill="white"/>
<path d="M20.4994 15.0585C22.9041 15.0585 25.3088 15.0615 27.7135 15.0536C27.93 15.053 27.9946 15.1037 27.994 15.3263C27.9866 18.7972 27.978 22.2675 27.9959 25.7384C28.0008 26.7509 27.3524 27.443 26.5963 27.6007C26.1713 27.6894 25.732 27.6521 25.3002 27.6399C25.0646 27.6331 24.9828 27.69 24.9858 27.9413C25.0006 29.0308 24.9975 30.1203 24.9901 31.2098C24.9834 32.1648 24.4119 32.86 23.5513 32.9823C22.5024 33.1308 21.6344 32.3592 21.6239 31.2483C21.6135 30.1411 21.6135 29.0338 21.6276 27.9272C21.6307 27.6863 21.555 27.6343 21.3293 27.6405C20.7725 27.6557 20.2152 27.6588 19.6585 27.6392C19.4136 27.6307 19.3693 27.7151 19.3712 27.9376C19.3822 29.0357 19.3816 30.1344 19.3742 31.2324C19.3675 32.2156 18.7222 32.9327 17.8068 32.9945C16.8859 33.0568 16.0714 32.3635 16.0443 31.4464C16.0105 30.2786 16.0099 29.1097 16.0123 27.9413C16.013 27.6961 15.9416 27.6252 15.7004 27.6368C15.3572 27.6539 15.0108 27.6472 14.667 27.6264C13.7485 27.5714 13.038 26.864 13.0201 25.9499C12.998 24.773 13.0103 23.5954 13.0103 22.4179C13.0097 20.0542 13.0134 17.6906 13.0048 15.3275C13.0042 15.105 13.0669 15.053 13.2847 15.0536C15.69 15.0615 18.0947 15.0585 20.4994 15.0585Z" fill="white"/>
<path d="M28.6658 19.8861C28.6664 18.6651 28.6418 17.443 28.6744 16.2226C28.6959 15.4021 29.4403 14.7614 30.2886 14.7516C31.1615 14.7418 31.8819 15.3563 31.968 16.1884C31.9859 16.3626 31.9963 16.5387 31.9963 16.7142C31.9982 18.8761 31.9945 21.0374 31.9994 23.1993C32.0012 23.947 31.7349 24.5364 31.0397 24.8819C30.0124 25.393 28.7175 24.6862 28.675 23.549C28.6301 22.3299 28.6658 21.1071 28.6658 19.8861Z" fill="white"/>
<path d="M12.3348 19.9118C12.3348 21.1242 12.3582 22.3372 12.3262 23.5484C12.3041 24.3915 11.5696 25.0335 10.7083 25.0426C9.84279 25.0518 9.1175 24.4294 9.03138 23.5997C9.01354 23.4255 9.00246 23.2494 9.00246 23.0746C9.00062 20.9041 9.0037 18.7336 9 16.5638C8.99877 15.8344 9.27376 15.2645 9.93937 14.9215C10.9686 14.3915 12.2801 15.0988 12.3244 16.2489C12.3718 17.468 12.3348 18.6908 12.3348 19.9118Z" fill="white"/>
</svg>
