<svg width="119" height="40" viewBox="0 0 119 40" fill="none" xmlns="http://www.w3.org/2000/svg">
<path d="M0 8C0 3.58172 3.58172 0 8 0H111C115.418 0 119 3.58172 119 8V32C119 36.4183 115.418 40 111 40H8C3.58172 40 0 36.4183 0 32V8Z" fill="#181A2D"/>
<path d="M81.741 9.7913C81.7874 9.93739 81.835 10.0904 81.8836 10.2504C81.9347 10.4081 81.9799 10.5681 82.0193 10.7304C82.061 10.8928 82.0947 11.0551 82.1202 11.2174C82.1457 11.3774 82.1584 11.5339 82.1584 11.687C82.1584 11.8957 82.126 12.0986 82.061 12.2957C81.9984 12.4951 81.9103 12.6864 81.7967 12.8696C81.6854 13.0551 81.5521 13.2313 81.3967 13.3983C81.2436 13.5652 81.0767 13.7229 80.8958 13.8713C80.715 14.0197 80.5236 14.1577 80.3219 14.2852C80.1202 14.4128 79.9161 14.5275 79.7097 14.6296L79.3132 13.833C79.4778 13.7519 79.6402 13.6614 79.8002 13.5617C79.9602 13.4643 80.1121 13.36 80.2558 13.2487C80.4019 13.1374 80.5364 13.0203 80.6593 12.8974C80.7845 12.7745 80.8912 12.647 80.9793 12.5148C81.0697 12.3826 81.1405 12.247 81.1915 12.1078C81.2425 11.9687 81.268 11.8284 81.268 11.687C81.268 11.5548 81.2529 11.4157 81.2228 11.2696C81.1926 11.1235 81.1555 10.9797 81.1115 10.8383C81.0697 10.6945 81.0257 10.5565 80.9793 10.4243C80.9352 10.2922 80.8981 10.1751 80.868 10.073L81.741 9.7913ZM81.8489 8.30957L81.181 8.97739L80.5167 8.30957L81.181 7.64522L81.8489 8.30957ZM83.8529 6.57043C83.9109 7.01333 83.9515 7.43652 83.9747 7.84C83.9978 8.24116 84.0118 8.6342 84.0164 9.01913C84.021 9.34609 84.0222 9.6487 84.0199 9.92696C84.0199 10.2052 84.0176 10.4649 84.0129 10.7061C84.0083 10.9449 84.0013 11.1687 83.992 11.3774C83.9828 11.5838 83.9735 11.7774 83.9642 11.9583L83.0529 12.0974C83.1016 11.3322 83.126 10.6562 83.126 10.0696C83.126 9.83304 83.1225 9.61159 83.1155 9.40522C83.097 8.92986 83.0761 8.48348 83.0529 8.06609C83.0297 7.64638 82.9984 7.24522 82.959 6.86261L83.8529 6.57043ZM94.9955 12.1043C94.8031 12.1043 94.628 12.0881 94.4703 12.0557C94.315 12.0232 94.1735 11.9722 94.046 11.9026C93.9184 11.8307 93.8048 11.7403 93.7051 11.6313C93.6054 11.52 93.5173 11.3867 93.4408 11.2313C92.8031 11.8203 91.8489 12.1148 90.5782 12.1148C89.8524 12.1101 89.2518 12.0209 88.7764 11.847C88.3034 11.6707 87.9544 11.4006 87.7295 11.0365C87.6321 10.8626 87.5648 10.6817 87.5277 10.4939C87.4999 10.3571 87.486 10.2203 87.486 10.0835C87.486 10.0301 87.4895 9.94319 87.4964 9.82261C87.5057 9.70203 87.5393 9.5513 87.5973 9.37043C87.6553 9.18725 87.7318 9.01449 87.8268 8.85217L88.4982 9.27304C88.4309 9.38435 88.3753 9.49565 88.3312 9.60696C88.2871 9.71826 88.2593 9.82957 88.2477 9.94087C88.2431 9.98261 88.2408 10.0243 88.2408 10.0661C88.2408 10.1357 88.2489 10.2157 88.2651 10.3061C88.2837 10.3965 88.3277 10.4962 88.3973 10.6052C88.4622 10.7142 88.5608 10.807 88.6929 10.8835C88.8251 10.96 88.9851 11.0226 89.1729 11.0713C89.3631 11.12 89.5764 11.1559 89.8129 11.1791C90.0495 11.2023 90.3045 11.2139 90.5782 11.2139C90.8263 11.2139 91.0616 11.2046 91.2842 11.1861C91.5068 11.1675 91.7132 11.1386 91.9034 11.0991C92.0958 11.0574 92.2697 11.0052 92.4251 10.9426C92.5805 10.8777 92.7138 10.7988 92.8251 10.7061C92.9271 10.6272 93.0095 10.5357 93.0721 10.4313C93.1347 10.327 93.1868 10.218 93.2286 10.1043C93.2703 9.98841 93.3051 9.87014 93.3329 9.74957C93.3608 9.62899 93.3909 9.51304 93.4234 9.40174L94.2234 9.61739C94.1793 9.74029 94.1445 9.86551 94.119 9.99304C94.0958 10.109 94.0842 10.2214 94.0842 10.3304C94.0842 10.342 94.0842 10.3803 94.0842 10.4452C94.0842 10.5078 94.1005 10.5913 94.1329 10.6957C94.1654 10.7977 94.2176 10.8881 94.2895 10.967C94.3613 11.0435 94.4553 11.1038 94.5712 11.1478C94.6895 11.1919 94.8332 11.2139 95.0025 11.2139H95.1277V12.1043H94.9955ZM90.8042 8.57043L90.2129 9.16174L89.6147 8.56696L90.206 7.97217L90.8042 8.57043ZM92.119 8.57391L91.5277 9.1687L90.9295 8.57043L91.5208 7.97913L92.119 8.57391ZM95.1831 11.2139C95.4266 11.2139 95.6608 11.207 95.8857 11.193C96.1106 11.1768 96.3159 11.1548 96.5014 11.127C96.6869 11.0991 96.8469 11.0655 96.9814 11.0261C97.1159 10.9867 97.2167 10.9426 97.284 10.8939H96.9292C96.7251 10.8939 96.5303 10.8684 96.3448 10.8174C96.1617 10.7641 96.0005 10.6852 95.8614 10.5809C95.7222 10.4765 95.6109 10.3467 95.5275 10.1913C95.4463 10.0336 95.4057 9.85043 95.4057 9.64174C95.4057 9.51884 95.4185 9.39246 95.444 9.26261C95.4695 9.13275 95.5077 9.00638 95.5588 8.88348C95.6098 8.76058 95.6712 8.64464 95.7431 8.53565C95.815 8.42667 95.8973 8.33159 95.9901 8.25043C96.0828 8.16696 96.1848 8.10203 96.2961 8.05565C96.4075 8.00696 96.528 7.98261 96.6579 7.98261C96.8179 7.98261 96.9675 8.01623 97.1066 8.08348C97.2457 8.15072 97.3721 8.24232 97.4857 8.35826C97.5993 8.47188 97.7002 8.60406 97.7883 8.75478C97.8764 8.90551 97.9506 9.06435 98.0109 9.2313C98.0712 9.39826 98.1164 9.5687 98.1466 9.74261C98.179 9.9142 98.1953 10.0777 98.1953 10.233C98.1953 10.4974 98.1582 10.727 98.084 10.9217C98.0121 11.1165 97.9101 11.2835 97.7779 11.4226C97.648 11.5617 97.4915 11.6754 97.3083 11.7635C97.1275 11.8516 96.9269 11.9212 96.7066 11.9722C96.4863 12.0232 96.2498 12.058 95.997 12.0765C95.7466 12.0951 95.4869 12.1043 95.2179 12.1043H95.0996V11.2139H95.1831ZM96.6579 8.88C96.6463 8.87768 96.6347 8.87652 96.6231 8.87652C96.5767 8.87652 96.5234 8.89507 96.4631 8.93217C96.4028 8.96928 96.3448 9.02261 96.2892 9.09217C96.2335 9.16174 96.1883 9.24058 96.1535 9.3287C96.1188 9.41449 96.1014 9.49913 96.1014 9.58261C96.1014 9.58725 96.1014 9.59188 96.1014 9.59652C96.1014 9.68 96.1199 9.74841 96.157 9.80174C96.1941 9.85275 96.244 9.89217 96.3066 9.92C96.3715 9.94783 96.4457 9.96754 96.5292 9.97913C96.615 9.99072 96.7054 9.99884 96.8005 10.0035C96.8631 10.0058 96.928 10.007 96.9953 10.007C97.0277 10.007 97.0776 10.007 97.1448 10.007C97.2144 10.0046 97.2851 10.0012 97.357 9.99652C97.3361 9.91304 97.306 9.80985 97.2666 9.68696C97.2295 9.56174 97.1819 9.44116 97.124 9.32522C97.0683 9.20696 97.0011 9.10493 96.9222 9.01913C96.8457 8.93333 96.7576 8.88696 96.6579 8.88ZM97.2979 6.85217L96.6301 7.52L95.9657 6.85217L96.6301 6.18783L97.2979 6.85217ZM100.802 12.1043H100.663C100.193 12.1043 99.8355 11.9861 99.592 11.7496C99.3485 11.513 99.2256 11.1559 99.2233 10.6783C99.2233 10.6041 99.2256 10.4823 99.2303 10.313C99.2349 10.1414 99.2372 9.93275 99.2372 9.68696C99.2372 9.54087 99.2361 9.38435 99.2337 9.21739C99.2314 9.04812 99.2279 8.87652 99.2233 8.70261C99.2187 8.52638 99.2117 8.3513 99.2024 8.17739C99.1955 8.00116 99.1862 7.83188 99.1746 7.66957C99.163 7.50493 99.1491 7.35188 99.1329 7.21043C99.1166 7.06667 99.0981 6.94029 99.0772 6.8313L99.9503 6.57043C99.9758 6.70493 99.999 6.86957 100.02 7.06435C100.041 7.25681 100.059 7.46319 100.075 7.68348C100.092 7.90377 100.103 8.1287 100.11 8.35826C100.12 8.58551 100.124 8.8 100.124 9.00174C100.124 9.12464 100.125 9.25565 100.128 9.39478C100.13 9.53159 100.131 9.65217 100.131 9.75652C100.131 9.84464 100.13 9.92812 100.128 10.007C100.128 10.0835 100.126 10.1577 100.124 10.2296C100.124 10.3014 100.123 10.3722 100.121 10.4417C100.121 10.5113 100.121 10.582 100.121 10.6539C100.121 10.6725 100.121 10.691 100.121 10.7096C100.121 10.793 100.129 10.8672 100.145 10.9322C100.164 10.9971 100.195 11.0516 100.239 11.0957C100.283 11.1374 100.339 11.1675 100.406 11.1861C100.475 11.2046 100.555 11.2139 100.646 11.2139H100.802V12.1043ZM100.777 11.2139H101.518C101.627 11.2139 101.744 11.2081 101.869 11.1965C101.996 11.1826 102.114 11.1559 102.22 11.1165C102.329 11.0748 102.418 11.0157 102.488 10.9391C102.56 10.8626 102.596 10.7606 102.596 10.633C102.596 10.5728 102.583 10.4881 102.558 10.3791C102.532 10.2701 102.498 10.1496 102.457 10.0174C102.415 9.88522 102.365 9.74841 102.307 9.60696C102.252 9.46551 102.192 9.33333 102.13 9.21043L102.933 8.81391C102.991 8.94609 103.049 9.08638 103.107 9.23478C103.165 9.38319 103.216 9.53623 103.26 9.69391C103.307 9.84928 103.344 10.0058 103.372 10.1635C103.399 10.3212 103.413 10.4754 103.413 10.6261C103.413 10.8951 103.363 11.1235 103.264 11.3113C103.164 11.4991 103.027 11.6522 102.853 11.7704C102.682 11.8864 102.48 11.971 102.248 12.0243C102.018 12.0777 101.773 12.1043 101.511 12.1043H100.777V11.2139ZM102.071 13.1339L101.479 13.7252L100.881 13.1304L101.472 12.5357L102.071 13.1339ZM103.385 13.1374L102.794 13.7322L102.196 13.1339L102.787 12.5426L103.385 13.1374ZM106.33 9.7913C106.376 9.93739 106.424 10.0904 106.472 10.2504C106.523 10.4081 106.569 10.5681 106.608 10.7304C106.65 10.8928 106.683 11.0551 106.709 11.2174C106.734 11.3774 106.747 11.5339 106.747 11.687C106.747 11.8957 106.715 12.0986 106.65 12.2957C106.587 12.4951 106.499 12.6864 106.385 12.8696C106.274 13.0551 106.141 13.2313 105.985 13.3983C105.832 13.5652 105.665 13.7229 105.485 13.8713C105.304 14.0197 105.112 14.1577 104.911 14.2852C104.709 14.4128 104.505 14.5275 104.298 14.6296L103.902 13.833C104.067 13.7519 104.229 13.6614 104.389 13.5617C104.549 13.4643 104.701 13.36 104.845 13.2487C104.991 13.1374 105.125 13.0203 105.248 12.8974C105.373 12.7745 105.48 12.647 105.568 12.5148C105.658 12.3826 105.729 12.247 105.78 12.1078C105.831 11.9687 105.857 11.8284 105.857 11.687C105.857 11.5548 105.842 11.4157 105.811 11.2696C105.781 11.1235 105.744 10.9797 105.7 10.8383C105.658 10.6945 105.614 10.5565 105.568 10.4243C105.524 10.2922 105.487 10.1751 105.457 10.073L106.33 9.7913ZM107.673 10.7374C107.761 10.793 107.867 10.8499 107.989 10.9078C108.115 10.9658 108.243 11.018 108.376 11.0643C108.51 11.1107 108.641 11.149 108.769 11.1791C108.898 11.2093 109.012 11.2243 109.109 11.2243C109.149 11.2243 109.198 11.2232 109.256 11.2209C109.313 11.2186 109.375 11.2139 109.44 11.207C109.505 11.1977 109.57 11.1849 109.635 11.1687C109.7 11.1501 109.758 11.1258 109.809 11.0957C109.862 11.0632 109.905 11.0238 109.937 10.9774C109.97 10.9287 109.987 10.8696 109.989 10.8C109.989 10.7954 109.989 10.7919 109.989 10.7896C109.989 10.6968 109.963 10.5925 109.909 10.4765C109.858 10.3583 109.788 10.2354 109.697 10.1078C109.607 9.97797 109.502 9.84812 109.384 9.71826C109.266 9.58841 109.143 9.46435 109.016 9.34609C108.888 9.22551 108.759 9.11536 108.629 9.01565C108.502 8.91362 108.382 8.82783 108.271 8.75826L108.789 7.98956C109.003 8.13565 109.213 8.30029 109.419 8.48348C109.628 8.66667 109.819 8.86261 109.993 9.0713C110.169 9.27768 110.321 9.49333 110.449 9.71826C110.578 9.94319 110.671 10.1704 110.727 10.4C110.757 10.5322 110.772 10.6586 110.772 10.7791C110.772 10.8951 110.75 11.0342 110.706 11.1965C110.664 11.3588 110.568 11.5188 110.417 11.6765C110.267 11.8319 110.075 11.9513 109.843 12.0348C109.644 12.1067 109.425 12.1426 109.186 12.1426C109.147 12.1426 109.106 12.1414 109.064 12.1391C108.911 12.1391 108.756 12.1241 108.598 12.0939C108.44 12.0661 108.285 12.0267 108.132 11.9757C107.981 11.9246 107.835 11.8667 107.694 11.8017C107.555 11.7345 107.425 11.6638 107.304 11.5896L107.673 10.7374Z" fill="white"/>
<path d="M85.6366 21.2707V23.311H84.3359V24.6489H85.6366V29.1951C85.6366 30.7475 86.3508 31.3684 88.1477 31.3684C88.4635 31.3684 88.7642 31.3314 89.0274 31.2871V29.9639C88.8018 29.9861 88.659 30.0009 88.4109 30.0009C87.6064 30.0009 87.253 29.6312 87.253 28.7885V24.6489H89.0274V23.311H87.253V21.2707H85.6366Z" fill="white"/>
<path d="M93.6049 31.4793C95.9957 31.4793 97.4618 29.9048 97.4618 27.2953C97.4618 24.7007 95.9882 23.1188 93.6049 23.1188C91.214 23.1188 89.7404 24.7007 89.7404 27.2953C89.7404 29.9048 91.2065 31.4793 93.6049 31.4793ZM93.6049 30.0674C92.1989 30.0674 91.4095 29.0547 91.4095 27.2953C91.4095 25.5508 92.1989 24.5307 93.6049 24.5307C95.0033 24.5307 95.8002 25.5508 95.8002 27.2953C95.8002 29.0473 95.0033 30.0674 93.6049 30.0674Z" fill="white"/>
<path d="M98.7162 31.324H100.333V26.5709C100.333 25.4399 101.197 24.6785 102.423 24.6785C102.708 24.6785 103.19 24.7303 103.325 24.7746V23.2075C103.152 23.1631 102.844 23.1409 102.603 23.1409C101.536 23.1409 100.626 23.7175 100.393 24.5085H100.272V23.274H98.7162V31.324Z" fill="white"/>
<path d="M107.339 24.4715C108.534 24.4715 109.316 25.2921 109.353 26.5561H105.218C105.309 25.2995 106.143 24.4715 107.339 24.4715ZM109.346 29.1508C109.045 29.7791 108.376 30.1265 107.399 30.1265C106.106 30.1265 105.271 29.2321 105.218 27.8202V27.7315H111V27.1771C111 24.6489 109.624 23.1188 107.346 23.1188C105.038 23.1188 103.572 24.7524 103.572 27.3249C103.572 29.8974 105.008 31.4793 107.354 31.4793C109.226 31.4793 110.534 30.5922 110.902 29.1508H109.346Z" fill="white"/>
<path d="M75.0361 28.3513C75.1608 30.328 76.8362 31.5922 79.3298 31.5922C81.9949 31.5922 83.6625 30.2667 83.6625 28.1521C83.6625 26.4895 82.7118 25.5701 80.4052 25.0414L79.1662 24.7426C77.7012 24.4055 77.109 23.9535 77.109 23.1643C77.109 22.1683 78.0285 21.517 79.4078 21.517C80.7169 21.517 81.6209 22.1529 81.7845 23.172H83.4833C83.382 21.3102 81.7144 20 79.4311 20C76.9765 20 75.34 21.3102 75.34 23.2792C75.34 24.9035 76.2674 25.8689 78.3012 26.3363L79.7506 26.681C81.239 27.0258 81.8936 27.5315 81.8936 28.3743C81.8936 29.355 80.865 30.0675 79.4623 30.0675C77.9583 30.0675 76.9141 29.4009 76.7661 28.3513H75.0361Z" fill="white"/>
<path d="M58.2913 23.1409C57.1786 23.1409 56.2163 23.688 55.72 24.6046H55.5998V23.274H54.0434V34H55.6599V30.1043H55.7877C56.2163 30.9544 57.141 31.4571 58.3064 31.4571C60.3739 31.4571 61.6896 29.853 61.6896 27.2953C61.6896 24.7376 60.3739 23.1409 58.2913 23.1409ZM57.8327 30.0304C56.4794 30.0304 55.6298 28.9807 55.6298 27.3027C55.6298 25.6173 56.4794 24.5676 57.8402 24.5676C59.2086 24.5676 60.0281 25.5951 60.0281 27.2953C60.0281 29.0029 59.2086 30.0304 57.8327 30.0304Z" fill="white"/>
<path d="M67.3459 23.1409C66.2332 23.1409 65.2708 23.688 64.7746 24.6046H64.6543V23.274H63.098V34H64.7144V30.1043H64.8423C65.2708 30.9544 66.1956 31.4571 67.3609 31.4571C69.4285 31.4571 70.7442 29.853 70.7442 27.2953C70.7442 24.7376 69.4285 23.1409 67.3459 23.1409ZM66.8873 30.0304C65.5339 30.0304 64.6844 28.9807 64.6844 27.3027C64.6844 25.6173 65.5339 24.5676 66.8948 24.5676C68.2631 24.5676 69.0826 25.5951 69.0826 27.2953C69.0826 29.0029 68.2631 30.0304 66.8873 30.0304Z" fill="white"/>
<path d="M51.1433 31.324H52.9979L48.9379 20.2682H47.0599L43 31.324H44.7923L45.8287 28.3896H50.1146L51.1433 31.324ZM47.9093 22.2755H48.0418L49.6705 26.9492H46.2729L47.9093 22.2755Z" fill="white"/>
<path d="M27.375 20.3585C27.4019 18.2742 28.5229 16.3021 30.3013 15.2104C29.1794 13.6105 27.3002 12.5961 25.3451 12.5351C23.2599 12.3165 21.2384 13.7809 20.1758 13.7809C19.0926 13.7809 17.4566 12.5567 15.6948 12.5929C13.3984 12.667 11.2577 13.9706 10.1404 15.9752C7.73884 20.1269 9.53022 26.2286 11.8307 29.5845C12.9817 31.2278 14.3269 33.0634 16.0871 32.9983C17.8095 32.927 18.4528 31.9016 20.5319 31.9016C22.5917 31.9016 23.1953 32.9983 24.9911 32.9569C26.8394 32.927 28.0038 31.3063 29.1145 29.6475C29.9415 28.4765 30.5778 27.1824 31 25.8131C28.828 24.8958 27.3775 22.7133 27.375 20.3585Z" fill="white"/>
<path d="M23.9828 10.328C24.9906 9.1201 25.487 7.56752 25.3668 6C23.8272 6.16146 22.4051 6.89618 21.3837 8.05775C20.385 9.19267 19.8652 10.7179 19.9635 12.2255C21.5036 12.2414 23.0177 11.5266 23.9828 10.328Z" fill="white"/>
</svg>
