<svg width="71" height="71" viewBox="0 0 71 71" fill="none" xmlns="http://www.w3.org/2000/svg">
<g clip-path="url(#clip0)">
<path d="M7.59778e-06 35.543C-0.0126907 15.9249 15.8934 0.00488636 35.5122 1.1263e-06C55.1116 -0.00488411 70.9942 15.8829 71.0001 35.5C71.0059 55.1484 55.137 71.0098 35.482 71C15.8924 70.9912 0.0127059 55.122 7.59778e-06 35.543ZM3.86615 35.4834C3.85443 52.9432 17.9896 67.1319 35.4224 67.1602C52.9324 67.1885 67.1437 53.039 67.1583 35.5606C67.173 18.0724 53.031 3.87888 35.5748 3.86422C18.0541 3.84859 3.87787 17.9845 3.86615 35.4834Z" fill="#F7931F"/>
<path d="M3.86622 35.4834C3.87794 17.9845 18.0541 3.84864 35.5748 3.86427C53.0301 3.8799 67.172 18.0725 67.1584 35.5606C67.1437 53.039 52.9334 67.1896 35.4224 67.1603C17.9887 67.1319 3.8545 52.9433 3.86622 35.4834ZM8.24029 35.5108C8.23833 50.5847 20.4131 62.7714 35.4849 62.7831C50.5578 62.7948 62.7677 50.6159 62.7814 35.5557C62.795 20.4477 50.6223 8.24535 35.5318 8.24046C20.4258 8.2346 8.24224 20.4086 8.24029 35.5108Z" fill="#FEFEFE"/>
<path d="M8.24072 35.5106C8.24268 20.4084 20.4262 8.23444 35.5332 8.2403C50.6237 8.24518 62.7965 20.4485 62.7828 35.5556C62.7691 50.6158 50.5582 62.7947 35.4854 62.7829C20.4135 62.7712 8.23877 50.5835 8.24072 35.5106ZM24.8872 35.5194C24.8872 39.0026 24.8794 42.4858 24.897 45.9689C24.8989 46.3832 24.7827 46.4878 24.3822 46.4731C23.5207 46.4418 22.6572 46.4799 21.7957 46.4555C21.4469 46.4457 21.362 46.5591 21.3649 46.8952C21.3805 48.7017 21.3834 50.5083 21.3629 52.3149C21.359 52.6969 21.4557 52.8112 21.8464 52.8063C23.4738 52.7838 25.1011 52.8171 26.7284 52.7838C27.1993 52.7741 27.2979 52.9382 27.2852 53.3574C27.2608 54.1546 27.2911 54.9529 27.2735 55.7502C27.2667 56.0648 27.3614 56.1761 27.6867 56.1703C28.7279 56.1527 29.7702 56.1488 30.8105 56.1722C31.1689 56.1801 31.2441 56.0511 31.2363 55.7238C31.2158 54.8943 31.2451 54.0628 31.2227 53.2333C31.2139 52.9021 31.2891 52.7838 31.6446 52.7887C33.0112 52.8092 34.3787 52.8073 35.7452 52.7897C36.0793 52.7858 36.1975 52.8718 36.1887 53.2196C36.1652 54.0657 36.1994 54.9128 36.1711 55.758C36.1594 56.1126 36.2746 56.1801 36.6067 56.1722C37.6636 56.1488 38.7225 56.1527 39.7793 56.1703C40.0558 56.1752 40.1378 56.1058 40.132 55.8264C40.1154 54.9314 40.1378 54.0354 40.1203 53.1405C40.1144 52.8307 40.2082 52.7203 40.5266 52.6949C40.9456 52.6617 41.3676 52.5835 41.771 52.4663C45.5786 51.3613 48.1827 48.9304 49.2366 45.1189C50.3121 41.2303 49.433 37.708 46.5495 34.7857C46.3053 34.5385 46.2799 34.4085 46.4987 34.1203C48.2354 31.8291 48.8059 29.2419 48.3253 26.4261C47.6396 22.4065 44.5324 19.236 40.5061 18.4201C40.2101 18.3605 40.1105 18.2492 40.1183 17.9424C40.1408 17.0318 40.1154 16.1192 40.1329 15.2086C40.1388 14.9047 40.0372 14.8217 39.7432 14.8266C38.6853 14.8422 37.6275 14.849 36.5706 14.8256C36.2248 14.8178 36.1682 14.9526 36.173 15.2496C36.1877 16.1124 36.1701 16.9751 36.1848 17.8378C36.1896 18.1231 36.1193 18.2365 35.8058 18.2326C34.406 18.2159 33.0073 18.2179 31.6075 18.2316C31.3135 18.2345 31.2139 18.1602 31.2217 17.8505C31.2432 16.9722 31.2178 16.0928 31.2354 15.2135C31.2412 14.9155 31.1514 14.8217 30.8505 14.8266C29.7926 14.8432 28.7348 14.8461 27.6779 14.8256C27.3389 14.8188 27.2696 14.9507 27.2745 15.2526C27.2891 16.0821 27.2618 16.9135 27.2852 17.7431C27.296 18.1104 27.2159 18.2433 26.8105 18.2365C25.1343 18.2111 23.4581 18.2345 21.782 18.2198C21.4694 18.2169 21.362 18.2892 21.3649 18.6204C21.3805 20.4758 21.3795 22.3313 21.3659 24.1867C21.3639 24.4954 21.4674 24.5716 21.7585 24.5658C22.6367 24.5482 23.5168 24.5814 24.3939 24.5472C24.8169 24.5306 24.897 24.6771 24.895 25.0689C24.8813 28.5521 24.8872 32.0363 24.8872 35.5194Z" fill="#F7931F"/>
<path d="M24.8862 35.5197C24.8862 32.0365 24.8804 28.5533 24.895 25.0702C24.897 24.6784 24.8169 24.5318 24.3939 24.5484C23.5168 24.5836 22.6367 24.5494 21.7586 24.567C21.4665 24.5728 21.363 24.4966 21.3659 24.1879C21.3796 22.3325 21.3805 20.4771 21.3649 18.6216C21.362 18.2904 21.4694 18.2191 21.782 18.2211C23.4582 18.2357 25.1344 18.2123 26.8105 18.2377C27.2159 18.2435 27.296 18.1107 27.2852 17.7443C27.2618 16.9147 27.2892 16.0843 27.2745 15.2538C27.2696 14.9519 27.338 14.82 27.6779 14.8268C28.7348 14.8483 29.7936 14.8444 30.8505 14.8278C31.1514 14.8229 31.2412 14.9177 31.2354 15.2147C31.2188 16.0931 31.2432 16.9724 31.2217 17.8517C31.2139 18.1615 31.3135 18.2357 31.6075 18.2328C33.0073 18.2191 34.407 18.2172 35.8058 18.2338C36.1193 18.2377 36.1897 18.1234 36.1848 17.839C36.1711 16.9763 36.1887 16.1136 36.1731 15.2508C36.1682 14.9528 36.2238 14.819 36.5706 14.8268C37.6275 14.8502 38.6863 14.8444 39.7432 14.8278C40.0382 14.8229 40.1398 14.9059 40.133 15.2098C40.1154 16.1214 40.1408 17.033 40.1183 17.9436C40.1105 18.2513 40.2101 18.3618 40.5061 18.4214C44.5324 19.2372 47.6396 22.4077 48.3253 26.4273C48.8059 29.2421 48.2354 31.8294 46.4987 34.1215C46.2799 34.4097 46.3063 34.5397 46.5495 34.7869C49.4349 37.7102 50.314 41.2315 49.2386 45.1201C48.1846 48.9316 45.5795 51.3625 41.773 52.4675C41.3696 52.5848 40.9466 52.6629 40.5286 52.6961C40.2101 52.7215 40.1164 52.832 40.1222 53.1417C40.1388 54.0366 40.1164 54.9326 40.1339 55.8276C40.1388 56.107 40.0577 56.1764 39.7813 56.1715C38.7235 56.1539 37.6656 56.149 36.6087 56.1734C36.2766 56.1813 36.1613 56.1138 36.1731 55.7592C36.2004 54.914 36.1672 54.066 36.1906 53.2208C36.2004 52.873 36.0812 52.787 35.7472 52.7909C34.3806 52.8085 33.0131 52.8105 31.6466 52.7899C31.2911 52.7841 31.2149 52.9033 31.2246 53.2345C31.2481 54.064 31.2178 54.8945 31.2383 55.725C31.2461 56.0533 31.1709 56.1813 30.8124 56.1734C29.7712 56.15 28.7299 56.1539 27.6887 56.1715C27.3634 56.1774 27.2686 56.065 27.2755 55.7514C27.2921 54.9541 27.2628 54.1558 27.2872 53.3586C27.2999 52.9394 27.2012 52.7753 26.7304 52.785C25.1041 52.8183 23.4758 52.785 21.8484 52.8075C21.4567 52.8134 21.36 52.6981 21.3649 52.3161C21.3845 50.5095 21.3825 48.7029 21.3669 46.8964C21.3639 46.5603 21.4489 46.447 21.7976 46.4567C22.6592 46.4811 23.5226 46.444 24.3842 46.4743C24.7847 46.489 24.9009 46.3844 24.8989 45.9702C24.8784 42.486 24.8862 39.0028 24.8862 35.5197ZM35.8224 38.1577C34.2468 38.1577 32.9467 38.1694 31.6466 38.1499C31.3057 38.145 31.21 38.2378 31.2119 38.5817C31.2266 41.0693 31.2276 43.5578 31.2119 46.0454C31.21 46.402 31.3292 46.4684 31.6554 46.4675C34.1423 46.4548 36.6302 46.4694 39.1171 46.4587C41.4213 46.4479 43.1913 44.743 43.3183 42.4362C43.4414 40.189 42.1071 38.5221 39.8829 38.229C38.4451 38.0395 36.9926 38.2046 35.8224 38.1577ZM35.2314 24.567C35.2314 24.566 35.2314 24.565 35.2314 24.5631C34.027 24.5631 32.8227 24.5689 31.6183 24.5592C31.3516 24.5572 31.21 24.5855 31.2119 24.9187C31.2266 27.1005 31.2237 29.2822 31.2139 31.463C31.2129 31.7336 31.2842 31.8274 31.5665 31.8264C33.9264 31.8157 36.2873 31.8421 38.6463 31.8108C40.6223 31.7844 42.1627 30.1518 42.15 28.1684C42.1364 26.184 40.5764 24.5943 38.6004 24.5689C37.478 24.5553 36.3547 24.567 35.2314 24.567Z" fill="#FEFEFE"/>
<path d="M35.8234 38.1576C36.9936 38.2055 38.4461 38.0394 39.8839 38.229C42.108 38.5221 43.4423 40.1889 43.3193 42.4361C43.1933 44.7419 41.4233 46.4478 39.1181 46.4586C36.6312 46.4703 34.1433 46.4557 31.6564 46.4674C31.3301 46.4693 31.211 46.4019 31.2129 46.0453C31.2285 43.5578 31.2276 41.0692 31.2129 38.5817C31.211 38.2378 31.3067 38.144 31.6476 38.1498C32.9477 38.1694 34.2478 38.1576 35.8234 38.1576Z" fill="#F7931F"/>
<path d="M35.2324 24.5668C36.3557 24.5668 37.479 24.5551 38.6014 24.5697C40.5774 24.5951 42.1383 26.1848 42.151 28.1692C42.1647 30.1526 40.6233 31.7862 38.6473 31.8116C36.2873 31.8429 33.9274 31.8165 31.5675 31.8272C31.2842 31.8282 31.2129 31.7344 31.2149 31.4638C31.2246 29.282 31.2276 27.1003 31.2129 24.9195C31.211 24.5863 31.3516 24.558 31.6193 24.56C32.8236 24.5697 34.028 24.5639 35.2324 24.5639C35.2324 24.5648 35.2324 24.5658 35.2324 24.5668Z" fill="#F7931F"/>
</g>
<defs>
<clipPath id="clip0">
<rect width="71" height="71" fill="white"/>
</clipPath>
</defs>
</svg>
