<svg width="77" height="77" viewBox="0 0 77 77" fill="none" xmlns="http://www.w3.org/2000/svg">
<g clip-path="url(#clip0)">
<path d="M76.9915 35.8846C76.9915 36.7584 76.2831 37.4669 75.4092 37.4669H10.072C9.19816 37.4669 8.48975 36.7584 8.48975 35.8846V1.58224C8.48975 0.708414 9.19816 0 10.072 0H75.4092C76.2831 0 76.9915 0.708414 76.9915 1.58224V35.8846Z" fill="#78C2A4"/>
<path d="M76.9909 1.58224C76.9909 0.708414 76.2825 0 75.4087 0H72.332C73.2059 0 73.9143 0.708414 73.9143 1.58224V35.8846C73.9143 36.7584 73.2059 37.4669 72.332 37.4669H75.4087C76.2825 37.4669 76.9909 36.7584 76.9909 35.8846V1.58224Z" fill="#66B394"/>
<path d="M40.1575 77H25.2315C24.1623 77 23.2954 76.1332 23.2954 75.064V72.8493C23.2954 71.7802 24.1622 70.9133 25.2315 70.9133H40.1575C41.2267 70.9133 42.0936 71.78 42.0936 72.8493V75.064C42.0936 76.1332 41.2268 77 40.1575 77Z" fill="#EAB14D"/>
<path d="M40.1574 70.9131H37.0625C38.1317 70.9131 38.9986 71.7798 38.9986 72.849V75.0637C38.9986 76.1329 38.1318 76.9996 37.0625 76.9996H40.1574C41.2265 76.9996 42.0934 76.1329 42.0934 75.0637V72.849C42.0934 71.7798 41.2267 70.9131 40.1574 70.9131Z" fill="#E49542"/>
<path d="M42.6341 64.8264H27.708C26.6389 64.8264 25.772 63.9597 25.772 62.8904V60.6756C25.772 59.6065 26.6387 58.7396 27.708 58.7396H42.6341C43.7032 58.7396 44.5701 59.6063 44.5701 60.6756V62.8904C44.57 63.9597 43.7032 64.8264 42.6341 64.8264Z" fill="#EAB14D"/>
<path d="M42.6344 58.7397H39.5396C40.6087 58.7397 41.4756 59.6064 41.4756 60.6756V62.8903C41.4756 63.9595 40.6089 64.8264 39.5396 64.8264H42.6344C43.7036 64.8264 44.5705 63.9596 44.5705 62.8903V60.6756C44.5703 59.6064 43.7036 58.7397 42.6344 58.7397Z" fill="#E49542"/>
<path d="M40.1575 70.9132H25.2315C24.1623 70.9132 23.2954 70.0464 23.2954 68.9771V66.7624C23.2954 65.6932 24.1622 64.8263 25.2315 64.8263H40.1575C41.2267 64.8263 42.0936 65.6931 42.0936 66.7624V68.9771C42.0936 70.0464 41.2268 70.9132 40.1575 70.9132Z" fill="#F6E266"/>
<path d="M40.1574 64.8264H37.0625C38.1317 64.8264 38.9986 65.6932 38.9986 66.7623V68.977C38.9986 70.0462 38.1318 70.9131 37.0625 70.9131H40.1574C41.2265 70.9131 42.0934 70.0464 42.0934 68.977V66.7623C42.0934 65.6932 41.2267 64.8264 40.1574 64.8264Z" fill="#ECBE6B"/>
<path d="M72.1223 25.9491C72.2466 25.9452 72.3453 25.8434 72.3453 25.719V11.7479C72.3453 11.6235 72.2467 11.5218 72.1223 11.5178C68.5028 11.4025 65.5896 8.48925 65.4743 4.86973C65.4704 4.74552 65.3686 4.64673 65.2442 4.64673H20.2383C20.114 4.64673 20.0123 4.74537 20.0083 4.86973C19.8929 8.48925 16.9797 11.4025 13.3602 11.5178C13.236 11.5217 13.1372 11.6235 13.1372 11.7479V25.9455C16.9339 25.9455 20.0117 29.0233 20.0117 32.82H65.4707C65.4708 29.0979 68.4288 26.0667 72.1223 25.9491Z" fill="#E0F8C5"/>
<path d="M65.4745 4.86986C65.4706 4.74565 65.3688 4.64685 65.2445 4.64685H61.2646C61.2646 7.65389 63.1953 10.21 65.8848 11.1432C67.2333 11.6111 68.1392 12.8829 68.1392 14.3102V23.1566C68.1392 24.585 67.2342 25.8554 65.8848 26.3236C63.1953 27.2569 61.2646 29.8129 61.2646 32.82H65.4711C65.4711 29.0979 68.4291 26.0666 72.1226 25.9491C72.2468 25.9451 72.3456 25.8433 72.3456 25.719V11.7478C72.3456 11.6235 72.2469 11.5218 72.1226 11.5178C68.5031 11.4024 65.5899 8.48922 65.4745 4.86986Z" fill="#CCF49F"/>
<path d="M42.4726 26.479C40.9626 26.479 40.0367 26.3396 38.5176 25.3459C37.9806 24.9947 37.8301 24.2747 38.1814 23.7377C38.5327 23.2006 39.2527 23.0503 39.7895 23.4015C40.8435 24.0911 41.3024 24.1645 42.6486 24.1548C44.1126 24.1451 44.9624 23.0533 45.1321 22.0433C45.1989 21.6461 45.2946 20.3075 43.7242 19.7523C41.6719 19.0269 40.488 18.4591 39.6384 17.7926C38.6445 17.0132 38.1912 15.6594 38.4551 14.2596C38.7429 12.7322 39.8054 11.5171 41.2283 11.0883C43.9529 10.2679 46.6254 11.5832 46.7378 11.6398C47.3112 11.9274 47.5431 12.6256 47.2553 13.1991C46.9681 13.7715 46.2715 14.0032 45.6994 13.7182C45.6554 13.6969 43.7122 12.767 41.8984 13.3131C41.1943 13.5252 40.8375 14.1633 40.7384 14.69C40.6375 15.226 40.7684 15.7263 41.0723 15.9645C41.8621 16.5839 43.2475 17.1196 44.4986 17.5618C46.6449 18.3204 47.793 20.2308 47.4237 22.4285C47.0876 24.4275 45.3449 26.4605 42.6641 26.4784C42.5992 26.4787 42.5352 26.479 42.4726 26.479Z" fill="#365E7D"/>
<path d="M42.6559 28.4143C42.0143 28.4143 41.4941 27.8942 41.4941 27.2525V10.2139C41.4941 9.57227 42.0141 9.05212 42.6559 9.05212C43.2977 9.05212 43.8177 9.57227 43.8177 10.2139V27.2527C43.8176 27.8943 43.2976 28.4143 42.6559 28.4143Z" fill="#365E7D"/>
<path d="M71.6027 7.15286C70.9611 7.15286 70.4409 6.63271 70.4409 5.99106V5.68114C70.4409 5.03949 70.9609 4.51935 71.6027 4.51935C72.2445 4.51935 72.7645 5.03949 72.7645 5.68114V5.99106C72.7645 6.63271 72.2444 7.15286 71.6027 7.15286Z" fill="#E0F8C5"/>
<path d="M71.6027 32.9473C70.9611 32.9473 70.4409 32.4272 70.4409 31.7856V31.4756C70.4409 30.834 70.9609 30.3138 71.6027 30.3138C72.2445 30.3138 72.7645 30.834 72.7645 31.4756V31.7856C72.7645 32.4272 72.2444 32.9473 71.6027 32.9473Z" fill="#E0F8C5"/>
<path d="M13.8791 7.15286C13.2374 7.15286 12.7173 6.63271 12.7173 5.99106V5.68114C12.7173 5.03949 13.2373 4.51935 13.8791 4.51935C14.5207 4.51935 15.0409 5.03949 15.0409 5.68114V5.99106C15.0409 6.63271 14.5207 7.15286 13.8791 7.15286Z" fill="#E0F8C5"/>
<path d="M68.5099 52.5285C68.5099 53.4023 67.8015 54.1107 66.9277 54.1107H1.59054C0.716715 54.1107 0.00830078 53.4023 0.00830078 52.5285V18.2261C0.00830078 17.3523 0.716715 16.6439 1.59054 16.6439H66.9278C67.8016 16.6439 68.51 17.3523 68.51 18.2261V52.5285H68.5099Z" fill="#78C2A4"/>
<path d="M68.5105 18.2261C68.5105 17.3523 67.8021 16.6439 66.9282 16.6439H63.8516C64.7254 16.6439 65.4338 17.3523 65.4338 18.2261V52.5285C65.4338 53.4023 64.7254 54.1107 63.8516 54.1107H66.9282C67.8021 54.1107 68.5105 53.4023 68.5105 52.5285V18.2261Z" fill="#66B394"/>
<path d="M63.8634 42.5895V28.3919C63.8634 28.2675 63.7648 28.1659 63.6404 28.1618C60.0209 28.0465 57.1077 25.1333 56.9924 21.5138C56.9884 21.3896 56.8866 21.2908 56.7623 21.2908H11.7564C11.632 21.2908 11.5304 21.3894 11.5263 21.5138C11.411 25.1333 8.49779 28.0465 4.87828 28.1618C4.75407 28.1657 4.65527 28.2675 4.65527 28.3919V42.363C4.65527 42.4874 4.75392 42.5891 4.87828 42.5931C8.57178 42.7109 11.5298 45.742 11.5298 49.464H56.9888C56.9889 45.6672 60.0668 42.5895 63.8634 42.5895Z" fill="#E0F8C5"/>
<path d="M56.9913 21.5138C56.9874 21.3896 56.8856 21.2908 56.7612 21.2908H52.7812C52.7812 24.2978 54.7119 26.8539 57.4014 27.7871C58.7499 28.2551 59.6558 29.5268 59.6558 30.9541V39.8005C59.6558 41.2289 58.7508 42.4993 57.4014 42.9675C54.7119 43.9008 52.7812 46.4568 52.7812 49.4639H56.9877C56.9877 45.6672 60.0655 42.5894 63.8622 42.5894V28.3918C63.8622 28.2674 63.7635 28.1657 63.6392 28.1617C60.0198 28.0465 57.1066 25.1333 56.9913 21.5138Z" fill="#CCF49F"/>
<path d="M33.9896 43.1228C32.4805 43.1228 31.5545 42.9834 30.0357 41.9899C29.4987 41.6386 29.3482 40.9186 29.6995 40.3818C30.0507 39.8448 30.7704 39.6944 31.3076 40.0456C32.3618 40.7352 32.817 40.8084 34.1668 40.7989C35.6308 40.7893 36.4806 39.6976 36.6504 38.6872C36.7171 38.2903 36.8128 36.9515 35.2424 36.3964C33.1897 35.6707 32.0058 35.1029 31.1564 34.4366C30.1628 33.6574 29.7092 32.3035 29.9731 30.9036C30.261 29.3761 31.3237 28.161 32.7465 27.7325C35.4708 26.9114 38.1433 28.2272 38.2559 28.2837C38.8293 28.5714 39.0612 29.2696 38.7734 29.8431C38.4863 30.4154 37.7904 30.6475 37.2176 30.3624C37.1792 30.3439 35.2329 29.4099 33.4166 29.9573C32.7125 30.1693 32.3555 30.8075 32.2566 31.3339C32.1555 31.8699 32.2867 32.3703 32.5904 32.6085C33.3799 33.2277 34.7656 33.7634 36.017 34.2058C38.1631 34.9644 39.3112 36.8748 38.9418 39.0725C38.6057 41.0714 36.863 43.1045 34.1823 43.1224C34.1169 43.1227 34.0528 43.1228 33.9896 43.1228Z" fill="#365E7D"/>
<path d="M34.1755 45.0586C33.5338 45.0586 33.0137 44.5386 33.0137 43.8968V26.858C33.0137 26.2164 33.5337 25.6962 34.1755 25.6962C34.8171 25.6962 35.3373 26.2164 35.3373 26.858V43.8968C35.3373 44.5384 34.8173 45.0586 34.1755 45.0586Z" fill="#365E7D"/>
<path d="M51.6472 35.3775C51.6472 36.0191 51.1272 36.5393 50.4854 36.5393H47.2673C46.6256 36.5393 46.1055 36.0191 46.1055 35.3775C46.1055 34.7358 46.6255 34.2157 47.2673 34.2157H50.4854C51.1272 34.2157 51.6472 34.7358 51.6472 35.3775Z" fill="#365E7D"/>
<path d="M21.2512 36.5391H18.0329C17.3912 36.5391 16.8711 36.019 16.8711 35.3773C16.8711 34.7357 17.3911 34.2155 18.0329 34.2155H21.2512C21.8929 34.2155 22.413 34.7357 22.413 35.3773C22.413 36.019 21.8929 36.5391 21.2512 36.5391Z" fill="#365E7D"/>
<path d="M63.1203 23.7967C62.4786 23.7967 61.9585 23.2766 61.9585 22.6349V22.325C61.9585 21.6834 62.4785 21.1632 63.1203 21.1632C63.7621 21.1632 64.2821 21.6834 64.2821 22.325V22.6349C64.2819 23.2767 63.7619 23.7967 63.1203 23.7967Z" fill="#E0F8C5"/>
<path d="M5.39763 23.7967C4.75598 23.7967 4.23584 23.2766 4.23584 22.6349V22.325C4.23584 21.6834 4.75583 21.1632 5.39763 21.1632C6.03943 21.1632 6.55943 21.6834 6.55943 22.325V22.6349C6.55928 23.2767 6.03928 23.7967 5.39763 23.7967Z" fill="#E0F8C5"/>
<path d="M5.39763 49.5912C4.75598 49.5912 4.23584 49.0712 4.23584 48.4294V48.1195C4.23584 47.4778 4.75583 46.9577 5.39763 46.9577C6.03943 46.9577 6.55943 47.4777 6.55943 48.1195V48.4294C6.55928 49.0712 6.03928 49.5912 5.39763 49.5912Z" fill="#E0F8C5"/>
<path d="M17.5884 77.0001C25.6741 77.0001 32.229 70.4453 32.229 62.3595C32.229 54.2737 25.6741 47.7189 17.5884 47.7189C9.50258 47.7189 2.94775 54.2737 2.94775 62.3595C2.94775 70.4453 9.50258 77.0001 17.5884 77.0001Z" fill="#F6E266"/>
<path d="M17.588 47.7189C16.9892 47.7189 16.4002 47.759 15.8203 47.8289C23.0718 48.7023 28.6931 54.8725 28.6931 62.3595C28.6931 69.8465 23.0718 76.0167 15.8203 76.89C16.4002 76.9598 16.9892 77.0001 17.588 77.0001C25.6738 77.0001 32.2286 70.4453 32.2286 62.3595C32.2286 54.2737 25.6738 47.7189 17.588 47.7189Z" fill="#ECBE6B"/>
<path d="M17.5889 73.2882C11.5628 73.2882 6.66016 68.3856 6.66016 62.3595C6.66016 56.3334 11.5628 51.4308 17.5889 51.4308C23.615 51.4308 28.5177 56.3334 28.5177 62.3595C28.5177 68.3856 23.6152 73.2882 17.5889 73.2882ZM17.5889 53.7541C12.8439 53.7541 8.98359 57.6144 8.98359 62.3593C8.98359 67.1044 12.8439 70.9646 17.5889 70.9646C22.334 70.9646 26.1943 67.1044 26.1943 62.3593C26.1944 57.6145 22.334 53.7541 17.5889 53.7541Z" fill="#EAB14D"/>
<path d="M62.3506 68.7514C70.4364 68.7514 76.9912 62.1966 76.9912 54.1108C76.9912 46.025 70.4364 39.4702 62.3506 39.4702C54.2648 39.4702 47.71 46.025 47.71 54.1108C47.71 62.1966 54.2648 68.7514 62.3506 68.7514Z" fill="#F6E266"/>
<path d="M62.3516 39.4702C61.7528 39.4702 61.1638 39.5104 60.584 39.5803C67.8355 40.4537 73.4568 46.6238 73.4568 54.1108C73.4568 61.5978 67.8355 67.768 60.584 68.6414C61.1638 68.7111 61.7528 68.7514 62.3516 68.7514C70.4374 68.7514 76.9922 62.1966 76.9922 54.1108C76.9922 46.025 70.4374 39.4702 62.3516 39.4702Z" fill="#ECBE6B"/>
<path d="M62.3516 65.0396C56.3255 65.0396 51.4229 60.1371 51.4229 54.111C51.4229 48.0848 56.3255 43.1822 62.3516 43.1822C68.3777 43.1822 73.2802 48.0848 73.2802 54.111C73.2802 60.1371 68.3777 65.0396 62.3516 65.0396ZM62.3516 45.5055C57.6065 45.5055 53.7463 49.3657 53.7463 54.1108C53.7463 58.8557 57.6065 62.716 62.3516 62.716C67.0965 62.716 70.9568 58.8557 70.9568 54.1108C70.9568 49.3657 67.0965 45.5055 62.3516 45.5055Z" fill="#EAB14D"/>
<path d="M20.8683 63.521H14.3078C13.6661 63.521 13.146 63.001 13.146 62.3592C13.146 61.7174 13.666 61.1974 14.3078 61.1974H20.8683C21.51 61.1974 22.0301 61.7174 22.0301 62.3592C22.0301 63.001 21.51 63.521 20.8683 63.521Z" fill="#EAB14D"/>
<path d="M65.632 55.2726H59.0715C58.4298 55.2726 57.9097 54.7526 57.9097 54.1108C57.9097 53.4691 58.4297 52.949 59.0715 52.949H65.632C66.2737 52.949 66.7938 53.469 66.7938 54.1108C66.7938 54.7526 66.2737 55.2726 65.632 55.2726Z" fill="#EAB14D"/>
</g>
<defs>
<clipPath id="clip0">
<rect width="77" height="77" fill="white"/>
</clipPath>
</defs>
</svg>
