<svg width="168" height="69" viewBox="0 0 168 69" fill="none" xmlns="http://www.w3.org/2000/svg">
<g clip-path="url(#clip0)">
<path d="M59.0143 64.4279V60.324C59.0143 58.7508 58.0541 57.7248 56.4079 57.7248C55.5848 57.7248 54.6931 57.9985 54.0758 58.8876C53.5957 58.1352 52.9098 57.7248 51.8809 57.7248C51.195 57.7248 50.5091 57.9301 49.9604 58.6824V57.8617H48.52V64.4279H49.9604V60.8028C49.9604 59.64 50.5777 59.0928 51.538 59.0928C52.4982 59.0928 52.9784 59.7084 52.9784 60.8028V64.4279H54.4188V60.8028C54.4188 59.64 55.1047 59.0928 55.9964 59.0928C56.9566 59.0928 57.4368 59.7084 57.4368 60.8028V64.4279H59.0143ZM80.3459 57.8617H78.0138V55.8781H76.5734V57.8617H75.2702V59.1612H76.5734V62.1708C76.5734 63.6755 77.1907 64.5647 78.8369 64.5647C79.4542 64.5647 80.1401 64.3595 80.6202 64.0859L80.2087 62.8547C79.7972 63.1283 79.317 63.1967 78.9741 63.1967C78.2882 63.1967 78.0138 62.7864 78.0138 62.1024V59.1612H80.3459V57.8617ZM92.5549 57.7248C91.7319 57.7248 91.1831 58.1353 90.8402 58.6824V57.8617H89.3998V64.4279H90.8402V60.7344C90.8402 59.64 91.3203 59.0244 92.212 59.0244C92.4863 59.0244 92.8293 59.0928 93.1037 59.1612L93.5152 57.7933C93.2409 57.7249 92.8293 57.7248 92.5549 57.7248ZM74.1042 58.4088C73.4183 57.93 72.458 57.7248 71.4292 57.7248C69.783 57.7248 68.6855 58.5456 68.6855 59.8452C68.6855 60.9396 69.5086 61.5552 70.949 61.7604L71.6349 61.8288C72.3894 61.9656 72.801 62.1708 72.801 62.5128C72.801 62.9915 72.2522 63.3335 71.292 63.3335C70.3317 63.3335 69.5772 62.9916 69.0971 62.6496L68.4112 63.7439C69.1657 64.2911 70.1945 64.5647 71.2234 64.5647C73.1439 64.5647 74.2414 63.6756 74.2414 62.4444C74.2414 61.2816 73.3497 60.666 71.9779 60.4608L71.292 60.3924C70.6747 60.324 70.1945 60.1872 70.1945 59.7768C70.1945 59.298 70.6747 59.0244 71.4292 59.0244C72.2522 59.0244 73.0753 59.3664 73.4869 59.5716L74.1042 58.4088ZM112.378 57.7248C111.554 57.7248 111.006 58.1353 110.663 58.6824V57.8617H109.222V64.4279H110.663V60.7344C110.663 59.64 111.143 59.0244 112.035 59.0244C112.309 59.0244 112.652 59.0928 112.926 59.1612L113.338 57.7933C113.063 57.7249 112.652 57.7248 112.378 57.7248ZM93.9953 61.1448C93.9953 63.1283 95.3671 64.5647 97.4934 64.5647C98.4537 64.5647 99.1396 64.3595 99.8255 63.8123L99.1396 62.6496C98.5909 63.06 98.0422 63.2651 97.4249 63.2651C96.2588 63.2651 95.4357 62.4444 95.4357 61.1448C95.4357 59.9136 96.2588 59.0928 97.4249 59.0244C98.0422 59.0244 98.5909 59.2296 99.1396 59.64L99.8255 58.4772C99.1396 57.93 98.4537 57.7248 97.4934 57.7248C95.3671 57.7248 93.9953 59.1612 93.9953 61.1448ZM107.302 61.1448V57.8617H105.861V58.6824C105.381 58.0669 104.695 57.7248 103.804 57.7248C101.952 57.7248 100.511 59.1612 100.511 61.1448C100.511 63.1283 101.952 64.5647 103.804 64.5647C104.764 64.5647 105.45 64.2227 105.861 63.6071V64.4279H107.302V61.1448ZM102.02 61.1448C102.02 59.982 102.775 59.0244 104.01 59.0244C105.176 59.0244 105.999 59.9136 105.999 61.1448C105.999 62.3076 105.176 63.2651 104.01 63.2651C102.775 63.1967 102.02 62.3076 102.02 61.1448ZM84.8042 57.7248C82.8837 57.7248 81.5119 59.0928 81.5119 61.1448C81.5119 63.1967 82.8837 64.5647 84.8728 64.5647C85.8331 64.5647 86.7934 64.2911 87.5479 63.6755L86.862 62.6496C86.3132 63.06 85.6273 63.3335 84.9414 63.3335C84.0498 63.3335 83.1581 62.9232 82.9523 61.7604H87.8222V61.2132C87.8908 59.0928 86.6562 57.7248 84.8042 57.7248ZM84.8042 58.956C85.6959 58.956 86.3132 59.5032 86.4504 60.5292H83.0209C83.1581 59.64 83.7754 58.956 84.8042 58.956ZM120.54 61.1448V55.2625H119.099V58.6824C118.619 58.0669 117.933 57.7248 117.042 57.7248C115.19 57.7248 113.749 59.1612 113.749 61.1448C113.749 63.1283 115.19 64.5647 117.042 64.5647C118.002 64.5647 118.688 64.2227 119.099 63.6071V64.4279H120.54V61.1448ZM115.258 61.1448C115.258 59.982 116.013 59.0244 117.247 59.0244C118.413 59.0244 119.237 59.9136 119.237 61.1448C119.237 62.3076 118.413 63.2651 117.247 63.2651C116.013 63.1967 115.258 62.3076 115.258 61.1448ZM67.108 61.1448V57.8617H65.6676V58.6824C65.1874 58.0669 64.5015 57.7248 63.6099 57.7248C61.7579 57.7248 60.3175 59.1612 60.3175 61.1448C60.3175 63.1283 61.7579 64.5647 63.6099 64.5647C64.5701 64.5647 65.256 64.2227 65.6676 63.6071V64.4279H67.108V61.1448ZM61.7579 61.1448C61.7579 59.982 62.5124 59.0244 63.747 59.0244C64.9131 59.0244 65.7362 59.9136 65.7362 61.1448C65.7362 62.3076 64.9131 63.2651 63.747 63.2651C62.5124 63.1967 61.7579 62.3076 61.7579 61.1448Z" fill="black"/>
<path d="M95.2304 7.99896H73.6245V46.7126H95.2304V7.99896Z" fill="#FF5F00"/>
<path d="M74.9958 27.3557C74.9958 19.4899 78.6997 12.5132 84.3927 7.99888C80.2087 4.71575 74.9272 2.73218 69.1656 2.73218C55.5162 2.73218 44.4731 13.7444 44.4731 27.3557C44.4731 40.967 55.5162 51.9792 69.1656 51.9792C74.9272 51.9792 80.2087 49.9957 84.3927 46.7125C78.6997 42.2666 74.9958 35.2216 74.9958 27.3557Z" fill="#EB001B"/>
<path d="M124.38 27.3557C124.38 40.967 113.337 51.9792 99.688 51.9792C93.9264 51.9792 88.6449 49.9957 84.4609 46.7125C90.2225 42.1982 93.8578 35.2216 93.8578 27.3557C93.8578 19.4899 90.1539 12.5132 84.4609 7.99888C88.6449 4.71575 93.9264 2.73218 99.688 2.73218C113.337 2.73218 124.38 13.8128 124.38 27.3557Z" fill="#F79E1B"/>
</g>
<defs>
<clipPath id="clip0">
<rect width="168" height="69" fill="white"/>
</clipPath>
</defs>
</svg>
