<svg width="34" height="44" viewBox="0 0 34 44" fill="none" xmlns="http://www.w3.org/2000/svg">
<path d="M20.2773 19.0664L20.2772 19.0659C20.2669 18.9674 20.2618 18.869 20.2716 18.7779C20.2816 18.6856 20.3087 18.5844 20.3767 18.4957C20.518 18.3111 20.7503 18.2839 20.957 18.2881C20.957 18.2881 20.957 18.2881 20.957 18.2881L20.9519 18.538C21.8124 18.5555 22.673 18.5522 23.5336 18.5489C23.8778 18.5475 24.222 18.5462 24.5662 18.5462C25.2398 18.5462 25.9134 18.5462 26.583 18.5448L20.2773 19.0664ZM20.2773 19.0664C20.7254 23.2512 21.3867 27.4057 22.7316 31.4205M20.2773 19.0664L22.7635 41.3064M9.13457 19.2017C9.15987 20.8688 9.36754 22.5184 9.67239 24.1556C10.3061 27.5485 11.4656 30.7278 13.3626 33.6039C15.7108 37.1641 18.8472 39.7695 22.6585 41.5333L9.13457 19.2017ZM9.13457 19.2017C9.12658 18.7026 9.00145 18.5244 8.47295 18.5312L9.13457 19.2017ZM22.7635 41.3064C25.928 42.7704 29.2438 43.6156 32.7189 43.7489L32.719 43.7489C33.0311 43.7611 33.2802 43.6709 33.4524 43.5256C33.6234 43.3811 33.7328 43.1704 33.7483 42.9101C33.7779 42.3949 33.4085 41.9741 32.7753 41.9559L32.7751 41.9559C30.3425 41.8842 28.3785 40.8167 26.78 39.0292L26.7799 39.0291C24.8093 36.8237 23.6513 34.1665 22.7316 31.4205M22.7635 41.3064C18.992 39.5611 15.8925 36.9854 13.5712 33.4663C11.6957 30.6227 10.5468 27.4759 9.91816 24.1099C9.61505 22.4819 9.40956 20.847 9.38454 19.1979L9.38454 19.1977C9.38053 18.9469 9.35069 18.6884 9.18228 18.5068C9.00698 18.3177 8.74648 18.2777 8.46974 18.2813L8.46933 18.2813C6.82754 18.3051 5.18663 18.3013 3.54327 18.2976C2.93711 18.2962 2.33062 18.2948 1.72363 18.2948C1.68025 18.2948 1.63809 18.2951 1.59672 18.2953C1.49732 18.2958 1.40248 18.2964 1.30619 18.2936L1.30498 18.2936C1.07145 18.2879 0.875864 18.2503 0.718762 18.1705C0.56727 18.0935 0.438208 17.9709 0.343462 17.7675C0.242912 17.5515 0.230994 17.3646 0.27229 17.192C0.315049 17.0131 0.419374 16.8316 0.580736 16.6405L0.580867 16.6404C1.32624 15.7564 2.06888 14.8693 2.81094 13.983C3.0817 13.6595 3.35239 13.3362 3.62311 13.0132L22.7635 41.3064ZM22.7316 31.4205L22.9687 31.3411L22.7316 31.4205C22.7316 31.4205 22.7316 31.4205 22.7316 31.4205ZM11.1224 18.5327C11.1694 20.835 11.443 23.1093 11.9922 25.3466L11.9922 25.3467C13.3568 30.8961 16.2585 35.3551 21.0926 38.4035C22.2306 39.1235 23.4266 39.7435 24.7327 40.1665L25.4951 40.4134L25.0084 39.7768C23.8725 38.2912 22.9494 36.6947 22.209 34.9867C19.8443 29.5288 18.8625 23.7395 18.4243 17.8139C18.3817 17.2352 18.4719 16.9232 18.6375 16.7473C18.8039 16.5706 19.109 16.4647 19.6729 16.464L19.6729 16.464C20.7259 16.4625 21.7777 16.4627 22.8299 16.4629C23.6192 16.4631 24.4085 16.4633 25.1987 16.4627C25.3309 16.4627 25.4679 16.4544 25.6157 16.4454C25.681 16.4414 25.7483 16.4373 25.8182 16.4338L26.2623 16.4112L26.0123 16.0435C25.9881 16.008 25.9661 15.9745 25.9455 15.9432C25.9038 15.8795 25.8681 15.8252 25.8334 15.783L25.832 15.7814C24.9684 14.7516 24.1045 13.722 23.2406 12.6925C20.5554 9.49239 17.8702 6.29229 15.1933 3.08353L15.1932 3.08347C15.1113 2.98538 15.0235 2.90176 14.9242 2.85253C14.8116 2.79676 14.6906 2.78881 14.5762 2.8358C14.479 2.87569 14.4088 2.94692 14.3638 2.99722C14.337 3.02721 14.303 3.06929 14.2738 3.10545C14.2583 3.12461 14.2442 3.14211 14.2332 3.15526C12.488 5.23644 10.7422 7.31695 8.99631 9.39749L8.99255 9.40198C7.2479 11.4811 5.50323 13.5602 3.75921 15.64L3.75891 15.6404C3.7476 15.6539 3.73352 15.6677 3.70619 15.6945L3.70459 15.6961C3.68017 15.7201 3.64424 15.7554 3.6115 15.7973C3.5378 15.8917 3.47694 16.024 3.50402 16.1992L3.52348 16.3251L3.63673 16.3833C3.77807 16.456 3.91745 16.4708 4.03342 16.4712C4.08996 16.4714 4.14519 16.4681 4.1916 16.4653L4.19246 16.4652C4.24149 16.4623 4.28108 16.46 4.31903 16.46C5.18117 16.4619 6.04056 16.4617 6.89958 16.4615C7.88059 16.4613 8.86112 16.4611 9.84471 16.464L9.8448 16.464C10.3502 16.4653 10.6347 16.5654 10.8045 16.7346C10.9763 16.9058 11.084 17.2005 11.1039 17.7234L11.1039 17.7238C11.1106 17.8937 11.1135 18.0609 11.1165 18.2311C11.1182 18.3303 11.1199 18.4304 11.1224 18.5327ZM11.1224 18.5327C11.1224 18.5326 11.1224 18.5324 11.1224 18.5323L11.3724 18.5272L11.1224 18.5333C11.1224 18.5331 11.1224 18.5329 11.1224 18.5327Z" fill="#ADAEAF" stroke="white" stroke-width="0.5"/>
</svg>
