<svg width="192" height="112" viewBox="0 0 192 112" fill="none" xmlns="http://www.w3.org/2000/svg">
<g clip-path="url(#clip0)">
<path d="M135.903 22.9927C138.578 22.9967 140.763 24.1603 142.619 25.9997C145.401 28.7548 148.158 31.5339 150.88 34.353C153.175 36.7363 154.029 39.6273 153.788 42.9463C153.531 46.4851 151.465 48.8764 149.122 51.1756C147.696 52.5792 146.187 53.9107 144.974 55.5262C144.808 55.5382 144.697 55.6102 144.567 55.7421C139.862 60.5246 135.137 65.2831 130.447 70.0735C129.278 71.2691 127.963 72.3288 127.003 73.7244C126.797 73.7364 126.687 73.8603 126.536 74.0123C123.672 76.9393 120.792 79.8504 117.912 82.7654C115.404 85.3006 112.828 87.7718 110.43 90.419C110.197 90.411 110.066 90.507 110.082 90.7629L110.035 90.8149C109.794 90.8029 109.663 90.9068 109.683 91.1627L109.64 91.2187C109.426 91.2187 109.26 91.2747 109.288 91.5426C108.944 91.8145 108.616 92.0984 108.399 92.4943C107.81 92.9222 107.309 93.434 106.858 94.0018C106.602 93.9858 106.53 94.1498 106.515 94.3657L106.479 94.3977C106.234 94.3937 106.127 94.5257 106.12 94.7616C105.827 94.9415 105.567 95.1535 105.448 95.4974C105.227 95.5493 105.041 95.6413 105.049 95.9172L105.045 95.9212C104.508 95.9812 104.417 96.637 103.935 96.7689C103.567 96.7689 103.271 96.649 102.947 96.4371C102.228 95.9692 101.426 95.8173 100.541 95.9092C99.447 96.0212 98.724 96.721 97.9813 97.3807C97.1517 98.1165 96.4998 99.0802 95.4253 99.4841C94.4969 99.828 93.5171 100.032 92.5887 100.368C91.5971 100.728 90.9295 101.499 90.4949 102.431C89.9221 103.663 90.0761 104.998 90.088 106.31C86.9235 106.534 84.4149 105.018 82.2579 102.967C79.4964 100.336 76.9403 97.4887 74.2539 94.7736C70.4613 90.9388 66.6253 87.152 62.8248 83.3293C59.6761 80.1623 56.5473 76.9753 53.4144 73.7963C51.7117 72.0689 50.0169 70.3334 48.3221 68.594C47.4727 67.7183 46.6075 66.8586 45.8055 65.9389C44.5295 64.4753 43.7591 62.7799 43.3956 60.8365C43.1863 59.7169 43.0045 58.6532 43.2021 57.5216C43.4786 55.9341 44.0159 54.4346 44.6322 52.959C44.7191 52.8791 44.806 52.7951 44.889 52.7151C44.964 52.2873 45.3314 52.0753 45.5764 51.7794C46.0663 51.1836 46.7813 50.7917 47.1053 50.044C47.3581 50.04 47.5003 49.872 47.6702 49.6961C49.0964 48.2206 50.4949 46.709 51.9882 45.3015C53.5882 43.794 54.9117 41.9506 56.9858 40.9989C57.6929 40.675 58.3922 40.3431 59.0954 40.0152C59.5221 39.9952 59.9527 40.0112 60.3714 39.9472C64.0771 39.3834 67.1428 40.655 69.7384 43.2821C72.4564 46.0333 75.1665 48.7924 77.8806 51.5435C81.7008 55.4182 85.525 59.285 89.3295 63.1718C89.8707 63.7236 90.2381 63.8036 90.8307 63.2077C92.9798 61.0524 94.9986 58.7612 97.2742 56.7378C97.5389 56.7938 97.7561 56.7658 98.0011 56.5779C98.7043 56.042 99.4075 55.4702 100.194 55.0784C100.798 54.7745 101.395 54.2146 102.173 54.4706C103.793 55.0024 104.923 56.138 105.871 57.5336C106.665 58.7052 107.51 59.8688 108.889 60.4246C111.319 61.4043 113.385 60.4086 115.336 59.0931C116.849 58.0734 117.928 56.6059 118.959 55.1223C119.599 54.1986 120.184 53.159 120.551 52.1593C120.994 50.9477 121.567 49.7761 122.025 48.5764C122.902 46.2852 123.664 43.9499 124.652 41.6987C125.446 39.8872 126.343 38.1518 127.891 36.8642C129.183 35.7886 130.586 34.8649 132.012 33.9811C134.058 32.7175 135.22 30.7502 135.413 28.5029C135.571 26.6595 136.097 24.8521 135.903 22.9927ZM125.071 64.5993C125.177 63.5476 124.565 62.8918 123.696 62.456C122.854 62.0361 122.104 62.308 121.464 62.9478C120.634 63.7796 119.808 64.6193 118.983 65.451C116.103 68.3621 113.219 71.2691 110.339 74.1842C109.754 74.776 109.197 75.3878 109.505 76.3275C110.157 78.3069 111.982 78.7547 113.44 77.2832C117.138 73.5484 120.824 69.8016 124.522 66.0628C124.925 65.663 125.11 65.1991 125.071 64.5993ZM58.7635 69.7936C60.5097 69.7896 61.5645 68.1302 60.6677 66.7266C59.6485 65.1311 58.2421 63.8195 56.7448 62.6839C55.7848 61.9561 54.7181 62.28 53.9754 63.2317C53.3591 64.0195 53.4223 65.2551 54.169 66.0468C55.1606 67.0945 56.1877 68.1102 57.1952 69.1418C57.6574 69.6177 58.1907 69.8976 58.7635 69.7936ZM69.4579 69.9336C69.3512 69.5977 69.284 69.2538 68.9956 68.9779C67.7749 67.7983 66.57 66.5986 65.3769 65.395C62.8643 62.8638 60.3635 60.3167 57.8549 57.7815C57.4875 57.4096 57.124 56.8898 56.5591 57.4936C56.0297 58.0574 56.5591 58.3973 56.8831 58.7292C59.0124 60.8925 61.1497 63.0438 63.291 65.1991C64.9384 66.8586 66.5897 68.51 68.249 70.1615C68.4781 70.3894 68.7152 70.6653 69.1023 70.5094C69.3433 70.4054 69.3986 70.1695 69.4579 69.9336ZM131.854 62.504C132.154 62.52 132.273 62.344 132.407 62.2041C135.038 59.5089 137.665 56.8138 140.292 54.1187C140.506 53.8987 140.778 53.6508 140.541 53.3589C140.281 53.035 139.878 53.119 139.554 53.3029C139.36 53.4109 139.218 53.6188 139.056 53.7788C137.345 55.4742 135.643 57.1777 133.924 58.8691C133.098 59.6809 132.32 60.5286 131.593 61.4323C131.411 61.6562 131.281 61.8802 131.471 62.1441C131.585 62.296 131.751 62.408 131.854 62.504ZM73.6021 51.9834C73.286 51.9434 73.1201 52.1233 72.9976 52.3872C72.8356 52.7191 72.9818 52.955 73.207 53.179C74.807 54.7984 76.407 56.4179 78.011 58.0334C78.3073 58.3333 78.6431 58.5732 79.0105 58.1454C79.3305 57.7695 79.1961 57.4376 78.8722 57.1057C77.3275 55.5302 75.7947 53.9347 74.2579 52.3512C74.0761 52.1673 73.9142 51.9354 73.6021 51.9834ZM70.5324 77.0993C70.5127 77.0113 70.5245 76.7994 70.4297 76.6994C68.9838 75.2119 67.5379 73.7284 66.0564 72.2808C65.8272 72.0569 65.3808 72.0529 65.1477 72.3048C64.891 72.5847 64.8949 73.0206 65.1675 73.3045C66.5621 74.748 67.9843 76.1716 69.3986 77.5991C69.6356 77.839 69.9477 77.7831 70.2361 77.7271C70.5364 77.6671 70.5127 77.4032 70.5324 77.0993ZM137.116 53.179C137.401 52.979 137.503 52.9071 137.602 52.8311C139.068 51.7674 140.162 50.3279 141.399 49.0323C141.632 48.7884 141.624 48.3605 141.343 48.1246C141.047 47.8767 140.62 47.8807 140.348 48.1486C139.174 49.2962 138.029 50.4758 136.887 51.6555C136.634 51.9154 136.654 52.2713 136.772 52.5912C136.851 52.8071 137.002 52.991 137.116 53.179ZM132.861 42.0545C132.735 41.5867 132.569 41.1668 131.882 41.5307C130.933 42.0306 130.116 42.7183 129.27 43.3621C128.808 43.714 128.99 44.3618 129.519 44.5217C129.993 44.6697 132.842 42.6224 132.861 42.0545ZM135.722 40.4311C136.164 40.4231 138.76 38.5437 138.874 38.1718C138.965 37.8679 138.799 37.652 138.621 37.46C138.412 37.2321 138.151 37.2601 137.91 37.428C137.057 38.0278 136.2 38.6236 135.358 39.2434C135.042 39.4754 135.086 39.8153 135.176 40.1512C135.263 40.4551 135.52 40.4031 135.722 40.4311ZM132.893 39.7713C133.256 39.6193 133.624 39.3394 133.339 38.8516C132.814 37.9399 132.237 37.0522 131.597 36.2204C131.289 35.8206 130.767 35.7526 130.479 36.3164C130.218 36.8242 132.221 39.7393 132.893 39.7713ZM135.018 42.0306C134.442 42.1425 134.208 42.5424 134.513 43.0262C135.082 43.9299 135.761 44.7577 136.373 45.6334C136.61 45.9693 136.887 46.0493 137.199 45.8333C137.547 45.5934 137.602 45.2295 137.369 44.8816C136.832 44.0659 136.287 43.2582 135.718 42.4664C135.56 42.2385 135.406 41.9346 135.018 42.0306ZM100.723 56.9737C100.462 56.7098 100.134 56.3499 99.7156 56.7538C98.5186 57.9094 97.3611 59.1091 96.1956 60.2967C96.0218 60.4766 95.9389 60.7165 96.164 60.9045C96.3616 61.0724 96.6026 61.2324 96.8791 61.0964C97.0806 60.9964 97.286 60.8685 97.444 60.7085C98.4277 59.6969 99.3996 58.6692 100.375 57.6495C100.529 57.4856 100.715 57.3376 100.723 56.9737ZM87.291 99.2841C87.3028 98.7443 85.1695 96.725 84.6401 96.7689C84.0356 96.8209 83.8026 97.2648 84.1779 97.7406C84.7626 98.4844 85.371 99.2082 86.1532 99.764C86.4337 99.9639 86.6905 99.9759 86.971 99.848C87.1922 99.748 87.2949 99.5401 87.291 99.2841ZM86.5324 94.0458C86.5048 93.9459 86.5127 93.7019 86.3981 93.578C85.5369 92.6703 84.6598 91.7786 83.771 90.8988C83.5655 90.6989 83.2692 90.6789 83.0559 90.8908C82.8307 91.1148 82.7201 91.4307 82.969 91.6946C83.8974 92.6743 84.8218 93.6619 85.8095 94.5777C86.2322 94.9695 86.5166 94.6856 86.5324 94.0458ZM49.8589 63.7676C50.0801 63.7556 50.3448 63.8315 50.491 63.6076C50.6253 63.3997 50.6095 63.1438 50.4356 62.9598C49.9616 62.46 49.4796 61.9641 48.9779 61.4963C48.7685 61.3004 48.484 61.3283 48.247 61.4883C48.0337 61.6322 47.9942 61.8642 48.0376 62.1081C48.1127 62.552 49.4164 63.7316 49.8589 63.7676ZM97.0806 65.7669C97.527 65.7509 98.6687 64.7592 98.7477 64.2754C98.7952 63.9955 98.89 63.6356 98.5897 63.4557C98.25 63.2477 97.9813 63.4757 97.7403 63.7276C97.3808 64.1074 97.0055 64.4673 96.6421 64.8432C96.4445 65.0472 96.3458 65.2871 96.4722 65.563C96.5986 65.8309 96.8633 65.7429 97.0806 65.7669Z" fill="#78CD36"/>
<path d="M47.1092 50.0279C46.7853 50.7757 46.0702 51.1676 45.5804 51.7634C45.3354 52.0593 44.968 52.2712 44.8929 52.7031C44.81 52.6791 44.727 52.6551 44.6441 52.6351C44.6717 52.4232 44.6125 52.2432 44.4702 52.0873C42.2381 49.6641 39.9784 47.2688 37.9754 44.6377C37.691 44.2658 37.2169 44.2418 36.9246 44.5057C36.6243 44.7816 36.648 45.2695 36.9838 45.5654C38.0386 46.5051 38.6431 47.8367 39.7097 48.7684C40.251 49.2402 40.65 49.852 41.0925 50.4198C41.9142 51.4675 42.7912 52.5071 43.9527 53.2229C43.4194 54.1946 42.5423 54.8544 41.768 55.5862C39.5715 57.6535 37.932 60.0527 37.6001 63.1237C37.1932 66.8505 38.5048 69.9815 41.132 72.6007C44.7784 76.2355 48.3932 79.9103 52.0159 83.5732C58.7991 90.431 65.5902 97.2808 72.3576 104.155C73.9616 105.782 75.6525 107.326 77.0944 109.105C75.4826 109.569 73.772 109.301 72.1878 109.633C70.6194 109.961 69.0549 109.677 67.5497 109.997C66.1631 110.293 64.8041 110.365 63.4174 110.317C62.5246 109.093 61.3275 108.209 60.2174 107.21C56.5947 103.963 52.9996 100.68 49.3216 97.4967C47.8638 96.2331 46.6549 94.6696 44.9443 93.7099C45.1576 93.2501 45.1339 92.8462 44.8021 92.4223C44.3201 91.8105 43.8737 91.1587 43.447 90.5029C43.2258 90.163 42.965 89.9831 42.5581 90.0191C42.1117 90.0591 41.9576 90.359 41.9023 90.7549C41.5586 90.7469 41.4125 90.439 41.2031 90.251C39.9349 89.1114 38.6944 87.9438 37.4144 86.8201C34.7083 84.4489 31.9468 82.1456 29.3433 79.6544C28.1384 78.5028 26.7478 77.5671 25.6218 76.3195C25.3809 76.0516 25.0174 75.6917 24.5315 75.7597C24.2154 74.772 24.1759 73.7523 24.1167 72.7206C23.8559 68.1301 23.8638 63.5196 22.9749 58.9771C22.4376 56.226 21.3117 53.7388 19.9132 51.3795C18.3172 48.6924 17.1004 45.8493 16.0495 42.9182C15.3068 40.8429 14.8288 38.7036 14.3823 36.5363C13.8688 34.0331 13.5725 31.5499 13.6712 29.0107C13.7581 26.8074 14.2204 24.6721 14.7458 22.5328C15.3463 20.0896 16.5038 17.9223 17.6693 15.747C17.8312 15.4431 17.9576 15.0552 18.3883 14.9912C18.9572 15.667 19.5379 16.3388 20.0949 17.0226C22.0189 19.3938 23.9389 21.765 25.851 24.1443C26.4831 24.936 27.0836 25.7557 27.6959 26.5595C26.9769 26.5475 26.2934 26.6395 25.6297 26.9874C23.7927 27.951 23.6426 29.9944 24.9186 30.9861C24.9186 31.3659 25.207 31.5619 25.4322 31.7978C26.8742 33.3293 28.8258 33.7292 30.7339 34.161C32.0653 34.461 33.4362 34.5849 34.7873 34.7848C34.7873 35.4526 35.451 35.7765 35.5853 36.3763C34.2381 36.4523 32.9186 36.1164 31.5991 36.0444C29.5685 35.9325 27.7868 35.1407 25.93 34.5209C24.9226 34.185 24.0534 33.5972 23.208 32.9654C22.8604 32.7055 22.4416 32.6535 22.1255 32.9774C21.7621 33.3533 22.1492 33.6092 22.3586 33.9011C22.8485 34.5969 23.6623 34.7689 24.326 35.1687C26.8228 36.6842 29.5606 37.412 32.4485 37.5759C33.4322 37.6319 34.4199 37.6039 35.4075 37.5799C36.0357 37.564 36.6362 37.5919 37.1655 37.9798C37.766 38.9515 38.5522 39.7952 39.2831 40.643C40.2628 41.7786 41.2505 42.9422 42.1433 44.1298C42.969 45.2335 43.9606 46.1932 44.7547 47.3368C45.4026 48.2885 46.09 49.3362 47.1092 50.0279ZM48.2944 92.1624C47.9626 92.6262 47.449 92.8622 47.0105 93.1901C46.647 93.466 46.4297 93.7859 46.7142 94.1937C46.9947 94.6016 47.3779 94.6696 47.8204 94.3577C48.409 93.9378 49.0213 93.554 49.6218 93.1581C50.325 93.9458 51.0046 94.7576 51.7394 95.5093C55.2515 99.0922 58.7794 102.655 62.3033 106.226C62.5364 106.462 62.7774 106.686 63.0105 106.918C63.2594 107.166 63.5201 107.206 63.7888 106.954C64.01 106.746 64.1443 106.59 63.9389 106.21C63.7176 105.798 63.4925 105.426 63.1606 105.094C59.1507 101.032 55.1448 96.9609 51.1507 92.8822C50.9295 92.6582 50.6806 92.5303 50.4159 92.4103C50.5897 91.5746 50.2737 91.2227 49.4322 91.3906C49.207 90.9028 48.8673 90.5069 48.492 90.1271C46.9986 88.6315 45.4776 87.16 44.0475 85.6045C43.1981 84.6848 42.3804 83.7371 41.4915 82.8534C41.1754 82.5415 40.7567 82.3775 40.4525 82.7014C40.1799 82.9893 40.2233 83.4412 40.5473 83.7771C40.6618 83.8971 40.7685 84.021 40.887 84.137C42.9413 86.1283 44.7586 88.3556 46.8525 90.311C47.4174 90.8468 48.0297 91.3786 48.2944 92.1624ZM32.8001 68.7819C32.8159 68.8619 32.8317 68.6939 32.7606 68.61C32.0218 67.7263 31.2396 66.8785 30.3349 66.1668C30.0623 65.9548 29.6633 66.0548 29.4302 66.3107C29.1853 66.5826 29.2169 66.9505 29.4697 67.2184C30.2164 68.0022 30.9789 68.7659 31.7453 69.5297C31.9468 69.7296 32.1996 69.8016 32.4604 69.6496C32.7053 69.5057 32.8475 69.2937 32.8001 68.7819Z" fill="#F8E0EE"/>
<path d="M97.2785 56.7217C94.9989 58.7451 92.9841 61.0364 90.835 63.1917C90.2385 63.7875 89.8711 63.7075 89.3338 63.1557C85.5293 59.2649 81.7012 55.3982 77.8849 51.5274C75.1708 48.7723 72.4607 46.0172 69.7427 43.2661C67.1471 40.6389 64.0814 39.3713 60.3758 39.9311C59.957 39.9951 59.5264 39.9791 59.0997 39.9991C59.1115 39.3393 58.7323 38.8395 58.4123 38.3197C57.318 36.5442 56.2276 34.7648 55.1333 32.9894C55.8207 32.9974 56.5041 32.8494 57.1797 32.8174C61.079 32.6455 64.9861 32.7694 68.8538 33.2453C72.2355 33.6612 75.6093 34.073 79.0108 33.9611C80.6977 33.9051 82.4162 33.7971 83.9688 32.9774C84.6997 32.5895 84.8024 31.9017 84.2414 31.2859C83.795 30.7981 83.2459 30.5422 82.5782 30.5821C82.5506 30.4102 82.5031 30.2663 82.3096 30.2103C80.8004 29.7744 79.2952 29.2986 77.6992 29.3905C74.6572 29.5665 72.2592 28.1989 70.0073 26.2995C68.9012 25.3678 67.7357 24.4881 66.4715 23.7483C63.9234 22.2568 61.1027 21.5011 58.3333 20.6493C56.1091 19.9616 53.9599 19.1418 51.9649 17.9702C49.5708 16.5627 47.1372 15.427 44.2651 15.7949C44.3007 15.407 44.1348 15.1271 43.9017 14.8152C43.4355 14.1994 43.0523 13.5156 42.6414 12.8558C41.5155 11.0324 40.4014 9.20102 39.2755 7.37761C38.1693 5.58618 36.8696 3.91472 35.9609 1.99534C37.0395 1.25158 38.3353 1.14361 39.5441 0.847706C40.9506 0.503816 42.4202 0.419843 43.8622 0.223906C43.8582 0.5558 43.9175 0.851705 44.0913 1.1636C46.2049 5.03436 48.2908 8.92111 50.4004 12.7959C50.6019 13.1717 50.8824 13.5036 51.1432 13.8435C51.2814 14.0235 51.4553 14.2194 51.7199 14.1474C52.0162 14.0675 52.0795 13.7875 52.1387 13.5276C52.2098 13.2117 52.036 12.9478 51.9096 12.6799C51.4118 11.6322 50.7916 10.6606 50.2306 9.64888C48.4607 6.4659 46.7698 3.24294 45.0434 0.031968C48.0933 -0.0759973 51.0958 0.199914 54.114 0.719747C58.9417 1.55548 63.4098 3.30292 67.6686 5.66216C70.4775 7.21766 73.0138 9.20902 75.5856 11.1204C77.6834 12.6799 79.8918 14.0515 82.116 15.415C83.1906 16.0748 84.4271 16.4827 85.3476 17.3984C85.8296 18.622 86.3234 19.8416 86.7935 21.0732C87.4967 22.9086 88.2711 24.72 88.8557 26.5954C89.5195 28.7147 90.4004 30.7501 91.1352 32.8374C91.7871 34.6928 92.5733 36.4962 93.2054 38.3596C93.7861 40.0671 94.3629 41.7825 94.9831 43.466C95.7101 45.4374 96.4804 47.4007 97.2192 49.3721C97.8592 51.0756 98.5308 52.763 99.1866 54.4585C98.7994 55.4222 97.7644 55.838 97.2785 56.7217ZM83.9609 44.3577C85.2923 44.4977 87.0503 43.386 87.1056 41.2867C87.1491 39.5913 85.8572 38.2317 84.1822 38.1517C82.4834 38.0677 81.0849 39.4073 81.0454 41.1428C81.0138 42.8702 82.3293 44.3177 83.9609 44.3577ZM73.8197 25.4678C73.7249 25.1959 73.6972 24.852 73.5194 24.6521C72.4054 23.4045 71.2202 22.2328 69.7545 21.3931C67.6725 20.2055 65.3377 19.7536 63.0977 19.0299C62.8212 18.9419 62.3866 18.8419 62.276 19.3018C62.1851 19.6777 62.1851 19.9776 62.6948 20.2415C63.8246 20.8293 65.0888 20.9013 66.2464 21.3651C67.8661 22.0169 69.474 22.6527 70.8054 23.8403C71.4967 24.4561 72.1328 25.1159 72.6938 25.8557C72.8874 26.1116 73.156 26.2595 73.472 26.1316C73.7407 26.0196 73.8316 25.7677 73.8197 25.4678Z" fill="#F8E0EE"/>
<path d="M154.665 108.745C153.018 108.737 151.366 108.729 149.719 108.717C149.762 108.357 150.13 108.169 150.134 107.749C150.138 106.718 150.24 105.706 150.434 104.67C150.774 102.847 150.939 100.983 151.295 99.1521C151.836 99.32 152.164 98.7442 152.666 98.7482C154.258 98.7602 155.664 98.0684 157.067 97.4566C158.979 96.6209 160.417 95.2453 161.195 93.238C161.397 92.7181 161.634 92.1623 160.974 91.8864C160.342 91.6225 160.176 92.2503 159.939 92.6741C159.765 92.986 159.718 93.3339 159.524 93.6578C157.928 96.321 155.214 96.8888 152.547 97.5326C152.243 97.6046 151.785 97.6965 151.686 97.1487C151.694 96.217 151.702 95.2853 151.71 94.3536C151.963 94.2216 152.208 94.0377 152.476 93.9737C154.041 93.5898 155.416 92.8261 156.652 91.8144C157.802 90.8747 157.671 89.1513 156.447 88.5515C156.297 88.0396 155.83 87.9397 155.443 87.7077C154.645 87.2279 153.618 87.4118 152.891 86.76C153.59 85.5604 153.393 84.1649 153.598 82.8773C153.847 81.3018 154.1 79.7103 154.29 78.1148C154.507 76.2594 154.803 74.416 155.064 72.5686C156.253 72.9405 157.3 73.6683 158.544 73.9082C159.512 74.0961 160.457 74.456 161.428 74.536C162.736 74.6479 164.071 74.6759 165.375 74.544C167.098 74.368 168.749 74.8279 170.404 75.0438C172.34 75.2957 174.221 76.0395 176.109 76.6153C176.413 76.7073 176.765 76.8592 176.536 77.475C175.749 79.6223 174.928 81.7616 174.134 83.905C173.34 86.0443 172.621 88.2156 171.732 90.3189C171.589 90.6508 171.724 90.9067 172.048 91.0427C172.368 91.1746 172.668 91.2746 172.842 90.8067C173.359 89.4192 173.877 88.0356 174.43 86.6641C175.2 84.7487 175.757 82.7573 176.638 80.8819C177.002 80.1022 177.097 79.2025 177.5 78.4227C177.891 77.663 178.554 77.467 179.179 78.0189C179.653 78.4387 180.222 78.6626 180.747 78.9705C180.498 79.3544 180.162 79.7063 180.02 80.1262C179.297 82.2615 178.132 84.1889 177.274 86.2642C176.524 88.0916 175.619 89.855 174.809 91.6625C173.395 94.8294 172.052 98.0284 170.479 101.119C169.875 101.247 169.259 101.187 168.642 101.363C167.019 101.823 165.612 102.691 164.198 103.567C163.913 103.555 163.763 103.683 163.775 103.979L163.787 103.967C163.502 103.951 163.368 104.09 163.38 104.378L163.392 104.366C163.068 104.362 162.965 104.542 162.997 104.842C162.859 105.302 162.467 105.578 162.215 105.95C161.602 106.174 161.338 106.614 161.424 107.269C161.417 107.361 161.409 107.453 161.401 107.549C160.812 107.649 161.041 108.101 161.021 108.445L161.033 108.485C160.784 108.869 160.393 108.745 160.054 108.749C158.248 108.749 156.459 108.745 154.665 108.745Z" fill="#F8E0EE"/>
<path d="M77.0791 109.105C75.6332 107.321 73.9423 105.782 72.3423 104.154C65.5749 97.2806 58.7838 90.4308 52.0006 83.573C48.3779 79.9102 44.767 76.2394 41.1167 72.6006C38.4856 69.9814 37.1779 66.8504 37.5848 63.1236C37.9206 60.0526 39.5562 57.6534 41.7527 55.586C42.531 54.8543 43.4041 54.1945 43.9374 53.2228C44.2298 53.2868 44.3364 52.9429 44.5814 52.9109L44.6248 52.9469C44.0125 54.4224 43.4712 55.9219 43.1947 57.5094C42.9972 58.641 43.1789 59.7047 43.3883 60.8243C43.7517 62.7717 44.5221 64.4632 45.7981 65.9267C46.6001 66.8464 47.4653 67.7101 48.3147 68.5818C50.0056 70.3213 51.7043 72.0567 53.407 73.7842C56.5399 76.9672 59.6688 80.1541 62.8174 83.3171C66.6179 87.1399 70.4539 90.9267 74.2465 94.7614C76.933 97.4766 79.489 100.324 82.2505 102.955C84.4075 105.01 86.9162 106.522 90.0806 106.298C90.9695 106.306 91.8228 106.286 92.7275 106.05C93.7073 105.79 94.5014 104.934 95.6036 105.134C95.5838 105.338 95.4377 105.442 95.3191 105.59C94.7779 106.266 93.9838 106.706 93.5967 107.513C92.9251 107.741 92.5577 108.353 92.1152 108.829C88.4609 112.732 81.8436 113.072 77.8614 109.641C77.7705 109.561 77.6243 109.545 77.5058 109.497C77.486 109.229 77.328 109.113 77.0791 109.105ZM74.9458 98.8201C74.3888 98.7521 74.1794 98.8601 74.0451 99.14C73.8554 99.5359 73.9937 99.8118 74.286 100.104C75.8663 101.683 77.4307 103.283 79.0031 104.87C79.1137 104.982 79.2796 105.038 79.3863 105.15C79.6707 105.458 79.9275 105.214 80.1527 105.098C80.449 104.946 80.3621 104.654 80.287 104.394C80.2001 104.094 79.9828 103.89 79.7774 103.675C78.6199 102.479 77.49 101.255 76.2969 100.096C75.8031 99.6119 75.3606 99.0361 74.9458 98.8201Z" fill="#6AB330"/>
<path d="M97.2773 56.7217C97.7633 55.834 98.7983 55.4221 99.1934 54.4584C99.5648 54.4224 99.7386 54.1105 99.9677 53.8826C101.907 51.9352 103.843 49.9839 105.767 48.0205C107.075 46.6849 108.501 45.4613 109.651 43.9618C110.492 43.45 111.081 42.6622 111.756 41.9744C113.297 40.3949 114.945 38.9194 116.351 37.204C116.841 37.12 116.888 36.6361 117.133 36.3322C117.501 36.3882 117.639 36.0483 117.825 35.8604C119.602 34.085 121.38 32.3135 123.103 30.4821C124.714 28.7707 126.52 27.2472 128.017 25.4198C129.341 24.58 130.605 23.6643 132.177 23.2524C133.429 22.9246 134.654 22.8726 135.91 22.9925C136.104 24.8519 135.579 26.6594 135.421 28.4868C135.227 30.738 134.069 32.7014 132.019 33.965C130.593 34.8447 129.19 35.7724 127.899 36.8481C126.35 38.1357 125.453 39.8711 124.659 41.6825C123.671 43.9298 122.909 46.2691 122.032 48.5603C121.574 49.7599 121.001 50.9316 120.558 52.1432C120.191 53.1428 119.61 54.1825 118.966 55.1062C117.935 56.5897 116.853 58.0613 115.344 59.0769C113.392 60.3925 111.326 61.3882 108.896 60.4085C107.517 59.8527 106.672 58.6891 105.878 57.5174C104.93 56.1219 103.804 54.9903 102.18 54.4544C101.402 54.1985 100.805 54.7583 100.201 55.0622C99.4186 55.4541 98.7154 56.0259 98.0082 56.5618C97.7593 56.7497 97.542 56.7777 97.2773 56.7217ZM112.021 49.9919C112.313 50.0318 112.507 49.668 112.752 49.42C114.794 47.3607 116.833 45.3014 118.86 43.222C119.187 42.8861 119.859 42.5902 119.266 41.9544C118.721 41.3706 118.37 42.0984 117.931 42.2184C117.765 42.2623 117.647 42.4823 117.508 42.6222C116.466 43.6779 115.419 44.7295 114.38 45.7852C113.431 46.7489 112.495 47.7246 111.531 48.6683C111.191 49.0002 111.16 49.3601 111.282 49.7559C111.365 50.0358 111.654 49.9519 112.021 49.9919ZM122.664 35.0367C122.707 34.4968 122.474 34.2569 121.965 34.4568C120.922 34.8727 120.282 35.7844 119.586 36.5962C119.393 36.8241 119.377 37.3039 119.741 37.5718C120.116 37.8518 120.412 37.6598 120.681 37.3839C121.234 36.8241 121.779 36.2563 122.336 35.7044C122.534 35.5165 122.704 35.3286 122.664 35.0367Z" fill="#71B03E"/>
<path d="M109.644 43.9619C108.498 45.4574 107.072 46.681 105.76 48.0206C103.837 49.984 101.901 51.9353 99.961 53.8827C99.7358 54.1106 99.558 54.4225 99.1867 54.4585C98.5309 52.7631 97.8593 51.0756 97.2193 49.3722C96.4805 47.4008 95.7101 45.4374 94.9832 43.4661C94.363 41.7826 93.7862 40.0672 93.2054 38.3597C92.5733 36.5003 91.7872 34.6929 91.1353 32.8375C90.4005 30.7461 89.5195 28.7148 88.8558 26.5955C88.2711 24.7241 87.4968 22.9087 86.7936 21.0733C86.3235 19.8457 85.8296 18.626 85.3477 17.3984C86.8568 17.8063 88.2632 18.4741 89.6499 19.1739C89.9304 19.3138 90.1832 19.3738 90.4716 19.3938C90.5467 19.9456 91.1511 20.1216 91.2894 20.7014C91.6291 22.1089 92.0914 23.4885 92.5536 24.86C93.2805 27.0233 94.1812 29.1347 94.762 31.334C95.2756 33.2773 95.9077 35.1767 96.5121 37.0841C97.3773 39.8072 98.3333 42.5024 99.1748 45.2335C99.6884 46.901 100.253 48.5564 100.783 50.2199C100.949 50.7477 101.328 50.8677 101.786 50.7517C102.268 50.6318 102.098 50.2719 102.023 49.948C101.94 49.5961 101.921 49.2282 101.814 48.8843C101.201 46.9689 100.565 45.0656 99.9491 43.1502C99.238 40.9509 98.5388 38.7436 97.8237 36.5443C97.2232 34.6969 96.6069 32.8535 95.9985 31.0101C95.4928 29.4786 94.9121 27.971 94.521 26.4115C94.2958 25.5238 93.8415 24.7361 93.644 23.8564C93.3595 22.5968 92.9368 21.3892 92.4509 20.2015C93.4306 20.3735 94.3906 20.6774 95.3585 20.8493C96.3699 21.0293 97.3575 21.3812 98.3966 21.3852C100.692 21.4012 102.987 21.4012 105.279 21.4052C105.504 23.6724 106.242 25.8317 106.594 28.079C106.701 28.7708 106.8 29.5025 106.973 30.2023C107.357 31.7578 107.791 33.3093 108.024 34.8888C108.257 36.4523 108.747 37.9518 108.964 39.5233C109.166 41.0029 109.691 42.4344 109.644 43.9619Z" fill="#FFDEB6" fill-opacity="0.32"/>
<path d="M35.9631 1.99146C36.8718 3.91084 38.1676 5.5823 39.2777 7.37373C40.4036 9.19714 41.5217 11.0285 42.6436 12.852C43.0506 13.5118 43.4338 14.1955 43.9039 14.8113C44.1409 15.1232 44.3029 15.4031 44.2673 15.791C42.1261 16.4148 40.6604 17.9783 39.1631 19.5138C38.5192 20.1736 37.9819 20.9014 37.4881 21.6691C36.7691 22.7848 35.9829 23.8564 35.2244 24.9441C34.7069 25.6878 34.1182 26.3436 33.4308 26.8715C32.8817 27.2953 32.135 27.6552 31.4278 27.2993C30.2308 26.6955 28.9864 26.5156 27.6827 26.5636C27.0703 25.7558 26.4698 24.9361 25.8377 24.1483C23.9296 21.7691 22.0056 19.3939 20.0817 17.0266C19.5246 16.3388 18.9439 15.6711 18.375 14.9953C18.8412 13.6397 19.892 12.7 20.7572 11.6364C21.1799 11.1165 21.5434 11.5484 21.8041 11.8683C23.2106 13.5637 24.5933 15.2752 25.9839 16.9826C27.2086 18.4822 28.4293 19.9857 29.654 21.4852C29.891 21.7731 30.1478 21.913 30.4718 21.5612C30.7365 21.2733 30.9933 20.9893 30.6338 20.6335C30.0254 20.0257 29.6066 19.2539 29.0377 18.6341C26.695 16.0949 24.692 13.2758 22.4244 10.6807C22.3177 10.5567 22.1794 10.4607 22.1794 10.2728C22.1794 9.96889 23.8071 8.3814 24.2851 8.24944C24.9212 8.0775 25.1069 8.60133 25.415 8.98521C27.1375 11.1405 28.7335 13.3998 30.5508 15.4791C30.8194 15.787 31.1078 15.923 31.3923 15.731C31.7834 15.4671 31.7202 14.9993 31.4752 14.6794C30.4204 13.2998 29.3222 11.9563 28.2515 10.5927C27.4851 9.60901 26.7582 8.59333 25.972 7.62564C25.6441 7.22177 25.7666 6.97385 26.1103 6.72993C28.9666 4.70258 32.056 3.14708 35.3706 2.04744C35.5562 1.97146 35.7656 2.00345 35.9631 1.99146Z" fill="#FFDEB6" fill-opacity="0.32"/>
<path d="M127 73.7284C127.96 72.3289 129.276 71.2692 130.445 70.0776C135.138 65.2831 139.863 60.5247 144.564 55.7462C144.695 55.6142 144.801 55.5423 144.971 55.5303C145.671 57.0178 146.038 58.6253 146.591 60.1648C146.974 61.2244 147.389 62.2841 147.899 63.2838C148.183 63.8396 148.084 64.5234 148.551 64.9912C148.626 65.8869 148.183 66.7627 148.215 67.5744C148.341 70.6574 147.662 73.6844 147.753 76.7555C147.757 76.9554 147.753 77.1553 147.753 77.3513C146.88 76.9714 146.038 76.3796 145.129 76.2596C144.011 76.1077 142.818 75.8637 141.692 76.4635C141.23 76.7075 140.507 76.8834 140.74 77.4632C140.997 78.095 141.941 77.9271 142.301 77.6832C143.518 76.8634 144.561 77.7751 145.635 77.9231C146.192 77.9991 146.99 78.275 147.373 78.9547C147.369 79.3546 147.365 79.7505 147.361 80.1504C145.75 79.3626 144.193 78.311 142.293 78.5829C141.262 78.7308 140.258 79.0747 139.251 79.3626C137.777 79.7865 136.323 80.2823 134.878 80.7782C132.665 81.5379 130.714 80.9381 129.627 78.8788C128.726 77.1713 128.154 75.2999 127 73.7284Z" fill="#F8E0EE"/>
<path d="M145.395 108.321C143.159 108.133 140.895 108.097 138.687 107.829C137.091 107.637 135.511 107.665 133.926 107.541C130.244 107.253 126.559 107.03 122.865 107.117C122.94 106.218 122.766 105.306 122.521 104.486C122.237 103.527 122.118 102.531 121.948 101.575C121.794 100.724 121.549 99.8758 121.391 99.0241C121.126 97.6046 120.668 96.221 120.684 94.7535C123.627 94.6175 126.555 94.8614 129.478 95.1573C129.577 95.1653 129.68 95.1573 129.77 95.1893C131.41 95.7651 133.148 95.8331 134.827 95.9011C138.612 96.0571 142.412 96.077 146.181 95.5532C146.177 96.4849 146.177 97.4206 146.173 98.3523C145.739 98.5563 145.344 98.8162 144.81 98.7602C142.037 98.4803 139.307 99.1401 136.546 99.1441C136.095 99.1441 135.886 99.304 135.898 99.7839C135.91 100.224 136.123 100.368 136.518 100.352C136.747 100.344 136.98 100.336 137.205 100.356C140.208 100.612 143.171 99.9958 146.162 99.9558C146.327 100.472 145.782 100.788 145.794 101.247C145.853 103.615 145.727 105.974 145.395 108.321Z" fill="#F8E0EE"/>
<path d="M184.677 81.7737C187.332 83.997 189.489 86.6241 190.943 89.8031C191.291 90.5669 191.694 91.3546 191.587 92.2383C191.516 92.8181 191.99 93.194 191.998 93.7498C192.037 96.4969 191.172 98.8842 189.41 100.984C187.64 103.091 185.298 104.358 182.884 105.418C181.971 105.818 181.047 106.614 179.881 106.334C178.676 104.286 176.993 102.795 174.805 101.899C174.828 101.703 174.801 101.479 174.884 101.311C175.828 99.432 176.713 97.5206 177.76 95.7012C179.123 93.342 180.237 90.8588 181.43 88.4155C182.516 86.2043 183.828 84.1009 184.677 81.7737Z" fill="#F8E0EE"/>
<path d="M24.513 75.7556C24.9989 75.6876 25.3663 76.0515 25.6033 76.3154C26.7293 77.567 28.1199 78.4987 29.3248 79.6504C31.9283 82.1376 34.6897 84.4448 37.3959 86.8161C38.6799 87.9397 39.9164 89.1113 41.1846 90.247C41.3979 90.4389 41.5401 90.7428 41.8838 90.7508C42.4883 91.6065 43.0888 92.4663 43.6972 93.322C44.0093 93.7618 44.3727 94.0577 44.9258 93.7019C46.6364 94.6655 47.8453 96.229 49.3031 97.4886C52.9811 100.672 56.5762 103.955 60.1989 107.202C61.313 108.201 62.51 109.085 63.3989 110.309C61.953 110.313 60.511 110.344 59.0651 110.313C58.267 110.297 57.5401 109.741 56.6986 109.925C55.466 108.629 54.028 107.557 52.6176 106.494C50.3895 104.818 48.3549 102.911 46.1307 101.239C44.8152 100.248 43.6023 99.1161 42.1801 98.2724C42.5436 97.5566 43.3732 97.4486 43.8907 96.9368C44.1949 96.6369 44.7401 96.405 44.3885 95.8532C44.0211 95.2813 43.5233 95.4293 43.0453 95.7532C42.2986 96.261 41.631 96.8928 40.7855 97.2487C40.7263 96.8888 40.4695 96.6329 40.2127 96.473C38.8774 95.6452 37.87 94.3936 36.5386 93.5779C35.3851 92.8701 34.4725 91.8744 33.4058 91.0667C32.3273 90.247 31.2409 89.3992 30.2097 88.4955C28.9139 87.3639 27.5707 86.2562 26.0972 85.3485C25.6349 84.1129 25.4453 82.8254 25.232 81.5258C24.9278 79.6104 24.4853 77.715 24.513 75.7556ZM46.6246 96.0491C46.0991 96.0891 45.7989 96.7449 46.1268 97.2367C46.6562 98.0285 47.2409 98.7802 47.7821 99.564C48.0507 99.9518 48.4181 100.108 48.7895 99.8599C49.1885 99.596 49.0937 99.1521 48.8646 98.7962C48.351 98.0005 47.8176 97.2127 47.2646 96.445C47.1263 96.249 46.9406 96.0131 46.6246 96.0491Z" fill="#FEE2B6" fill-opacity="0.49"/>
<path d="M6.52719 58.7492C6.52324 58.4093 6.61411 58.1414 6.84324 57.8535C7.65312 56.8418 8.08374 55.6662 8.11929 54.3546C8.12719 54.0227 8.09559 53.6868 8.12719 53.3589C8.38793 50.5198 7.01312 48.4645 5.04571 46.6811C4.46892 46.1572 3.58003 46.1292 3.0625 45.3895C4.62694 44.3818 6.2783 44.3378 7.95732 44.8656C10.2605 45.5934 12.1845 47.017 13.7647 48.7724C16.1469 51.4195 18.2684 54.3186 19.4931 57.7255C20.4176 60.2967 20.7771 63.0038 19.9158 65.679C19.4931 66.9865 19.102 68.3781 18.0077 69.3618C16.3682 67.1145 14.0847 65.571 12.0541 63.7476C12.1252 62.572 11.7657 61.5723 10.8887 60.7805C10.063 60.0328 9.06744 60.4846 8.1509 60.3847C7.93756 59.5049 7.12374 59.237 6.52719 58.7492Z" fill="#F8E0EE"/>
<path d="M26.1067 85.3525C27.5803 86.2642 28.9235 87.3679 30.2193 88.4995C31.2504 89.4032 32.3368 90.251 33.4153 91.0707C34.482 91.8784 35.3985 92.8781 36.5482 93.5819C37.8795 94.3976 38.8869 95.6492 40.2222 96.477C40.483 96.6369 40.7358 96.8968 40.7951 97.2527C40.7714 97.6526 40.5027 98.0565 40.882 98.4403C41.3363 98.9002 41.6247 98.3044 42 98.2964C42.0632 98.2964 42.1264 98.2844 42.1896 98.2764C43.6119 99.1201 44.8247 100.256 46.1403 101.243C48.3645 102.915 50.403 104.822 52.6272 106.498C54.0376 107.561 55.4756 108.633 56.7082 109.929C54.7092 109.837 52.7931 109.329 50.8534 108.865C49.1743 108.465 47.5941 107.849 46.0059 107.234C43.5368 106.274 41.2257 105.006 38.9304 103.663C36.6311 102.319 34.5333 100.764 32.7358 98.8242C30.7842 96.7169 29.2553 94.2977 28.0622 91.6545C27.2563 89.8711 26.8059 87.9677 26.1343 86.1403C26.0514 85.9084 26.1106 85.6165 26.1067 85.3525Z" fill="#F8E0EE"/>
<path d="M109.647 43.9618C109.694 42.4383 109.169 41.0027 108.963 39.5232C108.746 37.9517 108.256 36.4562 108.023 34.8887C107.79 33.3092 107.351 31.7577 106.972 30.2022C106.802 29.5024 106.7 28.7747 106.593 28.0789C106.245 25.8316 105.503 23.6683 105.277 21.405C107.185 21.505 109.038 20.9572 110.946 20.8852C111.922 20.8492 112.957 20.6293 113.981 20.6133C114 21.8849 114.131 23.1405 114.289 24.4081C114.557 26.5634 114.881 28.7267 115.067 30.882C115.221 32.6414 115.758 34.3809 115.557 36.1723C115.49 36.7801 115.739 37.124 116.339 37.2039C114.937 38.9194 113.285 40.3949 111.744 41.9744C111.081 42.6622 110.488 43.4499 109.647 43.9618Z" fill="#F8E0EE"/>
<path d="M156.838 60.7644C159.295 60.8204 161.603 61.6241 163.886 62.3879C166.537 63.2716 169.101 64.4272 171.685 65.5029C173.245 66.1507 174.58 67.1383 175.675 68.4539C176.714 69.7015 176.477 70.9771 174.948 71.7089C173.454 72.4206 171.91 72.2487 170.314 71.9048C169.385 71.7049 168.453 71.377 167.481 71.369C166.233 71.361 164.984 71.357 163.732 71.361C161.334 71.369 158.995 70.9851 156.759 70.1134C156.198 69.8975 155.566 69.6096 155.25 68.9858C155.993 68.6579 155.953 67.9421 156.028 67.3063C156.084 66.8464 155.997 66.3626 156.103 65.9187C156.522 64.2233 156.866 62.5238 156.838 60.7644Z" fill="#F8E0EE"/>
<path d="M103.938 96.769C104.42 96.633 104.51 95.9772 105.048 95.9213C105.336 96.649 105.937 96.4011 106.379 96.2532C107.576 95.8613 108.832 95.8533 110.037 95.5574C110.298 96.0772 110.575 96.589 110.816 97.1169C112.269 100.324 113.711 103.539 115.161 106.75C112.206 106.53 109.299 107.362 106.336 107.162C104.546 107.042 102.741 107.138 100.943 107.138C100.935 106.862 100.785 106.65 100.647 106.426C99.8842 105.194 99.1257 103.959 98.3672 102.727C98.3711 102.303 98.7583 102.171 98.9874 101.927C100.591 100.168 102.401 98.6044 103.938 96.769Z" fill="#F8E0EE"/>
<path d="M12.0494 63.7476C14.08 65.567 16.3634 67.1145 18.0029 69.3618C16.6005 71.1212 15.1782 72.8287 12.8474 73.4125C12.3259 73.5444 11.8439 73.8323 11.279 73.7724C11.2237 73.6604 11.196 73.4924 11.1012 73.4405C9.41034 72.4808 8.03158 71.1092 6.52639 69.9056C5.24244 68.8819 3.94664 67.8862 2.59158 66.9625C2.01874 65.7269 1.84096 64.3474 1.34713 63.1118C0.734786 61.5723 1.58417 61.5603 2.58763 61.2244C3.72145 60.8445 4.82763 60.2887 5.6375 59.313C5.87454 59.0251 6.14713 58.8012 6.53034 58.7532C7.12688 59.241 7.94071 59.5089 8.15009 60.3847C7.43108 61.1364 6.73972 61.8522 6.9017 63.0798C7.03602 64.1195 7.58121 65.0911 8.45824 65.3471C9.54071 65.663 10.9945 65.2551 11.5358 64.5033C11.7096 64.2554 11.5753 63.7836 12.0494 63.7476Z" fill="#FFDEB6" fill-opacity="0.32"/>
<path d="M128.012 25.4158C126.514 27.2432 124.713 28.7667 123.097 30.4782C121.375 32.3056 119.597 34.081 117.819 35.8564C117.633 36.0404 117.495 36.3803 117.128 36.3283C116.381 34.8128 116.701 33.1173 116.464 31.5258C116.203 29.8024 115.729 28.0309 115.942 26.2315C115.95 26.1675 115.938 26.0956 115.923 26.0356C115.417 24.2642 115.389 22.4247 115.156 20.6133C116.594 20.5054 117.922 21.1012 119.3 21.2691C120.81 21.4571 122.086 22.2128 123.484 22.6407C124.227 22.8686 124.823 23.5004 125.562 23.8483C126.427 24.2642 127.198 24.888 128.012 25.4158Z" fill="#F8E0EE"/>
<path d="M147.359 80.1503C147.363 79.7505 147.367 79.3546 147.371 78.9547C148.122 78.9907 148.714 79.3706 149.244 79.8664C150.109 80.6742 150.765 81.6459 151.342 82.6775C151.539 83.0374 151.831 83.2493 152.223 83.0654C152.57 82.9015 152.791 82.6056 152.594 82.1737C152.471 81.9058 152.396 81.5979 152.215 81.3819C150.903 79.8384 149.643 78.235 147.754 77.3512C147.754 77.1513 147.762 76.9514 147.754 76.7554C147.664 73.6844 148.343 70.6574 148.217 67.5744C148.185 66.7626 148.628 65.8829 148.552 64.9912C149.236 65.791 149.667 66.7506 150.216 67.6384C151.334 69.4498 152.851 70.8853 154.534 72.1529C154.711 72.2889 154.889 72.4288 155.067 72.5688C154.806 74.4162 154.51 76.2636 154.293 78.115C154.107 79.7105 153.854 81.302 153.601 82.8775C153.396 84.161 153.593 85.5606 152.894 86.7602C152.507 86.7322 152.254 86.4883 151.982 86.2324C151.144 85.4526 150.781 84.369 150.18 83.4373C149.39 82.2137 148.659 80.9301 147.359 80.1503Z" fill="#FFDEB6" fill-opacity="0.32"/>
<path d="M184.679 81.7738C183.83 84.1011 182.518 86.2044 181.436 88.4157C180.243 90.8549 179.128 93.3421 177.765 95.7013C176.715 97.5167 175.83 99.4321 174.889 101.312C174.806 101.479 174.834 101.703 174.81 101.899C173.424 101.292 171.974 101.076 170.473 101.12C172.049 98.0286 173.388 94.8296 174.803 91.6626C175.608 89.8592 176.513 88.0958 177.268 86.2644C178.121 84.189 179.29 82.2616 180.013 80.1263C180.156 79.7065 180.491 79.3546 180.74 78.9707C182.202 79.6905 183.435 80.7381 184.679 81.7738ZM175.786 95.5494C176.292 95.5814 176.561 95.2575 176.754 94.8536C177.995 92.3064 179.2 89.7432 180.634 87.296C181.127 86.4523 181.511 85.5446 181.925 84.6569C182.135 84.209 182.226 83.7172 181.665 83.4653C181.06 83.1973 180.95 83.8211 180.78 84.137C179.563 86.4363 178.394 88.7636 177.189 91.0708C176.604 92.1905 175.964 93.2781 175.371 94.3937C175.012 95.0735 175.194 95.5334 175.786 95.5494Z" fill="#FFDEB6" fill-opacity="0.32"/>
<path d="M120.684 94.7536C120.668 96.2252 121.126 97.6047 121.391 99.0243C121.549 99.876 121.794 100.72 121.948 101.575C122.118 102.535 122.237 103.527 122.521 104.487C122.766 105.306 122.936 106.218 122.865 107.118C121.336 107.19 119.819 107.142 118.329 106.746C118.448 106.266 118.053 105.958 117.946 105.558C117.294 103.051 115.991 100.784 115.343 98.2845C115.066 97.2168 114.205 96.3451 114.363 95.1495C116.433 94.4417 118.574 94.8616 120.684 94.7536Z" fill="#FFDEB6" fill-opacity="0.32"/>
<path d="M0.218288 53.159C-0.0187487 51.3156 0.510634 49.5922 1.05582 47.8807C1.22175 47.3609 1.65631 46.937 1.98421 46.5411C2.16594 46.3212 2.93631 46.7611 3.39063 47.017C4.63113 47.7168 5.55557 48.7324 6.32199 49.94C6.58668 50.3599 6.51557 50.8038 6.73681 51.2276C7.58224 52.8551 6.76051 56.5499 5.36989 57.7735C5.34224 57.5776 5.37779 57.3417 5.19212 57.2257C3.66718 56.27 2.54915 54.8585 1.2573 53.6429C0.976807 53.3829 0.664708 53.103 0.218288 53.159Z" fill="#F8E0EE"/>
<path d="M92.4519 20.1974C92.9378 21.385 93.3606 22.5926 93.645 23.8522C93.8425 24.7319 94.3008 25.5197 94.522 26.4074C94.9131 27.9669 95.4978 29.4784 95.9996 31.0059C96.608 32.8493 97.2243 34.6927 97.8247 36.5401C98.5398 38.7394 99.2351 40.9427 99.9502 43.146C100.57 45.0574 101.203 46.9648 101.815 48.8802C101.925 49.2201 101.941 49.5919 102.024 49.9438C102.099 50.2677 102.273 50.6276 101.787 50.7476C101.325 50.8595 100.95 50.7396 100.784 50.2157C100.254 48.5523 99.6894 46.8968 99.1759 45.2293C98.3344 42.4982 97.3823 39.8031 96.5131 37.08C95.9087 35.1766 95.2726 33.2732 94.763 31.3298C94.1823 29.1305 93.2815 27.0192 92.5546 24.8559C92.0924 23.4843 91.6341 22.1048 91.2904 20.6972C91.1522 20.1214 90.5477 19.9455 90.4727 19.3896C91.1956 19.5056 91.9067 19.6416 92.4519 20.1974Z" fill="#FEF0DC" fill-opacity="0.71"/>
<path d="M145.395 108.321C145.726 105.974 145.853 103.615 145.794 101.24C145.782 100.78 146.327 100.464 146.161 99.9479C147.84 99.4761 149.582 99.3961 151.297 99.1482C150.941 100.98 150.775 102.847 150.435 104.666C150.242 105.702 150.135 106.714 150.135 107.745C150.135 108.169 149.768 108.353 149.72 108.713C148.263 108.781 146.868 108.121 145.395 108.321Z" fill="#FFDEB6" fill-opacity="0.32"/>
<path d="M170.473 101.12C171.971 101.076 173.425 101.288 174.811 101.899C177 102.795 178.683 104.287 179.888 106.334C179.813 106.762 179.437 106.69 179.157 106.778C178.438 106.862 178.161 106.302 177.814 105.842C176.834 104.538 175.554 103.679 174.025 103.179C172.634 102.427 171.149 102.675 169.679 102.751C169.355 102.759 169.004 102.695 168.708 102.791C166.029 103.663 163.971 105.27 162.801 107.933C162.363 108.929 161.999 109.029 161.024 108.481L161.012 108.441C161.328 108.225 161.427 107.913 161.391 107.546C161.399 107.454 161.407 107.362 161.415 107.266C161.881 106.95 162.074 106.47 162.205 105.946C162.458 105.57 162.853 105.298 162.987 104.838C163.216 104.766 163.398 104.65 163.382 104.367L163.37 104.379C163.615 104.355 163.781 104.247 163.777 103.967L163.765 103.979C164.026 103.971 164.168 103.835 164.188 103.567C165.602 102.691 167.009 101.827 168.632 101.364C169.249 101.188 169.865 101.248 170.473 101.12Z" fill="#5BC4C0"/>
<path d="M156.838 60.7645C156.865 62.5239 156.518 64.2234 156.107 65.9188C156 66.3587 156.087 66.8465 156.032 67.3064C155.953 67.9462 155.996 68.6579 155.253 68.9858C153.732 67.9462 153.128 66.2907 152.516 64.6712C152.314 64.1434 152.022 63.6236 152.077 62.9718C152.18 61.8401 152.65 61.1244 154.056 60.7165C154.957 60.4566 155.917 60.4046 156.838 60.7645Z" fill="#FFDEB6" fill-opacity="0.32"/>
<path d="M20.5604 92.7701C20.9041 92.7462 21.0938 92.9981 21.2992 93.21C24.4834 96.461 27.6597 99.7159 30.8439 102.963C31.8829 104.023 32.9338 105.074 33.9767 106.13C34.2967 106.454 34.5614 106.746 34.119 107.214C33.6488 107.709 33.3249 107.485 32.9733 107.11C31.0217 105.006 29.0029 102.963 26.9762 100.944C24.9733 98.9482 23.1244 96.8009 21.0266 94.9055C20.6869 94.5976 20.3669 94.2497 20.1061 93.8698C19.7585 93.362 20.0232 92.7781 20.5604 92.7701Z" fill="#F8E0EE"/>
<path d="M161.025 108.477C162 109.025 162.364 108.925 162.802 107.929C163.972 105.266 166.03 103.659 168.708 102.787C169.005 102.691 169.356 102.755 169.68 102.747C169.672 102.911 169.72 103.111 169.645 103.235C168.76 104.706 168.377 106.406 167.531 107.889C167.369 108.173 167.314 108.421 167.318 108.717C163.438 109.261 159.531 109.125 155.632 109.125C155.288 109.125 154.802 109.349 154.668 108.745C156.458 108.745 158.251 108.749 160.041 108.741C160.385 108.741 160.776 108.861 161.025 108.477Z" fill="#F8E0EE"/>
<path d="M114.363 95.1535C114.205 96.3491 115.066 97.2208 115.343 98.2885C115.99 100.784 117.294 103.055 117.946 105.562C118.053 105.966 118.448 106.274 118.329 106.75C117.677 106.75 117.022 106.75 116.37 106.75C116.346 106.418 116.433 106.03 116.287 105.766C114.485 102.475 113.276 98.9043 111.621 95.5493C112.451 94.8456 113.446 95.2694 114.363 95.1535Z" fill="#F8E0EE"/>
<path d="M167.317 108.721C167.313 108.425 167.368 108.173 167.53 107.893C168.375 106.41 168.763 104.71 169.644 103.239C169.719 103.115 169.671 102.915 169.679 102.751C171.149 102.675 172.634 102.427 174.025 103.179C173.819 103.579 173.586 103.963 173.416 104.374C172.871 105.71 171.959 106.878 171.635 108.313C170.161 108.093 168.782 108.885 167.317 108.721Z" fill="#FEE2B6" fill-opacity="0.49"/>
<path d="M0.215936 53.159C0.662356 53.099 0.974455 53.3829 1.25495 53.6428C2.5468 54.8584 3.66482 56.27 5.18976 57.2257C5.37544 57.3416 5.33989 57.5816 5.36754 57.7735C4.94878 59.0571 3.69248 59.305 2.74433 59.9288C2.59026 60.0328 2.36507 60.0128 2.17939 60.0808C0.81643 60.5806 0.986307 60.4806 0.543837 59.0771C0.0105042 57.3816 0.49643 55.6542 0.0381585 53.9907C-0.029002 53.7268 -0.0448045 53.3949 0.215936 53.159Z" fill="#FFDEB6" fill-opacity="0.32"/>
<path d="M115.154 20.6133C115.387 22.4247 115.415 24.2641 115.92 26.0355C115.94 26.0995 115.948 26.1675 115.94 26.2315C115.723 28.0309 116.201 29.8023 116.461 31.5258C116.702 33.1173 116.378 34.8167 117.125 36.3282C116.88 36.6361 116.833 37.12 116.343 37.204C115.742 37.124 115.494 36.7801 115.561 36.1723C115.762 34.3809 115.225 32.6414 115.071 30.882C114.881 28.7267 114.561 26.5634 114.293 24.4081C114.134 23.1405 114.004 21.8849 113.984 20.6133C114.375 20.6133 114.763 20.6133 115.154 20.6133Z" fill="#FFDEB6" fill-opacity="0.32"/>
<path d="M45.0408 0.0320173C46.7633 3.23899 48.4581 6.46595 50.228 9.64893C50.7889 10.6566 51.4092 11.6323 51.907 12.68C52.0334 12.9479 52.2072 13.2078 52.1361 13.5277C52.0768 13.7836 52.0136 14.0675 51.7173 14.1475C51.4566 14.2195 51.2828 14.0235 51.1405 13.8436C50.8798 13.5037 50.6033 13.1718 50.3978 12.7959C48.2921 8.92116 46.2062 5.03441 44.0887 1.16365C43.9188 0.851754 43.8556 0.555849 43.8595 0.223956C44.2112 -0.143926 44.6418 0.0600083 45.0408 0.0320173Z" fill="#FFDEB6" fill-opacity="0.32"/>
<path d="M2.58594 66.9624C3.941 67.8861 5.2368 68.8818 6.52075 69.9055C8.02594 71.1051 9.4047 72.4806 11.0956 73.4403C11.1864 73.4923 11.2141 73.6563 11.2733 73.7722C10.5583 74.596 9.56273 74.2641 8.83581 74.0761C7.15285 73.6403 5.56865 72.8965 4.41507 71.433C3.36816 70.1054 2.85458 68.5939 2.58594 66.9624Z" fill="#F8E0EE"/>
<path d="M171.637 108.313C171.961 106.874 172.869 105.71 173.418 104.374C173.588 103.962 173.821 103.575 174.027 103.179C175.556 103.679 176.84 104.538 177.815 105.842C178.163 106.302 178.44 106.862 179.159 106.778C179.127 106.95 179.06 107.125 178.87 107.125C177.002 107.109 175.263 107.965 173.391 107.969C172.802 107.965 172.293 108.545 171.637 108.313Z" fill="#F8E0EE"/>
<path d="M98.3582 102.727C99.1167 103.959 99.8752 105.194 100.638 106.426C100.776 106.65 100.93 106.862 100.934 107.138C98.4885 107.242 96.0628 107.781 93.5977 107.514C93.9848 106.706 94.7828 106.266 95.3201 105.59C95.4386 105.442 95.5888 105.338 95.6046 105.134L95.5967 105.146C95.8693 105.142 95.9878 104.982 96.0036 104.722C96.9438 104.243 97.3982 103.179 98.3582 102.727Z" fill="#FFDEB6" fill-opacity="0.32"/>
<path d="M18.6264 97.5287C18.8793 97.4727 19.1124 97.6887 19.3534 97.9326C21.8304 100.448 24.3153 102.959 26.7924 105.478C26.9741 105.662 27.1361 105.886 27.2348 106.122C27.3692 106.446 27.1598 106.666 26.9306 106.886C26.6106 107.194 26.4487 106.894 26.2867 106.73C23.5766 104.063 20.8704 101.387 18.1642 98.7083C17.9232 98.4684 17.7455 98.1725 17.8442 97.8166C17.939 97.4687 18.259 97.5767 18.6264 97.5287Z" fill="#F8E0EE"/>
<path d="M111.615 95.5493C113.275 98.9082 114.484 102.475 116.281 105.766C116.423 106.03 116.34 106.418 116.364 106.75C115.961 106.75 115.558 106.75 115.155 106.75C113.709 103.539 112.263 100.328 110.81 97.1168C110.569 96.589 110.292 96.0771 110.031 95.5573C110.561 95.5533 111.09 95.5533 111.615 95.5493Z" fill="#FFDEB6" fill-opacity="0.32"/>
<path d="M82.3991 9.65283C83.0036 9.81278 83.4737 10.1727 83.9004 10.5885C84.7972 11.4603 85.6624 12.364 86.5591 13.2397C86.9384 13.6076 87.0135 13.9155 86.5947 14.3233C86.2036 14.7032 85.9389 14.5952 85.607 14.2514C84.4337 13.0397 83.2485 11.8481 82.0554 10.6565C81.8737 10.4766 81.7354 10.3046 81.8816 10.0567C82.0041 9.86077 82.1463 9.67283 82.3991 9.65283Z" fill="#F8E0EE"/>
<path d="M77.0768 109.105C77.3296 109.113 77.4837 109.233 77.5074 109.497C77.1914 109.557 77.0531 109.425 77.0768 109.105Z" fill="#F8E0EE"/>
<path d="M147.359 80.1502C148.659 80.93 149.39 82.2136 150.18 83.4372C150.781 84.3689 151.14 85.4525 151.982 86.2323C152.254 86.4842 152.507 86.7281 152.894 86.7601C153.621 87.4119 154.648 87.232 155.446 87.7078C155.833 87.9397 156.304 88.0397 156.45 88.5515C155.652 89.2353 154.897 89.9591 153.878 90.343C151.962 91.0627 150.01 91.5786 148.015 92.0424C145.787 92.5622 143.523 92.8501 141.295 93.0661C137.854 93.402 134.366 93.218 130.913 92.7382C130.85 92.7302 130.779 92.7262 130.719 92.6982C129.447 92.0744 128.025 92.2543 126.686 92.0304C124.833 91.7185 122.897 91.9064 120.997 91.7865C119.369 91.6825 117.726 91.9224 116.09 91.9424C113.925 91.9664 111.8 92.2623 109.682 92.6942C109.252 92.7822 108.766 92.9301 108.398 92.4863C108.616 92.0904 108.944 91.8065 109.287 91.5346C109.509 91.5426 109.615 91.4226 109.639 91.2107L109.682 91.1547C109.896 91.1387 110.014 91.0267 110.034 90.8068L110.081 90.7548C110.295 90.7428 110.413 90.6309 110.429 90.4109C112.827 87.7638 115.403 85.2966 117.912 82.7574C120.792 79.8463 123.672 76.9353 126.536 74.0042C126.686 73.8523 126.793 73.7283 127.002 73.7163C128.155 75.2878 128.728 77.1632 129.629 78.8706C130.712 80.93 132.663 81.5298 134.879 80.77C136.321 80.2742 137.779 79.7784 139.253 79.3545C140.26 79.0666 141.268 78.7227 142.295 78.5747C144.195 78.3108 145.748 79.3625 147.359 80.1502Z" fill="#FDFDFE"/>
<path d="M55.1271 32.9895C56.2214 34.7649 57.3118 36.5444 58.4061 38.3198C58.7261 38.8436 59.1054 39.3395 59.0935 39.9992C58.3903 40.3271 57.6871 40.659 56.9839 40.9829C54.9138 41.9306 53.5864 43.774 51.9864 45.2856C50.493 46.6931 49.0985 48.2046 47.6683 49.6801C47.5024 49.8521 47.3602 50.02 47.1034 50.028C46.0841 49.3362 45.3967 48.2886 44.7291 47.3329C43.935 46.1893 42.9474 45.2296 42.1177 44.1259C41.2288 42.9383 40.2412 41.7787 39.2575 40.639C38.5266 39.7913 37.7404 38.9476 37.1399 37.9759C37.2348 37.4601 37.6417 37.4121 38.0367 37.3841C40.2807 37.2241 42.4851 36.7643 44.7528 36.7523C46.6214 36.7403 48.4506 36.9762 50.2955 37.1802C50.5444 37.2081 50.8604 37.2401 50.9395 36.8842C51.0224 36.5004 50.8051 36.1165 50.5009 36.1005C49.7108 36.0565 49.055 35.5647 48.2412 35.5727C45.0767 35.6087 41.9123 35.5007 38.7557 35.9486C37.697 36.1005 36.6145 36.1125 35.5636 36.3764C35.4293 35.7766 34.7656 35.4527 34.7656 34.7849C34.9908 34.509 35.3069 34.585 35.5913 34.585C38.6056 34.613 41.612 34.453 44.6185 34.2051C48.1424 33.9172 51.6308 33.4134 55.1271 32.9895Z" fill="#FFDEB6" fill-opacity="0.32"/>
<path d="M108.401 92.4901C108.768 92.93 109.254 92.7821 109.685 92.6981C111.802 92.2702 113.928 91.9743 116.093 91.9463C117.728 91.9263 119.372 91.6864 120.999 91.7904C122.9 91.9103 124.835 91.7224 126.688 92.0343C128.028 92.2582 129.45 92.0783 130.722 92.7021C130.777 92.7301 130.848 92.7341 130.915 92.7421C134.364 93.2219 137.857 93.4059 141.298 93.07C143.526 92.854 145.79 92.5661 148.018 92.0463C150.013 91.5784 151.964 91.0666 153.88 90.3468C154.9 89.963 155.654 89.2392 156.452 88.5554C157.677 89.1512 157.803 90.8747 156.658 91.8184C155.421 92.83 154.046 93.5938 152.482 93.9777C152.213 94.0456 151.972 94.2296 151.715 94.3575C151.143 94.3855 150.597 94.4535 150.025 94.6175C149.31 94.8214 148.63 95.3052 147.82 95.1613C147.224 95.0533 146.686 95.2413 146.185 95.5612C142.412 96.085 138.611 96.065 134.831 95.909C133.152 95.8411 131.409 95.7731 129.774 95.1973C129.683 95.1653 129.58 95.1733 129.481 95.1653C126.558 94.8694 123.631 94.6255 120.687 94.7614C118.578 94.8694 116.436 94.4455 114.366 95.1613C113.45 95.2772 112.454 94.8534 111.621 95.5572C111.095 95.5612 110.566 95.5612 110.04 95.5652C108.835 95.8611 107.575 95.8691 106.382 96.2609C105.94 96.4049 105.339 96.6568 105.051 95.929L105.055 95.925C105.371 95.961 105.489 95.8091 105.454 95.5012C105.572 95.1573 105.833 94.9454 106.125 94.7654C106.351 94.7534 106.469 94.6255 106.485 94.4015C106.485 94.4015 106.52 94.3695 106.52 94.3735C106.738 94.3535 106.864 94.2416 106.864 94.0097C107.311 93.4298 107.816 92.914 108.401 92.4901Z" fill="#FEF0DC" fill-opacity="0.71"/>
<path d="M125.071 64.5993C125.106 65.1951 124.925 65.6629 124.526 66.0668C120.828 69.8016 117.142 73.5524 113.444 77.2872C111.986 78.7587 110.157 78.3109 109.509 76.3315C109.201 75.3918 109.762 74.776 110.343 74.1882C113.223 71.2771 116.103 68.3661 118.987 65.455C119.813 64.6193 120.638 63.7795 121.468 62.9518C122.108 62.316 122.858 62.0401 123.7 62.46C124.565 62.8918 125.177 63.5476 125.071 64.5993Z" fill="#F8E0EE"/>
<path d="M98.3587 102.727C97.3987 103.179 96.9444 104.243 96.0081 104.73C95.7474 104.75 95.5657 104.842 95.6012 105.154L95.6091 105.142C94.5069 104.942 93.7128 105.798 92.7331 106.058C91.8284 106.298 90.975 106.314 90.0862 106.306C90.0743 104.998 89.9202 103.659 90.4931 102.427C90.9276 101.495 91.5953 100.72 92.5869 100.364C93.5192 100.028 94.499 99.8239 95.4234 99.48C96.498 99.0802 97.1499 98.1125 97.9795 97.3767C98.7222 96.7169 99.4491 96.0211 100.539 95.9052C101.424 95.8132 102.23 95.9652 102.945 96.433C103.269 96.6449 103.566 96.7689 103.933 96.7649C102.4 98.6003 100.587 100.164 98.975 101.923C98.7538 102.171 98.3666 102.303 98.3587 102.727Z" fill="#71B03E"/>
<path d="M58.7617 69.7935C58.1888 69.8975 57.6594 69.6136 57.1972 69.1417C56.1898 68.1101 55.1626 67.0984 54.171 66.0467C53.4244 65.255 53.3612 64.0194 53.9775 63.2316C54.7162 62.2799 55.7868 61.956 56.7468 62.6838C58.2441 63.8194 59.6505 65.131 60.6698 66.7265C61.5626 68.134 60.5078 69.7935 58.7617 69.7935Z" fill="#F8E0EE"/>
<path d="M69.4573 69.9335C69.3981 70.1735 69.3428 70.4054 69.1018 70.5054C68.7146 70.6613 68.4776 70.3854 68.2484 70.1575C66.5931 68.506 64.9378 66.8545 63.2904 65.1951C61.1492 63.0438 59.0119 60.8924 56.8825 58.7251C56.5586 58.3932 56.0252 58.0534 56.5586 57.4895C57.1235 56.8897 57.487 57.4096 57.8544 57.7774C60.363 60.3126 62.8637 62.8558 65.3763 65.391C66.5734 66.5986 67.7744 67.7942 68.9951 68.9738C69.2835 69.2538 69.3507 69.5936 69.4573 69.9335Z" fill="#6AB330"/>
<path d="M131.851 62.504C131.748 62.408 131.583 62.2961 131.472 62.1441C131.282 61.8802 131.413 61.6563 131.594 61.4324C132.321 60.5287 133.104 59.6809 133.925 58.8692C135.644 57.1777 137.347 55.4783 139.057 53.7788C139.223 53.6149 139.361 53.4109 139.555 53.303C139.879 53.119 140.282 53.0351 140.543 53.359C140.78 53.6509 140.507 53.9028 140.294 54.1187C137.663 56.8138 135.035 59.509 132.408 62.2041C132.274 62.3441 132.151 62.52 131.851 62.504Z" fill="#71B03E"/>
<path d="M73.5991 51.9832C73.9072 51.9352 74.0692 52.1671 74.2509 52.3511C75.7877 53.9346 77.3205 55.5301 78.8652 57.1055C79.1892 57.4374 79.3235 57.7693 79.0035 58.1452C78.64 58.5771 78.3003 58.3332 78.004 58.0332C76.4 56.4178 74.804 54.7943 73.2 53.1788C72.9749 52.9549 72.8287 52.719 72.9907 52.3871C73.121 52.1272 73.283 51.9472 73.5991 51.9832Z" fill="#71B03E"/>
<path d="M70.532 77.0992C70.5162 77.4031 70.5359 77.6671 70.2357 77.727C69.9473 77.783 69.6392 77.839 69.3982 77.5991C67.9838 76.1755 66.5656 74.752 65.167 73.3045C64.8945 73.0205 64.8865 72.5847 65.1473 72.3048C65.3804 72.0529 65.8307 72.0569 66.0559 72.2808C67.5374 73.7323 68.9834 75.2158 70.4293 76.6994C70.5241 76.7993 70.5083 77.0073 70.532 77.0992Z" fill="#71B03E"/>
<path d="M137.113 53.1788C136.998 52.9909 136.848 52.8029 136.769 52.591C136.651 52.2711 136.627 51.9152 136.884 51.6553C138.025 50.4757 139.171 49.2961 140.344 48.1484C140.617 47.8805 141.044 47.8765 141.34 48.1245C141.62 48.3604 141.628 48.7882 141.395 49.0322C140.159 50.3277 139.064 51.7713 137.599 52.8309C137.496 52.9069 137.393 52.9789 137.113 53.1788Z" fill="#6AB330"/>
<path d="M132.861 42.0544C132.841 42.6182 129.993 44.6656 129.518 44.5256C128.985 44.3657 128.807 43.7179 129.27 43.366C130.115 42.7222 130.933 42.0344 131.881 41.5346C132.568 41.1667 132.738 41.5865 132.861 42.0544Z" fill="#F8E0EE"/>
<path d="M135.721 40.4309C135.519 40.4029 135.263 40.4549 135.176 40.151C135.085 39.8151 135.041 39.4752 135.357 39.2433C136.199 38.6275 137.056 38.0277 137.91 37.4279C138.147 37.2599 138.407 37.2319 138.621 37.4599C138.798 37.6518 138.968 37.8677 138.874 38.1716C138.759 38.5435 136.163 40.4229 135.721 40.4309Z" fill="#F8E0EE"/>
<path d="M132.89 39.7711C132.219 39.7391 130.216 36.8241 130.476 36.3162C130.765 35.7524 131.286 35.8164 131.594 36.2203C132.234 37.052 132.811 37.9397 133.337 38.8514C133.621 39.3393 133.254 39.6192 132.89 39.7711Z" fill="#F8E0EE"/>
<path d="M135.017 42.0305C135.404 41.9345 135.562 42.2424 135.72 42.4663C136.289 43.2581 136.834 44.0658 137.372 44.8816C137.601 45.2334 137.55 45.5933 137.202 45.8333C136.886 46.0532 136.609 45.9732 136.376 45.6333C135.764 44.7576 135.08 43.9259 134.515 43.0262C134.207 42.5423 134.44 42.1384 135.017 42.0305Z" fill="#F8E0EE"/>
<path d="M100.719 56.9738C100.715 57.3377 100.526 57.4856 100.372 57.6496C99.3958 58.6732 98.424 59.6969 97.4403 60.7086C97.2823 60.8685 97.0808 60.9965 96.8753 61.0965C96.5988 61.2364 96.3578 61.0725 96.1603 60.9045C95.9351 60.7166 96.0181 60.4767 96.1919 60.2967C97.3573 59.1091 98.5109 57.9055 99.7119 56.7539C100.127 56.354 100.459 56.7139 100.719 56.9738Z" fill="#71B03E"/>
<path d="M87.2875 99.284C87.2914 99.5399 87.1927 99.7479 86.9636 99.8518C86.687 99.9798 86.4302 99.9678 86.1458 99.7679C85.3675 99.208 84.7591 98.4843 84.1705 97.7445C83.7951 97.2687 84.0243 96.8248 84.6327 96.7728C85.166 96.7248 87.2994 98.7442 87.2875 99.284Z" fill="#6AB330"/>
<path d="M86.5306 94.0458C86.5148 94.6856 86.2304 94.9695 85.8076 94.5777C84.82 93.662 83.8995 92.6703 82.9671 91.6946C82.7183 91.4307 82.8249 91.1148 83.0541 90.8909C83.2674 90.6789 83.5676 90.6989 83.7691 90.8989C84.658 91.7786 85.535 92.6703 86.3963 93.578C86.5108 93.706 86.5029 93.9499 86.5306 94.0458Z" fill="#71B03E"/>
<path d="M49.8565 63.7674C49.4101 63.7314 48.1103 62.5518 48.0352 62.1079C47.9918 61.864 48.0313 61.6321 48.2446 61.4881C48.4817 61.3282 48.7661 61.3042 48.9755 61.4961C49.4812 61.964 49.9592 62.4598 50.4333 62.9597C50.6071 63.1436 50.6229 63.3995 50.4886 63.6075C50.3464 63.8314 50.0817 63.7554 49.8565 63.7674Z" fill="#71B03E"/>
<path d="M97.0775 65.7669C96.8602 65.7429 96.5955 65.8309 96.4691 65.563C96.3387 65.2911 96.4375 65.0471 96.639 64.8432C97.0024 64.4713 97.3817 64.1074 97.7372 63.7276C97.9782 63.4717 98.2508 63.2477 98.5866 63.4557C98.8869 63.6356 98.7881 63.9955 98.7446 64.2754C98.6656 64.7592 97.5239 65.7509 97.0775 65.7669Z" fill="#71B03E"/>
<path d="M105.45 95.4934C105.486 95.7973 105.363 95.9493 105.051 95.9173C105.043 95.6374 105.229 95.5454 105.45 95.4934Z" fill="#F8E0EE"/>
<path d="M106.481 94.3936C106.465 94.6176 106.35 94.7455 106.121 94.7575C106.129 94.5216 106.24 94.3896 106.481 94.3936Z" fill="#F8E0EE"/>
<path d="M106.859 93.9977C106.855 94.2296 106.733 94.3415 106.516 94.3615C106.531 94.1456 106.606 93.9817 106.859 93.9977Z" fill="#F8E0EE"/>
<path d="M109.64 91.2146C109.616 91.4265 109.513 91.5465 109.288 91.5385C109.261 91.2666 109.426 91.2146 109.64 91.2146Z" fill="#F8E0EE"/>
<path d="M110.033 90.8108C110.017 91.0307 109.894 91.1427 109.681 91.1587C109.665 90.8987 109.796 90.7988 110.033 90.8108Z" fill="#F8E0EE"/>
<path d="M110.428 90.415C110.416 90.6349 110.293 90.7429 110.08 90.7589C110.06 90.507 110.195 90.407 110.428 90.415Z" fill="#F8E0EE"/>
<path d="M44.6373 52.6311C44.7203 52.6551 44.8032 52.6791 44.8862 52.6991C44.7993 52.7791 44.7124 52.863 44.6294 52.943L44.5859 52.907C44.6017 52.815 44.6175 52.7231 44.6373 52.6311Z" fill="#6AB330"/>
<path d="M27.6763 26.5595C28.98 26.5115 30.2245 26.6914 31.4215 27.2953C32.1287 27.6511 32.8753 27.2913 33.4245 26.8674C34.1119 26.3396 34.7005 25.6838 35.218 24.94C35.9766 23.8524 36.7627 22.7807 37.4817 21.6651C37.9756 20.8973 38.5168 20.1695 39.1568 19.5098C40.6541 17.9742 42.1198 16.4108 44.261 15.787C47.1291 15.4151 49.5627 16.5547 51.9608 17.9623C53.9558 19.1339 56.105 19.9576 58.3291 20.6414C61.0985 21.4971 63.9193 22.2529 66.4674 23.7404C67.7316 24.4802 68.897 25.3599 70.0032 26.2916C72.2551 28.191 74.6531 29.5585 77.6951 29.3826C79.2911 29.2906 80.7963 29.7665 82.3054 30.2023C82.499 30.2583 82.5464 30.4063 82.5741 30.5742C80.1919 32.0537 77.5054 31.9498 74.8941 31.9018C72.1287 31.8498 69.3593 31.5779 66.6096 31.182C65.1163 30.9661 63.5795 31.142 62.1059 30.9061C59.8146 30.5422 57.5509 30.4182 55.2714 30.7861C53.5292 31.066 51.7632 31.042 50.0131 31.302C47.4333 31.6898 44.818 31.8338 42.2343 32.1937C40.7292 32.4016 39.224 32.2816 37.7227 32.4136C34.6808 32.6815 31.6625 32.6735 28.6403 32.0977C27.3366 31.8498 26.2027 31.146 24.899 30.9701C23.6269 29.9784 23.7731 27.935 25.6101 26.9714C26.2738 26.6435 26.9573 26.5475 27.6763 26.5595Z" fill="#FEFDFD"/>
<path d="M24.9023 30.9859C26.206 31.1619 27.3438 31.8656 28.6436 32.1136C31.6658 32.6854 34.688 32.6974 37.726 32.4295C39.2273 32.2975 40.7325 32.4175 42.2377 32.2095C44.8214 31.8497 47.4367 31.7057 50.0164 31.3178C51.7665 31.0539 53.5325 31.0819 55.2747 30.802C57.5542 30.4341 59.8179 30.5581 62.1093 30.922C63.5789 31.1539 65.1196 30.9819 66.613 31.1979C69.3626 31.5937 72.132 31.8657 74.8974 31.9176C77.5088 31.9656 80.1952 32.0696 82.5774 30.5901C83.2451 30.5501 83.7942 30.806 84.2406 31.2938C84.8016 31.9096 84.6989 32.5974 83.968 32.9853C82.4154 33.805 80.693 33.913 79.01 33.969C75.6046 34.0769 72.2347 33.6691 68.853 33.2532C64.9853 32.7814 61.0781 32.6534 57.1789 32.8253C56.5033 32.8573 55.8199 33.0013 55.1325 32.9973C51.6362 33.4251 48.1478 33.925 44.6317 34.2169C41.6253 34.4648 38.6189 34.6248 35.6046 34.5968C35.3162 34.5928 35.0041 34.5208 34.7789 34.7967C33.4278 34.5968 32.0569 34.4728 30.7256 34.1729C28.8174 33.741 26.8658 33.3412 25.4238 31.8097C25.1907 31.5657 24.9023 31.3698 24.9023 30.9859Z" fill="#FEF0DC" fill-opacity="0.71"/>
<path d="M35.5695 36.3764C36.6204 36.1125 37.7029 36.1005 38.7616 35.9485C41.9182 35.4967 45.0826 35.6086 48.2471 35.5726C49.0569 35.5646 49.7127 36.0565 50.5068 36.1005C50.811 36.1165 51.0283 36.5043 50.9453 36.8842C50.8663 37.2401 50.5503 37.2041 50.3014 37.1801C48.4604 36.9762 46.6273 36.7403 44.7587 36.7523C42.495 36.7643 40.2866 37.2281 38.0426 37.3841C37.6476 37.412 37.2406 37.464 37.1458 37.9759C36.6164 37.592 36.016 37.56 35.3878 37.576C34.4041 37.6 33.4125 37.628 32.4288 37.572C29.5409 37.412 26.8031 36.6803 24.3063 35.1648C23.6426 34.7609 22.8288 34.589 22.3389 33.8972C22.1335 33.6053 21.7424 33.3494 22.1058 32.9735C22.4179 32.6496 22.8406 32.7016 23.1883 32.9615C24.0337 33.5933 24.9029 34.1811 25.9103 34.517C27.7671 35.1368 29.5488 35.9285 31.5794 36.0405C32.8989 36.1205 34.2184 36.4564 35.5695 36.3764Z" fill="#FEF0DC" fill-opacity="0.71"/>
<path d="M50.4152 92.4182C50.6838 92.5382 50.9327 92.6621 51.15 92.8901C55.1441 96.9687 59.15 101.039 63.1599 105.102C63.4878 105.434 63.7129 105.806 63.9381 106.218C64.1436 106.598 64.0053 106.754 63.788 106.962C63.5194 107.213 63.2626 107.173 63.0097 106.926C62.7767 106.694 62.5317 106.47 62.3026 106.234C58.7786 102.663 55.2507 99.1001 51.7386 95.5172C50.9999 94.7655 50.3243 93.9497 49.6211 93.166C49.8858 92.9141 50.1505 92.6661 50.4152 92.4182Z" fill="#FDFDFE"/>
<path d="M48.2924 92.1623C48.0277 91.3746 47.4193 90.8428 46.8505 90.3149C44.7566 88.3596 42.9393 86.1323 40.885 84.1409C40.7665 84.025 40.6598 83.901 40.5453 83.781C40.2213 83.4451 40.1739 82.9973 40.4505 82.7054C40.7586 82.3815 41.1734 82.5454 41.4895 82.8573C42.3784 83.737 43.2001 84.6847 44.0455 85.6084C45.4756 87.1639 46.9966 88.6355 48.49 90.131C48.8653 90.5069 49.205 90.9067 49.4302 91.3946C49.0944 91.7225 48.731 92.0024 48.2924 92.1623Z" fill="#FDFDFE"/>
<path d="M44.639 52.631C44.6232 52.723 44.6035 52.819 44.5877 52.9109C44.3388 52.9469 44.2361 53.2868 43.9437 53.2228C42.7822 52.5071 41.9091 51.4714 41.0835 50.4197C40.637 49.8519 40.242 49.2401 39.7007 48.7683C38.6341 47.8366 38.0296 46.505 36.9748 45.5653C36.643 45.2694 36.6153 44.7775 36.9156 44.5056C37.2079 44.2417 37.682 44.2657 37.9664 44.6376C39.9694 47.2647 42.2291 49.664 44.4612 52.0872C44.6035 52.2392 44.6667 52.4191 44.639 52.631Z" fill="#FEE2B6" fill-opacity="0.49"/>
<path d="M48.2898 92.1623C48.7323 91.9984 49.0918 91.7185 49.4276 91.3946C50.269 91.2266 50.5851 91.5825 50.4113 92.4143C50.1466 92.6622 49.8819 92.9101 49.6172 93.158C49.0167 93.5579 48.4044 93.9418 47.8157 94.3576C47.3772 94.6695 46.994 94.6016 46.7095 94.1937C46.4251 93.7818 46.6384 93.4619 47.0058 93.19C47.4444 92.8621 47.954 92.6262 48.2898 92.1623Z" fill="#5BC4C0"/>
<path d="M32.7995 68.7818C32.8508 69.2937 32.7086 69.5056 32.4597 69.6456C32.195 69.7975 31.9461 69.7255 31.7446 69.5256C30.9782 68.7618 30.2158 67.9981 29.4691 67.2143C29.2162 66.9464 29.1846 66.5825 29.4296 66.3066C29.6627 66.0507 30.0617 65.9507 30.3343 66.1627C31.239 66.8744 32.0212 67.7222 32.76 68.6059C32.8311 68.6939 32.8113 68.8618 32.7995 68.7818Z" fill="#5BC4C0"/>
<path d="M44.9287 93.7058C44.3756 94.0577 44.0122 93.7658 43.7001 93.3259C43.0956 92.4702 42.4912 91.6105 41.8867 90.7548C41.942 90.3589 42.0961 90.059 42.5425 90.019C42.9455 89.983 43.2062 90.159 43.4314 90.5029C43.8581 91.1586 44.3006 91.8064 44.7865 92.4222C45.1183 92.8421 45.142 93.246 44.9287 93.7058Z" fill="#5BC4C0"/>
<path d="M83.9592 44.3577C82.3276 44.3177 81.012 42.8742 81.0476 41.1427C81.0831 39.4033 82.4856 38.0677 84.1844 38.1517C85.8555 38.2317 87.1513 39.5952 87.1078 41.2867C87.0486 43.382 85.2906 44.4977 83.9592 44.3577ZM84.0145 42.8542C85.0812 42.8742 85.7172 42.3024 85.7409 41.2987C85.7646 40.359 85.0496 39.5872 84.1449 39.5752C83.1809 39.5632 82.4105 40.267 82.3829 41.1907C82.3513 42.1824 82.9873 42.8342 84.0145 42.8542Z" fill="#5BC4C0"/>
<path d="M73.8176 25.4679C73.8295 25.7678 73.7386 26.0197 73.47 26.1316C73.1539 26.2636 72.8853 26.1117 72.6917 25.8557C72.1307 25.116 71.4947 24.4562 70.8033 23.8404C69.472 22.6528 67.8641 22.017 66.2443 21.3652C65.0868 20.9013 63.8226 20.8294 62.6927 20.2415C62.187 19.9776 62.187 19.6777 62.2739 19.3018C62.3846 18.842 62.8191 18.938 63.0957 19.0299C65.3357 19.7577 67.6744 20.2056 69.7525 21.3932C71.2181 22.2289 72.4033 23.4005 73.5174 24.6521C73.6991 24.8561 73.7228 25.1999 73.8176 25.4679Z" fill="#FDFDFE"/>
<path d="M151.298 99.1522C149.584 99.3961 147.846 99.4801 146.163 99.952C143.172 99.9919 140.209 100.608 137.207 100.352C136.977 100.332 136.748 100.34 136.519 100.348C136.124 100.364 135.911 100.22 135.899 99.78C135.887 99.3002 136.096 99.1402 136.547 99.1402C139.308 99.1322 142.038 98.4724 144.812 98.7563C145.345 98.8123 145.74 98.5524 146.174 98.3485C146.858 98.3485 147.616 98.5364 148.213 98.3045C149.359 97.8606 150.836 98.4364 151.69 97.1449C151.792 97.6927 152.247 97.6047 152.551 97.5287C155.221 96.8849 157.932 96.3171 159.528 93.654C159.721 93.3301 159.769 92.9822 159.942 92.6703C160.179 92.2464 160.345 91.6186 160.977 91.8826C161.637 92.1545 161.4 92.7103 161.199 93.2341C160.416 95.2415 158.978 96.621 157.07 97.4528C155.668 98.0646 154.261 98.7563 152.669 98.7443C152.168 98.7443 151.84 99.3202 151.298 99.1522Z" fill="#FEF0DC" fill-opacity="0.71"/>
<path d="M151.683 97.1529C150.83 98.4445 149.352 97.8686 148.206 98.3125C147.61 98.5444 146.855 98.3525 146.168 98.3565C146.172 97.4248 146.172 96.4891 146.176 95.5574C146.678 95.2375 147.215 95.0495 147.811 95.1575C148.621 95.3055 149.301 94.8176 150.016 94.6137C150.589 94.4497 151.134 94.3818 151.707 94.3538C151.703 95.2855 151.695 96.2172 151.683 97.1529Z" fill="#FFDEB6" fill-opacity="0.32"/>
<path d="M162.205 105.946C162.078 106.47 161.881 106.95 161.415 107.266C161.328 106.614 161.592 106.174 162.205 105.946Z" fill="#F8E0EE"/>
<path d="M161.39 107.545C161.426 107.913 161.327 108.225 161.011 108.441C161.031 108.097 160.806 107.645 161.39 107.545Z" fill="#F8E0EE"/>
<path d="M164.185 103.563C164.169 103.831 164.027 103.967 163.762 103.975C163.751 103.679 163.901 103.551 164.185 103.563Z" fill="#F8E0EE"/>
<path d="M163.779 103.967C163.783 104.243 163.617 104.35 163.372 104.378C163.36 104.087 163.498 103.951 163.779 103.967Z" fill="#F8E0EE"/>
<path d="M163.381 104.362C163.397 104.646 163.215 104.762 162.986 104.834C162.954 104.542 163.057 104.358 163.381 104.362Z" fill="#F8E0EE"/>
<path d="M74.9487 98.8203C75.3635 99.0362 75.806 99.612 76.2998 100.092C77.4929 101.248 78.6228 102.475 79.7803 103.671C79.9857 103.887 80.207 104.087 80.2899 104.39C80.365 104.65 80.448 104.942 80.1556 105.094C79.9265 105.21 79.6736 105.454 79.3892 105.146C79.2825 105.03 79.1166 104.978 79.006 104.866C77.4336 103.279 75.8692 101.683 74.289 100.1C73.9966 99.808 73.8583 99.5321 74.048 99.1362C74.1783 98.8603 74.3877 98.7523 74.9487 98.8203Z" fill="#71B03E"/>
<path d="M112.019 49.992C111.652 49.952 111.363 50.036 111.276 49.7521C111.154 49.3562 111.185 48.9963 111.525 48.6645C112.489 47.7208 113.425 46.7411 114.374 45.7814C115.417 44.7257 116.46 43.6741 117.503 42.6184C117.641 42.4784 117.763 42.2585 117.925 42.2145C118.364 42.0946 118.715 41.3668 119.261 41.9506C119.853 42.5864 119.178 42.8823 118.854 43.2182C116.831 45.2975 114.792 47.3609 112.746 49.4162C112.505 49.6641 112.311 50.032 112.019 49.992Z" fill="#78CD36"/>
<path d="M122.662 35.0369C122.701 35.3288 122.531 35.5167 122.338 35.7086C121.781 36.2645 121.236 36.8283 120.683 37.3881C120.41 37.664 120.118 37.8559 119.742 37.576C119.379 37.3041 119.395 36.8243 119.588 36.6004C120.284 35.7886 120.924 34.8769 121.967 34.461C122.472 34.2571 122.705 34.497 122.662 35.0369Z" fill="#78CD36"/>
<path d="M147.75 77.3511C149.642 78.2349 150.903 79.8423 152.21 81.3818C152.392 81.5978 152.471 81.9057 152.59 82.1736C152.787 82.6054 152.566 82.9014 152.218 83.0653C151.827 83.2492 151.539 83.0333 151.337 82.6774C150.764 81.6458 150.105 80.6741 149.239 79.8663C148.71 79.3745 148.121 78.9906 147.367 78.9546C146.988 78.2748 146.186 77.9989 145.629 77.923C144.554 77.771 143.511 76.8633 142.294 77.683C141.935 77.927 140.991 78.0949 140.734 77.4631C140.497 76.8833 141.224 76.7073 141.686 76.4634C142.812 75.8636 144.005 76.1115 145.123 76.2595C146.032 76.3795 146.877 76.9713 147.75 77.3511Z" fill="#FEFDFD"/>
<path d="M46.629 96.0491C46.9411 96.0131 47.1268 96.249 47.269 96.445C47.8261 97.2127 48.3554 98.0004 48.869 98.7962C49.0982 99.1521 49.193 99.5919 48.794 99.8598C48.4226 100.108 48.0552 99.9518 47.7866 99.5639C47.2414 98.7802 46.6606 98.0284 46.1312 97.2367C45.7994 96.7449 46.0996 96.0891 46.629 96.0491Z" fill="#5BC4C0"/>
<path d="M42.1886 98.2805C42.1254 98.2885 42.0622 98.3005 41.999 98.3005C41.6237 98.3085 41.3353 98.9083 40.881 98.4444C40.5017 98.0606 40.7704 97.6527 40.7941 97.2568C41.6395 96.9009 42.3072 96.2691 43.0538 95.7613C43.5318 95.4374 44.0296 95.2855 44.397 95.8613C44.7526 96.4131 44.2074 96.645 43.8992 96.9449C43.3778 97.4528 42.5521 97.5607 42.1886 98.2805Z" fill="#5BC4C0"/>
<path d="M12.0504 63.7475C11.5764 63.7795 11.7107 64.2514 11.5329 64.4993C10.9877 65.2511 9.53783 65.6629 8.45536 65.343C7.58228 65.0871 7.03709 64.1154 6.89882 63.0758C6.73684 61.8482 7.4282 61.1324 8.14721 60.3806C9.06376 60.4806 10.0554 60.0287 10.885 60.7765C11.762 61.5762 12.1215 62.5759 12.0504 63.7475ZM9.28894 64.1754C10.1383 64.1794 10.482 63.8435 10.4978 62.9998C10.5097 62.26 9.9566 61.5882 9.32055 61.5802C8.68845 61.5682 8.11956 62.236 8.11166 62.9678C8.09981 63.7875 8.49092 64.1794 9.28894 64.1754Z" fill="#FEFDFD"/>
<path d="M175.785 95.5492C175.193 95.5332 175.011 95.0734 175.375 94.3936C175.967 93.2779 176.607 92.1903 177.192 91.0707C178.397 88.7634 179.566 86.4362 180.783 84.1369C180.953 83.817 181.063 83.1932 181.668 83.4651C182.225 83.713 182.138 84.2049 181.929 84.6567C181.514 85.5444 181.131 86.4561 180.637 87.2959C179.207 89.7431 178.002 92.3063 176.757 94.8534C176.56 95.2573 176.291 95.5812 175.785 95.5492Z" fill="#FEF0DC" fill-opacity="0.71"/>
<path d="M95.602 105.15C95.5665 104.838 95.7521 104.746 96.0089 104.726C95.9931 104.986 95.8746 105.146 95.602 105.15Z" fill="#6AB330"/>
<path d="M84.0155 42.8543C82.9923 42.8343 82.3523 42.1865 82.3839 41.1908C82.4116 40.2671 83.182 39.5634 84.1459 39.5753C85.0466 39.5873 85.7617 40.3591 85.742 41.2988C85.7143 42.3025 85.0822 42.8743 84.0155 42.8543Z" fill="#F8E0EE"/>
<path d="M9.28692 64.1755C8.4889 64.1795 8.09778 63.7836 8.10964 62.9639C8.11754 62.2321 8.69038 61.5643 9.31852 61.5763C9.95062 61.5883 10.5077 62.2601 10.4958 62.9959C10.48 63.8476 10.1363 64.1795 9.28692 64.1755Z" fill="#FFDEB6" fill-opacity="0.32"/>
</g>
<defs>
<clipPath id="clip0">
<rect width="192" height="112" fill="white"/>
</clipPath>
</defs>
</svg>
