<svg width="33" height="32" viewBox="0 0 33 32" fill="none" xmlns="http://www.w3.org/2000/svg">
<rect width="33" height="32" fill="white"/>
<path opacity="0.2" d="M32.5049 19.8708C30.3011 28.4423 21.3478 33.6583 12.5074 31.5213C3.67118 29.3843 -1.70834 20.7023 0.49596 12.1313C2.69871 3.5588 11.6515 -1.6582 20.4893 0.478798C29.3292 2.6158 34.7082 11.2988 32.5044 19.8708H32.5049Z" fill="#F7931A"/>
<path fill-rule="evenodd" clip-rule="evenodd" d="M21.47 14.141C21.6924 12.6967 20.5584 11.9203 19.0078 11.4024L19.5108 9.44592L18.2823 9.14912L17.7926 11.054C17.4701 10.976 17.1385 10.9024 16.809 10.8295L17.3022 8.91203L16.0748 8.61523L15.5714 10.571C15.3042 10.512 15.0418 10.4537 14.7872 10.3923L14.7886 10.3862L13.0949 9.97608L12.7682 11.248C12.7682 11.248 13.6794 11.4505 13.6602 11.4631C14.1576 11.5835 14.2478 11.9027 14.2324 12.1557L13.6595 14.3846C13.6937 14.393 13.7382 14.4053 13.7871 14.4242L13.6577 14.393L12.8542 17.5153C12.7934 17.6618 12.6391 17.8816 12.2914 17.7982C12.3037 17.8155 11.3988 17.5821 11.3988 17.5821L10.7891 18.9457L12.3876 19.332C12.5681 19.3759 12.7464 19.421 12.9227 19.4656L12.9227 19.4656L12.9231 19.4657C13.0371 19.4945 13.1503 19.5232 13.2628 19.5511L12.7545 21.5303L13.9813 21.8271L14.485 19.8693C14.8197 19.9575 15.145 20.0389 15.4633 20.1156L14.9617 22.0642L16.1899 22.361L16.6981 20.3859C18.7923 20.7702 20.3674 20.6152 21.0296 18.7788C21.5637 17.2999 21.0034 16.4469 19.9015 15.8902C20.7039 15.7101 21.3084 15.1983 21.4696 14.141H21.47ZM18.6638 17.9566C18.3151 19.3139 16.1237 18.7523 15.1219 18.4956L15.1218 18.4955C15.0321 18.4726 14.952 18.452 14.8836 18.4355L15.558 15.8139C15.6416 15.8342 15.7438 15.8564 15.8596 15.8816L15.8596 15.8816C16.896 16.1071 19.02 16.5693 18.6641 17.9566H18.6638ZM16.0678 14.6651C16.9037 14.8813 18.7257 15.3527 19.0431 14.1196C19.3677 12.8582 17.5959 12.478 16.7306 12.2923C16.6333 12.2714 16.5475 12.253 16.4774 12.2361L15.866 14.6138C15.9238 14.6278 15.9917 14.6454 16.0678 14.6651Z" fill="#F7931A"/>
</svg>
