<svg width="33" height="32" viewBox="0 0 33 32" fill="none" xmlns="http://www.w3.org/2000/svg">
<rect width="33" height="32" fill="white"/>
<path opacity="0.1" d="M16.5 32C25.6127 32 33 24.8366 33 16C33 7.16344 25.6127 0 16.5 0C7.3873 0 0 7.16344 0 16C0 24.8366 7.3873 32 16.5 32Z" fill="#3AB83A"/>
<mask id="mask0" mask-type="alpha" maskUnits="userSpaceOnUse" x="0" y="0" width="33" height="32">
<path d="M16.5 32C25.6127 32 33 24.8366 33 16C33 7.16344 25.6127 0 16.5 0C7.3873 0 0 7.16344 0 16C0 24.8366 7.3873 32 16.5 32Z" fill="white"/>
</mask>
<g mask="url(#mask0)">
<path fill-rule="evenodd" clip-rule="evenodd" d="M11.3438 15.3532L16.4818 12.1145L21.5778 15.3733L16.4594 6.38477L11.3438 15.3532ZM11.541 16.2887L16.4886 13.1271L21.3718 16.2652L16.4914 19.4301L11.541 16.2887ZM11.3438 17.1938C13.147 18.3405 15.0286 19.5407 16.4818 20.4694L21.5778 17.1938C19.7326 20.4761 18.1954 23.2086 16.4818 26.2327L15.4303 24.3844C14.0188 21.9036 12.5633 19.3453 11.3438 17.1938Z" fill="#3AB83A"/>
<path fill-rule="evenodd" clip-rule="evenodd" d="M16.4609 6.38477L16.4801 12.1145L21.578 15.3733L16.4609 6.38477ZM16.4843 13.1271L21.3998 16.2652L16.4867 19.4301L16.4843 13.1271ZM16.4796 20.4694L21.5775 17.1938C19.9963 20.4761 16.4796 26.2327 16.4796 26.2327V20.4694Z" fill="#0B8311"/>
</g>
</svg>
