<svg width="35" height="35" viewBox="0 0 35 35" fill="none" xmlns="http://www.w3.org/2000/svg">
<circle cx="17.5" cy="17.5" r="17.5" fill="#E0E0E0" fill-opacity="0.63"/>
<path d="M10 24.9016C10 22.2204 11.8186 19.9366 14.29 19.5141L14.5127 19.476C16.4917 19.1376 18.5083 19.1376 20.4873 19.476L20.71 19.5141C23.1814 19.9366 25 22.2204 25 24.9016C25 26.0605 24.1231 27 23.0413 27H11.9587C10.8769 27 10 26.0605 10 24.9016Z" stroke="#F2F2F2" stroke-width="1.5"/>
<path d="M21.875 11.375C21.875 13.7912 19.9163 15.75 17.5 15.75C15.0838 15.75 13.125 13.7912 13.125 11.375C13.125 8.95875 15.0838 7 17.5 7C19.9163 7 21.875 8.95875 21.875 11.375Z" stroke="#F2F2F2" stroke-width="1.5"/>
</svg>
