<svg width="88" height="87" viewBox="0 0 88 87" fill="none" xmlns="http://www.w3.org/2000/svg">
<g clip-path="url(#clip0)">
<path d="M0.00175055 34.3299C0.00175055 27.5018 -0.0109772 20.6612 0.00175055 13.8331C0.0144783 9.18807 1.91092 7.17012 6.49293 7.27166C9.33123 7.33511 11.3295 7.13205 11.6859 3.55306C11.8895 1.50973 13.9132 0.481721 16.1661 0.227892C23.7391 -0.609745 30.7776 0.824391 36.9505 5.2791C39.407 7.0559 41.1253 7.10667 43.6072 5.31717C49.7802 0.887849 56.7932 -0.647819 64.379 0.227892C67.2936 0.570562 69.1519 2.01739 69.4701 4.91104C69.661 6.68785 70.4628 7.29704 72.1302 7.23358C73.2884 7.19551 74.4721 7.15743 75.6303 7.27166C78.3923 7.52549 80.3523 8.95962 80.4287 11.7898C80.6069 19.0366 80.5687 26.2835 80.5814 33.543C80.5814 34.4822 80.3905 35.7005 79.1432 35.5609C77.8959 35.4213 77.654 34.2537 77.654 33.1242C77.654 26.8165 77.6668 20.5089 77.654 14.2012C77.6413 10.5207 73.8739 8.43927 70.5901 10.2542C69.4064 10.9014 69.5846 12.0056 69.5846 13.0209C69.5592 18.3767 69.5846 23.7452 69.5592 29.101C69.5592 30.2051 69.8519 31.7789 68.2227 31.8296C66.5554 31.8804 66.7972 30.3067 66.7972 29.2025C66.7591 21.8541 66.7081 14.5058 66.7718 7.14474C66.7972 4.47953 65.8936 3.09616 62.9662 2.91848C56.4877 2.52505 50.6329 4.03533 45.1982 7.58894C42.7417 9.20076 41.6089 11.0664 41.6598 14.0616C41.8253 22.0445 41.7107 30.0401 41.7107 38.0231C41.7107 38.7592 41.7489 39.4953 41.6853 40.2314C41.5962 41.2086 41.9398 42.6301 40.3998 42.6682C38.7197 42.7062 38.8343 41.2848 38.8343 40.1299C38.8215 31.4108 38.6815 22.6791 38.9106 13.9601C38.987 10.9141 37.8288 9.1373 35.4232 7.53818C29.9121 3.87034 23.9046 2.43621 17.337 2.96925C15.1096 3.14693 14.1423 4.16225 14.1551 6.38325C14.1932 20.052 14.206 33.7207 14.1423 47.3767C14.1296 50.1561 15.6697 50.8034 18.0116 50.6638C22.619 50.3973 27.112 50.8034 31.3503 52.7579C32.4067 53.2401 34.1886 53.5701 33.4122 55.2581C32.7504 56.6795 31.4012 55.8419 30.3575 55.4104C26.5774 53.8366 22.6572 53.3036 18.5716 53.4051C12.7677 53.5574 11.2786 52.0345 11.2659 46.1964C11.2404 35.5736 11.2659 24.9636 11.2531 14.3408C11.2404 10.1019 11.0877 9.96225 7.43479 9.96225C3.59099 9.97494 2.85278 10.673 2.84005 14.6073C2.80187 27.7811 2.80187 40.9294 2.82732 54.0651C2.84005 57.9614 3.55281 58.7102 7.44751 58.7355C14.766 58.7863 22.0718 58.7355 29.3902 58.7863C30.4721 58.799 32.1776 58.431 32.254 59.9539C32.3304 61.6038 30.6376 61.6038 29.3775 61.6038C21.7408 61.6292 14.1169 61.7054 6.4802 61.5784C1.89819 61.5023 0.0272061 59.3955 0.00175055 54.8393C-0.0109772 47.9986 0.00175055 41.1706 0.00175055 34.3299Z" fill="#F0B31D"/>
<path d="M64.2995 87C51.2153 86.9366 40.4221 76.3265 40.7658 63.5335C41.1094 51.2355 49.9807 40.4477 64.3377 40.3208C79.3438 40.1939 88.1514 52.53 87.9859 64.0538C87.8205 76.7707 77.2946 87.0635 64.2995 87ZM64.4013 43.3287C54.6009 42.7449 43.6932 51.0959 43.6423 63.8762C43.5914 75.1081 53.0736 84.2079 64.3886 84.2079C75.7036 84.2206 85.0585 75.0827 85.1731 63.8888C85.3004 52.5934 75.9327 43.316 64.4013 43.3287Z" fill="#F0B31D"/>
<path d="M64.1103 49.5984C65.0267 49.6365 65.5994 50.0426 65.6376 50.7025C65.7522 53.0505 67.2795 53.3297 69.1505 53.2662C70.1305 53.2281 71.276 53.3424 71.2378 54.5988C71.1997 55.7411 70.1687 55.9949 69.125 55.9949C67.4322 55.9822 65.7394 55.9822 64.0466 56.0076C61.9593 56.0457 60.5465 56.9341 60.5592 59.1677C60.572 61.2365 61.8702 62.1376 63.8557 62.1376C65.4722 62.1376 67.0249 62.4548 68.3996 63.2798C72.2052 65.5389 72.3197 70.7043 68.6032 73.2172C67.2413 74.1437 65.4467 74.5752 65.6376 76.7962C65.6885 77.4561 65.0394 77.9511 64.3394 77.8623C63.6775 77.7861 63.0793 77.3039 63.0666 76.6312C63.0284 74.3341 61.5011 74.2325 59.8083 74.296C58.8028 74.3341 57.67 74.1818 57.6318 73.0014C57.5809 71.5546 58.8664 71.5673 59.9483 71.5546C61.6411 71.5292 63.3339 71.5927 65.0267 71.4912C66.9486 71.3643 68.3105 70.3489 68.3868 68.3944C68.4505 66.5796 67.305 65.5262 65.4594 65.285C64.4157 65.1454 63.3593 65.0312 62.3157 64.8535C59.8719 64.4347 58.4719 62.9244 57.7591 60.6146C57.0591 58.3301 57.7591 56.4137 59.3628 54.9034C60.8647 53.482 63.4866 53.0885 63.3212 50.233C63.283 50.0172 63.9066 49.7507 64.1103 49.5984Z" fill="#F0B31D"/>
</g>
<defs>
<clipPath id="clip0">
<rect width="88" height="87" fill="white"/>
</clipPath>
</defs>
</svg>
