<svg width="86" height="84" viewBox="0 0 86 84" fill="none" xmlns="http://www.w3.org/2000/svg">
<g clip-path="url(#clip0)">
<path d="M33.9542 70.8653C33.9542 68.2533 33.9797 65.6413 33.9414 63.0293C33.9286 62.247 34.2733 61.1618 33.2521 60.8211C32.2947 60.493 31.8734 61.5782 31.2224 62.0451C27.0098 65.0608 25.0822 68.9851 25.9631 74.1713C26.1801 75.4962 26.0652 76.8842 25.9503 78.2343C25.7077 81.2627 23.244 83.7738 20.1548 83.8621C15.4827 83.9883 10.7979 83.9126 6.12574 83.8621C5.42365 83.8495 4.65773 83.6097 4.01946 83.2817C0.611121 81.5656 -0.80583 76.6697 0.445172 71.1933C1.24939 67.6728 3.80245 65.6413 7.84906 65.5656C12.5212 65.4772 17.206 65.4646 21.8782 65.5782C23.8312 65.6287 25.312 65.1366 26.6524 63.6855C28.5034 61.6665 30.5969 59.8747 32.4861 57.8937C35.1541 55.0798 34.5414 52.2659 31.0181 50.6634C28.5034 49.5151 26.9843 47.6981 26.997 44.8337C27.0226 41.7044 27.0353 38.5624 26.9843 35.4331C26.8694 29.0735 29.8054 24.3921 35.269 21.2754C37.2221 20.165 37.3242 19.5971 35.7158 17.9946C32.333 14.6634 31.6436 9.32583 33.7499 5.56558C36.1115 1.35107 40.5666 -0.604765 45.6727 0.316371C49.7193 1.03561 53.166 4.69492 53.7915 9.33845C54.2383 12.594 53.0383 15.4457 50.8171 17.9441C50.2172 18.6129 48.1492 19.4331 49.8597 20.4173C51.3405 21.2627 52.7575 23.9631 54.9914 22.0956C58.1444 19.4836 60.7996 16.7959 60.3656 11.8873C59.3699 0.606593 62.6634 -0.276689 72.0969 0.0892416C74.433 0.17757 76.7691 0.114478 79.1179 0.139715C79.7561 0.152333 80.4072 0.190188 81.0199 0.316371C84.9261 1.12394 86.3047 4.39208 85.9218 11.8243C85.7431 15.37 83.5219 17.982 80.1136 18.1082C74.9053 18.3101 69.6971 18.2091 64.4888 18.2596C62.2166 18.2848 56.7403 22.1082 55.9999 24.1271C55.7573 24.7959 55.9233 25.3511 56.3318 25.881C59.3827 29.6918 59.4082 34.1965 59.3444 38.7138C59.3189 40.6949 59.3189 42.6886 59.3061 44.6697C59.2933 47.7485 57.8636 49.9946 54.8638 50.7896C52.6809 51.37 52.4256 52.6823 52.4256 54.4741C52.4511 62.2091 52.4256 69.9441 52.4128 77.6791C52.4128 80.493 51.6724 82.9284 48.5832 83.799C47.4982 84.1145 46.2089 84.2154 45.1876 83.4836C43.8218 82.4993 42.6984 82.6003 41.1538 83.3952C37.8731 85.0861 34.2733 83.0167 34.0307 79.37C33.8393 76.5561 33.9924 73.7296 33.9924 70.9031C34.0052 70.8653 33.9797 70.8653 33.9542 70.8653ZM50.6384 56.1902C50.6384 48.7706 50.6257 41.3637 50.6512 33.9441C50.6512 33.187 50.3065 31.9378 51.5065 31.9504C52.6171 31.9504 52.4256 33.187 52.4383 33.9694C52.4894 38.0451 52.4383 42.1208 52.5149 46.1839C52.5277 47.1555 52.183 48.5687 53.4213 48.922C54.7872 49.3258 55.8722 48.3037 56.5488 47.2186C57.0849 46.3605 57.5317 45.288 57.5445 44.3037C57.5828 40.3542 57.9402 36.3921 57.1615 32.4426C56.319 28.2659 53.9957 25.187 50.3704 23.0672C41.4729 17.881 30.3671 23.3826 29.1416 33.5277C28.6438 37.5782 28.4395 41.6287 29.1672 45.6791C29.5246 47.6476 30.8139 49.1492 32.8053 48.9094C34.6435 48.6823 33.9286 46.7012 33.9542 45.4773C34.0563 41.5151 33.9797 37.5403 34.018 33.5782C34.0307 32.922 33.8265 31.9 34.9498 31.9757C35.7541 32.0388 35.6392 32.9094 35.6647 33.5025C35.7158 34.3353 35.6902 35.1681 35.6902 36.0135C35.6902 49.2754 35.6902 62.5372 35.6902 75.799C35.6902 77.1492 35.5753 78.5119 36.0987 79.8243C36.6093 81.1239 37.4901 81.8684 38.9582 81.881C40.4134 81.8937 41.3325 81.1996 41.8942 79.9126C42.3793 78.8148 42.3027 77.6665 42.3027 76.5183C42.3154 67.6476 42.2771 58.7643 42.341 49.8937C42.3537 48.9094 41.6261 47.1302 43.2473 47.1176C44.46 47.105 44.0132 48.8211 44.0132 49.7801C44.0515 58.4489 44.0388 67.1176 44.0388 75.7864C44.0388 77.2501 43.9749 78.7391 44.5621 80.1145C45.4812 82.2217 48.3534 82.575 49.7832 80.7832C50.6257 79.7233 50.6257 78.4615 50.6257 77.1996C50.6257 70.1839 50.6257 63.1933 50.6384 56.1902ZM13.1722 82.1839C13.1722 82.2217 13.1722 82.2596 13.1722 82.2974C15.3934 82.1839 17.6145 82.1586 19.8102 81.9189C22.5547 81.6287 23.9078 80.0261 23.8951 77.288C23.8823 74.7896 23.844 72.2911 23.9206 69.7927C23.9589 68.2028 23.3334 67.5467 21.6994 67.5593C16.938 67.6097 12.1765 67.5214 7.41504 67.5971C4.61943 67.6476 2.84505 69.1113 2.43656 71.8873C1.61958 77.3385 2.56422 80.6444 5.30876 81.6161C6.38105 81.9946 7.58099 82.0829 8.74263 82.146C10.2106 82.247 11.6914 82.1839 13.1722 82.1839ZM71.5097 16.5056C72.5693 16.5056 73.6288 16.5056 74.6883 16.5056C83.2538 16.5056 84.0963 15.635 83.8538 7.16811C83.7645 3.84949 82.2837 2.04508 78.9136 1.88104C75.0074 1.67915 71.0757 1.72962 67.1568 1.88104C65.0377 1.95675 62.9697 2.92836 62.5995 5.12394C61.9996 8.60659 61.3102 12.5687 62.8293 15.5593C64.0165 17.8937 67.8972 16.1271 70.5523 16.5056C70.8715 16.5435 71.1906 16.5056 71.5097 16.5056ZM51.9277 10.3984C51.8639 5.80533 47.7662 1.83057 43.1324 1.8558C38.4093 1.88104 34.1967 6.17126 34.3754 10.7896C34.5541 15.4079 38.6263 19.1681 43.375 19.0924C48.0981 19.0041 51.9916 15.0545 51.9277 10.3984Z" fill="#F0B31D"/>
<path d="M15.4856 0.151336C23.7448 0.201809 30.3061 6.66238 30.2295 14.6498C30.153 22.7633 23.3363 29.3879 15.1409 29.2996C7.1626 29.2113 0.35868 22.4731 0.320384 14.6245C0.294854 6.56143 7.07324 0.0882447 15.4856 0.151336ZM15.3707 27.2554C17.8982 27.3564 20.1705 26.5362 22.2767 25.2491C24.983 23.5835 24.8936 23.0914 22.4299 21.0599C20.8343 19.7349 19.4556 19.5204 17.5791 20.4794C15.1282 21.7286 12.8049 21.022 10.8645 19.2554C8.88592 17.451 8.46466 15.1671 9.23058 12.6687C9.77949 10.8517 11.0305 9.65291 12.7283 8.82011C15.5111 7.45733 14.6431 4.75701 14.0176 3.06616C13.341 1.22389 11.2347 2.57405 9.90714 3.15449C4.54571 5.51411 1.39267 11.6845 2.63091 17.0977C4.03509 23.2176 9.12846 27.2807 15.3707 27.2554ZM21.6385 15.3438C21.6002 15.8611 21.447 16.4037 21.5364 16.9084C21.8938 19.0788 23.9235 19.6845 25.4553 20.6687C26.2723 21.1987 26.6808 20.2775 27.051 19.634C30.5614 13.5015 25.9276 3.74755 18.8301 2.43525C18.0642 2.29645 17.1196 1.93052 16.5196 2.86427C15.6643 4.18919 16.6472 8.10086 18.1152 8.89582C20.7704 10.3091 21.881 12.4542 21.6385 15.3438ZM15.3452 10.246C12.9453 10.2334 10.839 12.2018 10.7752 14.5236C10.7114 16.8958 13.0091 19.1166 15.4601 19.0535C17.7833 18.9905 19.9024 16.8327 19.8896 14.574C19.8513 12.2901 17.7451 10.2586 15.3452 10.246Z" fill="#F0B31D"/>
<path d="M70.923 75.7477C66.7743 75.7477 62.6383 75.7604 58.4896 75.7351C57.7747 75.7351 56.8428 75.937 56.562 75.0411C56.2429 74.0443 57.1492 73.8676 57.8513 73.6657C59.1406 73.2998 58.8981 72.2398 58.9108 71.3439C58.9491 68.732 58.8598 66.12 58.9747 63.508C59.0129 62.4985 58.2853 60.732 59.9193 60.6563C61.6937 60.5805 60.9533 62.3723 60.9916 63.3566C61.0937 66.0695 61.0171 68.7824 61.0426 71.4954C61.0426 72.5301 60.915 73.6405 62.5489 73.6783C64.1574 73.7162 64.5531 72.8077 64.5659 71.508C64.5786 67.5458 64.5659 63.5711 64.6297 59.6089C64.6425 58.8897 64.2595 57.6531 65.5616 57.7162C66.519 57.7667 66.2892 58.8518 66.2892 59.5332C66.3275 63.2935 66.2892 67.0537 66.3402 70.814C66.353 72.1263 66.136 73.7036 68.2806 73.6783C70.3869 73.6531 69.8252 72.0884 69.8635 70.9528C69.9401 68.7572 69.8507 66.5616 69.9018 64.3786C69.9273 63.4323 69.4805 61.9181 71.0251 61.9433C72.3399 61.9686 71.8932 63.3944 71.9187 64.2398C71.9825 66.6373 71.957 69.0474 71.957 71.4449C71.957 72.7193 72.174 73.7036 73.8335 73.7036C75.6079 73.7036 75.5568 72.5427 75.5568 71.3692C75.5568 66.5616 75.5058 61.7667 75.6079 56.9591C75.6334 55.8613 74.842 53.8298 76.5142 53.8298C78.5567 53.8298 77.5482 55.9622 77.5865 57.1105C77.7142 61.6026 77.5993 66.0947 77.6631 70.5742C77.6886 71.8613 76.961 73.7793 79.5141 73.6783C81.7097 73.59 81.2246 71.9118 81.2374 70.6626C81.2884 64.8203 81.2374 58.9654 81.2884 53.1231C81.3012 52.2146 80.7268 50.6499 82.3607 50.713C83.5607 50.7509 83.2798 52.1515 83.2926 53.0474C83.3181 59.0033 83.2798 64.9465 83.3309 70.9023C83.3437 71.8487 82.8203 73.0853 84.1862 73.6405C84.9138 73.9433 86.1393 73.8802 85.6414 75.1168C85.2585 76.0884 84.1606 75.7225 83.3564 75.7225C79.2077 75.7603 75.0717 75.7477 70.923 75.7477Z" fill="#F0B31D"/>
<path d="M68.206 81.3502C65.4615 81.3502 62.7042 81.4511 59.9596 81.2997C58.7852 81.2366 56.6406 82.2461 56.6406 80.2524C56.6406 78.5994 58.6958 79.3691 59.8064 79.3565C65.5125 79.2682 71.2186 79.2682 76.9375 79.3691C77.997 79.3817 80.0395 78.5111 79.9629 80.4164C79.8863 82.1073 77.9077 81.2745 76.7843 81.3249C73.9249 81.4385 71.0654 81.3502 68.206 81.3502Z" fill="#F0B31D"/>
<path d="M13.4548 76.7698C15.2419 76.7698 17.0418 76.7698 18.829 76.7698C19.3907 76.7698 19.9779 76.9464 19.9906 77.5521C20.0034 78.1578 19.4034 78.3849 18.8673 78.3849C15.076 78.4102 11.2847 78.4102 7.49337 78.3849C6.95723 78.3849 6.31896 78.183 6.34449 77.5774C6.38279 76.7445 7.14871 76.7572 7.77421 76.7445C9.67624 76.7319 11.5655 76.7319 13.4675 76.7319C13.4548 76.7572 13.4548 76.7572 13.4548 76.7698Z" fill="#F0B31D"/>
<path d="M15.9944 73.3881C14.5775 72.6436 12.0372 74.2587 12.0627 72.0379C12.0755 70.3597 14.5392 71.1546 15.8285 71.243C17.2582 71.3313 19.9389 70.0064 19.9261 72.3155C19.9006 74.1956 17.2071 72.4922 15.9944 73.3881Z" fill="#F0B31D"/>
<path d="M73.1089 7.35635C71.309 7.35635 69.4963 7.36897 67.6964 7.35635C66.9432 7.35635 66.0879 7.31849 66.1262 6.28379C66.1518 5.48884 66.8411 5.35004 67.5177 5.35004C71.2324 5.33742 74.9471 5.33742 78.6618 5.35004C79.3256 5.35004 80.0149 5.45099 80.066 6.27118C80.1298 7.31849 79.2873 7.35635 78.5214 7.35635C76.7215 7.36897 74.9088 7.35635 73.1089 7.35635Z" fill="#F0B31D"/>
<path d="M70.351 13.0852C68.9596 12.5174 66.3682 13.9054 66.3172 12.0253C66.2661 9.98111 68.8319 11.0537 70.185 11.0158C71.5765 10.978 74.1551 10.0821 74.1934 11.8865C74.2317 13.9685 71.6531 12.4669 70.351 13.0852Z" fill="#F0B31D"/>
</g>
<defs>
<clipPath id="clip0">
<rect width="86" height="84" fill="white"/>
</clipPath>
</defs>
</svg>
