<svg width="60" height="59" viewBox="0 0 60 59" fill="none" xmlns="http://www.w3.org/2000/svg">
<g clip-path="url(#clip0)">
<path d="M59.9906 26.1851C59.7996 33.2058 57.386 39.3251 52.4287 44.387C51.4824 45.3577 50.9094 46.2331 51.0483 47.75C51.2219 49.7002 50.5795 51.6157 49.1123 53.0545C44.4762 57.579 37.5741 60.708 30.3682 57.995C28.354 57.2409 26.6524 56.1662 25.1505 54.6667C18.3266 47.8453 11.6502 40.8766 4.59193 34.3066C-0.44352 29.6175 -1.71975 20.4472 2.69061 13.9899C3.66298 12.5771 4.73084 11.1902 5.94629 9.98546C7.7087 8.24328 9.99202 7.81857 12.3795 8.19127C13.6384 8.39063 14.5066 8.09593 15.4442 7.22051C30.4985 -6.73424 54.5731 0.555165 59.2613 20.4472C59.7041 22.328 60.0513 24.2349 59.9906 26.1851ZM35.421 57.2323C40.6909 57.1543 44.6759 54.9874 47.9749 51.5724C49.8415 49.6395 49.8936 46.6319 48.2267 44.4216C46.7161 42.4108 44.9276 40.6166 42.8527 39.1518C40.7517 37.6609 38.5899 37.6523 36.4195 39.1258C34.9696 40.1052 33.8496 41.4227 32.6081 42.6274C30.5679 44.6036 30.5853 44.621 28.5016 42.5581C24.7685 38.8571 21.0266 35.1734 17.3195 31.4463C13.8902 27.9966 13.9162 28.9501 17.3195 25.4744C18.6217 24.1482 20.2018 22.9954 20.688 21.0886C21.7993 16.7201 18.3439 14.6919 15.9391 12.1263C14.1159 10.1761 11.9281 9.33539 9.30615 10.0895C6.81448 10.8089 5.63375 12.9931 4.24466 14.8913C0.606979 19.8491 1.03239 28.586 5.85079 33.0238C12.9438 39.5505 19.6201 46.5192 26.4006 53.3752C29.0312 56.0101 32.2435 56.9202 35.421 57.2323ZM33.6065 8.65932C29.4132 8.52064 25.8537 10.0461 22.572 12.4644C21.2436 13.4438 20.5404 14.3279 21.808 15.9054C22.5199 16.7895 22.6327 17.9943 22.7022 19.1644C22.8932 22.3974 21.0874 24.5903 18.8561 26.4885C17.25 27.8493 17.0503 28.8114 18.7693 30.3455C21.7125 32.9805 24.4212 35.8841 27.2167 38.6837C30.5071 41.9687 30.5071 41.9687 33.9625 38.7444C37.2008 35.7281 40.7517 35.3034 44.1202 37.843C45.5093 38.8917 46.1518 38.519 47.0634 37.4009C51.5953 31.793 52.585 25.5784 49.6592 19.0864C46.6206 12.3257 41.0382 8.95402 33.6065 8.65932ZM34.414 1.75995C27.4772 1.9073 21.8948 3.87484 17.1632 8.04393C16.6683 8.4773 15.8696 8.85001 16.2429 9.77744C17.1545 12.0657 19.516 12.6637 21.3999 11.1382C25.9058 7.4892 31.0975 6.05906 36.7841 7.10783C51.6647 9.85544 58.5581 27.1992 48.0444 38.9784C45.9781 41.2926 48.8344 41.83 49.5898 43.0088C50.5621 44.5256 51.3348 43.0175 51.8557 42.3848C58.2282 34.7486 60.1642 26.1331 56.2227 16.9455C52.0988 7.34186 44.3546 2.33201 34.414 1.75995Z" fill="#F0B31D"/>
<path d="M39.9109 19.3721C40.8746 19.5974 41.2653 20.3168 41.3087 21.2443C41.3608 22.3104 41.3087 23.3851 41.3434 24.4599C41.3695 25.2833 41.1437 26.1761 42.0814 26.7655C42.5849 27.0775 42.6544 27.6756 42.1595 28.031C41.4129 28.577 41.3174 29.2877 41.3174 30.1025C41.3174 30.6746 41.0222 31.0819 40.4145 31.0819C39.9283 31.0819 39.5202 30.7266 39.555 30.2845C39.7633 28.1263 38.2787 28.317 36.8897 28.2823C34.0681 28.213 33.8944 27.9269 35.2314 25.5087C36.1343 23.8792 37.0807 22.2757 38.0357 20.6895C38.435 20.0048 38.9472 19.3981 39.9109 19.3721ZM39.1903 23.1338C38.2093 24.0092 37.1761 24.876 37.4366 26.2628C37.5234 26.7135 38.3742 26.7222 38.7823 26.4621C40.1453 25.5954 39.2337 24.3126 39.1903 23.1338Z" fill="#F0B31D"/>
<path d="M29.3449 31.5582C28.6504 31.3935 27.27 32.1476 26.6449 31.0989C25.9156 29.8767 27.296 29.0706 27.8777 28.1519C28.7198 26.8171 29.7009 25.5776 30.5517 24.2515C31.1334 23.3414 31.3591 22.3446 30.2999 21.5906C29.2234 20.8191 28.4507 21.3479 27.7822 22.2926C27.4523 22.7607 27.1397 23.6448 26.3236 23.012C25.7246 22.544 25.9764 21.8419 26.2802 21.2439C27.0703 19.6924 29.0931 18.999 30.6993 19.7357C32.5398 20.5765 33.3299 22.466 32.4443 24.4162C31.8626 25.7076 31.0031 26.8864 30.161 28.0392C29.2755 29.244 29.1886 29.9547 30.9945 29.9374C31.4199 29.9374 31.8626 29.9807 32.2794 30.0501C32.7482 30.1368 33.0868 30.4054 33.0086 30.9255C32.9565 31.3329 32.6266 31.5322 32.2446 31.5409C31.4025 31.5756 30.5343 31.5582 29.3449 31.5582Z" fill="#F0B31D"/>
</g>
<defs>
<clipPath id="clip0">
<rect width="60" height="59" fill="white"/>
</clipPath>
</defs>
</svg>
