<svg width="88" height="81" viewBox="0 0 88 81" fill="none" xmlns="http://www.w3.org/2000/svg">
<g clip-path="url(#clip0)">
<path d="M50.3426 0.0508007C56.9493 0.0508007 63.5688 0.0381227 70.1755 0.0508007C74.2087 0.0508007 74.4008 0.240971 74.4008 4.0951C74.4136 13.4388 74.388 22.7825 74.4264 32.1389C74.4264 33.001 73.9142 34.2308 75.0409 34.6492C75.8988 34.9661 76.4366 33.8758 77.0767 33.3814C80.2649 30.9091 83.5938 30.7824 86.0393 33.0771C88.5233 35.4099 88.7025 39.6063 86.3082 42.4842C81.4428 48.3288 76.539 54.148 71.5839 59.9165C68.0373 64.0495 63.1335 64.9497 58.012 65.0131C51.5077 65.1018 45.0034 65.0131 38.4991 65.0511C32.8911 65.0765 30.5608 66.9908 28.9731 72.2269C27.8208 76.043 24.4534 78.2363 21.6238 80.7212C20.7019 81.5326 19.652 80.5817 18.871 79.821C12.9941 74.0272 7.11719 68.2333 1.21468 62.4521C-0.0144815 61.2477 -0.603453 60.056 0.932994 58.7248C3.90346 56.1384 6.08009 52.4238 10.6638 52.0688C11.8418 51.98 12.3539 50.8771 12.8917 49.9769C15.5164 45.6537 19.2423 42.611 24.1333 41.2037C26.31 40.5698 26.9246 39.4795 26.9117 37.3749C26.8349 26.1422 26.9502 14.8968 26.8221 3.66404C26.7965 0.887551 27.744 -0.0125895 30.5224 0.0508007C37.1163 0.152225 43.7358 0.0508007 50.3426 0.0508007ZM50.6883 2.75122C44.6193 2.75122 38.5503 2.7639 32.4814 2.73855C30.8809 2.73855 29.5621 2.7639 29.5749 4.98256C29.6389 15.8857 29.6133 26.7888 29.5877 37.6919C29.5877 39.1118 30.0999 39.5049 31.5467 39.8472C39.8051 41.7869 48.1659 41.7615 56.5652 41.6348C59.6125 41.5841 62.8006 41.1023 65.3485 43.4731C65.7839 43.8788 66.3984 43.9802 66.7825 43.5491C68.7287 41.3558 71.7632 40.012 71.7248 36.31C71.5967 26.1422 71.6224 15.9744 71.7248 5.80663C71.7504 3.47387 70.931 2.68783 68.5751 2.72587C62.6213 2.82729 56.6548 2.75122 50.6883 2.75122ZM48.3196 62.3507C48.3196 62.338 48.3196 62.338 48.3196 62.3507C52.0455 62.338 55.7841 62.4014 59.51 62.3253C63.492 62.2366 67.0898 61.0702 69.7402 57.9641C74.5416 52.335 79.2662 46.6553 84.042 41.0135C85.668 39.0865 86.2954 37.02 84.234 35.169C82.211 33.3433 80.1368 33.9899 78.3443 35.8155C75.297 38.909 72.2497 41.9898 69.1768 45.0452C68.1013 46.1228 67.4355 47.2385 67.2563 48.8486C66.9746 51.4222 65.3869 53.7423 62.8518 54.11C57.1669 54.9467 51.3669 54.4016 45.618 54.3762C45.0546 54.3762 44.5681 54.0466 44.44 53.4887C44.2608 52.7407 44.7857 52.2463 45.4131 52.0815C46.2198 51.8659 47.0776 51.7772 47.9227 51.7772C51.8662 51.7392 55.8098 51.7899 59.7533 51.7518C62.8902 51.7138 64.7724 50.2939 64.5419 47.9865C64.2602 45.0959 62.2628 44.2211 59.574 44.2972C57.7687 44.3479 55.9506 44.3225 54.1325 44.2972C47.3465 44.2084 40.6245 44.5127 33.8642 42.7378C27.3087 41.0135 18.9222 45.0832 15.5677 50.5601C14.9787 51.5236 14.2105 52.3604 15.478 53.5521C19.4216 57.2414 23.2883 61.0068 27.091 64.8229C28.1921 65.9386 28.9988 65.7864 30.0487 64.8863C32.4302 62.8578 35.2598 62.2239 38.3583 62.3253C41.7129 62.4268 45.0162 62.3507 48.3196 62.3507ZM11.0223 54.6678C7.91102 54.9087 6.34897 57.1907 4.41561 58.9276C3.31449 59.9165 3.3529 60.7786 4.41561 61.8055C9.48588 66.7246 14.5049 71.6817 19.5624 76.6262C20.0874 77.1333 20.5995 77.5897 21.5086 77.222C26.6301 75.1682 27.9489 69.3616 24.1077 65.4822C21.2141 62.5662 18.2436 59.7137 15.3244 56.8231C14.0824 55.5806 12.6356 54.8072 11.0223 54.6678Z" fill="#F0B31D"/>
<path d="M50.7799 26.8775C45.5176 26.9282 41.8045 23.7587 40.7802 18.6367C40.3577 16.5575 40.9851 14.2248 39.2438 12.3991C38.7956 11.9174 39.2822 11.0299 39.948 10.9285C41.4844 10.7003 43.1233 10.2312 44.5189 11.3088C45.1463 11.7906 44.6853 12.3738 44.3396 12.9443C42.4959 15.9363 42.9056 19.5369 45.3127 22.0471C47.6558 24.494 51.0744 25.0645 54.0449 23.5178C57.0153 21.9711 58.8847 17.8761 58.078 14.6432C58.0012 14.3389 57.9116 14.0346 57.7579 13.7684C57.3226 13.0204 55.9526 12.6147 56.6696 11.461C57.425 10.2439 58.795 10.7383 59.8962 10.7383C62.1112 10.7383 63.0971 11.3722 61.279 13.4895C60.165 14.7953 60.6644 16.5195 60.5107 18.0409C59.973 23.3149 56.1575 26.8268 50.7799 26.8775Z" fill="#F0B31D"/>
</g>
<defs>
<clipPath id="clip0">
<rect width="88" height="81" fill="white"/>
</clipPath>
</defs>
</svg>
