<svg width="68" height="52" viewBox="0 0 68 52" fill="none" xmlns="http://www.w3.org/2000/svg">
<path d="M57.873 0.142578C60.8353 0.142578 62.3164 0.735026 62.3164 1.91992C62.3164 2.42773 61.8509 2.85091 60.9199 3.18945C53.1335 6.32096 49.2402 12.4147 49.2402 21.4707C50.4251 21.3014 51.2715 21.2168 51.7793 21.2168C61.9355 21.2168 67.0137 26.2949 67.0137 36.4512C67.0137 46.5228 61.9355 51.5586 51.7793 51.5586C40.015 51.5586 34.1328 45.084 34.1328 32.1348C34.1328 18.1699 39.7611 8.14062 51.0176 2.04688C53.3874 0.777344 55.6725 0.142578 57.873 0.142578ZM24.7383 0.523438C27.7005 0.523438 29.1816 1.11589 29.1816 2.30078C29.1816 2.80859 28.7161 3.23177 27.7852 3.57031C19.9987 6.70182 16.1055 12.7956 16.1055 21.8516C17.2904 21.6823 18.1367 21.5977 18.6445 21.5977C28.8008 21.5977 33.8789 26.6758 33.8789 36.832C33.8789 46.9036 28.8008 51.9395 18.6445 51.9395C6.88021 51.9395 0.998047 45.4648 0.998047 32.5156C0.998047 18.5508 6.6263 8.52148 17.8828 2.42773C20.2526 1.1582 22.5378 0.523438 24.7383 0.523438Z" fill="#F0B31D"/>
</svg>
