<svg width="81" height="62" viewBox="0 0 81 62" fill="none" xmlns="http://www.w3.org/2000/svg">
<path opacity="0.5" d="M59.5195 61.9629C55.9714 61.9629 52.7975 60.8887 49.998 58.7402C47.2311 56.5918 45.3757 53.8086 44.4316 50.3906C43.7806 48.0143 43.4551 45.5078 43.4551 42.8711C43.4551 38.8672 44.2363 34.8145 45.7988 30.7129C47.3613 26.5788 49.5098 22.6888 52.2441 19.043C54.9785 15.3971 58.1361 11.9954 61.7168 8.83789C65.3301 5.64779 69.2038 2.84831 73.3379 0.439453L80.418 7.51953C73.0612 13.4115 68.0319 17.9688 65.3301 21.1914C62.6608 24.4141 61.2773 27.6204 61.1797 30.8105C65.151 31.2663 68.4714 32.9753 71.1406 35.9375C73.8099 38.8997 75.1445 42.3665 75.1445 46.3379C75.1445 50.6673 73.6146 54.362 70.5547 57.4219C67.5273 60.4492 63.849 61.9629 59.5195 61.9629ZM16.5508 61.9629C13.0026 61.9629 9.82878 60.8887 7.0293 58.7402C4.26237 56.5918 2.4069 53.8086 1.46289 50.3906C0.811849 48.0143 0.486328 45.5078 0.486328 42.8711C0.486328 38.8672 1.26758 34.8145 2.83008 30.7129C4.39258 26.5788 6.54102 22.6888 9.27539 19.043C12.0098 15.3971 15.1673 11.9954 18.748 8.83789C22.3613 5.64779 26.235 2.84831 30.3691 0.439453L37.4492 7.51953C30.0924 13.4115 25.0632 17.9688 22.3613 21.1914C19.6921 24.4141 18.3086 27.6204 18.2109 30.8105C22.1823 31.2663 25.5026 32.9753 28.1719 35.9375C30.8411 38.8997 32.1758 42.3665 32.1758 46.3379C32.1758 50.6673 30.6458 54.362 27.5859 57.4219C24.5586 60.4492 20.8802 61.9629 16.5508 61.9629Z" fill="#D5D5D5"/>
</svg>
