<svg width="154" height="38" viewBox="0 0 154 38" fill="none" xmlns="http://www.w3.org/2000/svg">
<path fill-rule="evenodd" clip-rule="evenodd" d="M146.014 19.9584C146.498 19.7227 147.001 19.487 147.524 19.2464C155.129 15.7601 155.573 6.9119 148.906 2.95425C145.195 0.749552 140.744 -0.193213 136.525 0.0326581C134.556 0.307631 132.764 1.29459 132.049 3.22922C130.879 6.39632 129.71 12.3132 134.146 15.0383C136.421 16.477 138.883 16.9091 141.079 18.1662C141.696 17.2136 141.978 16.1873 142.412 16.4967C142.644 16.5212 145.718 18.1858 145.871 18.3724C146.325 18.721 146.271 19.3397 146.014 19.9584ZM134.674 7.56987C138.474 5.29643 141.81 11.2771 137.872 13.4327C134.136 15.4753 130.672 9.96115 134.674 7.56987Z" fill="white"/>
<path fill-rule="evenodd" clip-rule="evenodd" d="M125.546 31.689C122.576 21.0583 126.168 6.07721 131.034 1.03931C127.629 2.16375 124.757 4.18677 123.094 7.0347C120.602 11.3262 120.612 17.5966 121.687 22.6836C122.062 24.7017 123.617 28.4384 125.546 31.689Z" fill="white"/>
<path fill-rule="evenodd" clip-rule="evenodd" d="M137.524 19.6538C129.88 19.5164 131.321 25.7524 134.771 29.435C135.338 26.7442 137.717 24.3579 144.038 21.1809C142.661 20.5819 140.223 19.7029 137.524 19.6538Z" fill="white"/>
<path fill-rule="evenodd" clip-rule="evenodd" d="M134.533 31.2813C132.293 29.9458 130.324 27.6625 129.258 25.9979C127.116 22.6639 126.712 30.0292 128.468 35.7496L128.473 35.7546C131.597 39.4863 135.609 37.4879 134.928 34.0212C134.721 33.0392 134.568 32.1357 134.533 31.2813Z" fill="white"/>
<path fill-rule="evenodd" clip-rule="evenodd" d="M72.3306 12.0427H71.0673H70.1643H69.582H65.9747C65.2147 12.0427 62.6339 11.8119 61.1288 14.4045L59.3474 17.1886C59.1056 17.5667 58.8687 18.7108 60.3491 18.7108H61.1189H61.7012H65.2937L63.4234 21.6225L64.0255 21.6373H64.5041C66.9616 21.6225 67.8351 19.9432 67.9881 19.6977L72.908 12.0377H72.3306V12.0427ZM86.5722 13.6729H82.0471C81.5339 13.6925 80.7937 13.5845 79.8857 14.4339L80.8282 12.9363C81.1589 12.4257 81.4303 11.5369 83.4239 11.5369L84.3664 10.0049H87.0213L86.0788 11.5369H87.8947L86.5722 13.6729ZM49.2016 17.9546H53.5589C54.7334 17.9546 55.0739 17.8564 55.6957 17.4685L54.5212 19.354C54.1412 19.8696 53.707 20.0905 52.3499 20.0905L51.4074 21.6225H48.7525L49.695 20.0905H47.879L49.2016 17.9546ZM90.446 19.0005C90.3078 19.4375 90.9148 19.516 91.4626 19.5111L97.932 19.4866L96.5503 21.6274C94.4875 21.6274 92.4298 21.6274 90.3671 21.6274C89.1334 21.6274 89.5676 20.12 90.446 19.0005ZM100.034 17.9546H104.559C105.073 17.9349 105.813 18.043 106.721 17.1935L105.778 18.6911C105.448 19.2018 105.176 20.0905 103.183 20.0905L102.24 21.6225H99.5851L100.528 20.0905H98.7117L100.034 17.9546ZM23.763 12.1409H21.1082L22.5392 10H25.1941L23.763 12.1409ZM9.83724 14.1835H4.45839C3.27405 14.1835 2.7263 13.3684 3.67377 12.0427H11.2634L9.83724 14.1835ZM104.495 17.1935H103.37H99.4075C99.2496 17.4439 98.3169 18.7255 95.9334 18.7255H95.0995L91.6007 18.7108C91.0332 18.7108 90.7174 18.2836 90.7174 17.9006C90.2486 18.6371 89.5627 18.7058 88.7287 18.7058H87.7171H73.9196C73.1399 19.9187 73.51 19.3442 73.0462 20.0463C72.6711 20.5767 71.8223 21.485 70.1692 21.6225H69.2958H68.7135L74.872 12.0377H75.4543H77.6207H78.2029L75.2915 16.5699H89.084L91.9856 12.0377H92.5679H94.7343H95.3166L92.415 16.5699H96.4713L99.3729 12.0377H99.9552H102.122H102.704L100.774 15.0526H104.727L106.657 12.0377H107.239H109.405H109.988L107.88 15.3276H107.875C107.175 16.4521 105.921 17.1935 104.495 17.1935ZM27.395 13.0885H20.4864L19.0553 15.2294H24.1134C24.5871 15.2294 25.7073 15.1459 24.5625 16.5797H18.6161H17.9647H15.2802L18.1819 12.0476H17.5996H15.4332H14.8509L11.9493 16.5797H11.5052H11.0265H8.23839H3.91063H0.648779L0.234262 17.1984C-0.323362 18.0724 0.204653 18.7157 0.875776 18.7157H2.4845H6.81225H9.60037H10.079H10.5824H11.1647H12.0875C12.7882 18.6911 13.3705 18.5585 13.785 17.9104C13.785 18.2688 14.0564 18.6617 14.5548 18.7157H16.5386H17.19H23.1906H23.7729H24.1282H25.9393H26.5216L28.7718 15.2049C29.6403 13.884 28.7915 13.0885 27.395 13.0885ZM36.6476 10H37.2299L31.6586 18.7108H31.0763H28.91H28.3277L33.899 10H34.4813H36.6476ZM44.3507 12.0427H43.5266H37.8073L36.3762 14.1835H42.1548L40.625 16.5748H34.9747L33.5437 18.7157H39.2581H39.8404H40.3832C41.7748 18.7157 42.9986 18.0086 43.7191 16.9382L45.5005 14.1639C45.7966 13.609 46.823 12.0427 44.3507 12.0427ZM58.6614 12.0427H59.2437L57.0724 15.416C56.352 16.4864 55.1282 17.1935 53.7366 17.1935H53.1938H52.6115H48.6489L46.9464 19.845C46.2259 20.9155 45.0021 21.6225 43.6105 21.6225H43.0677H42.4854L48.6094 12.0377H49.1917H51.358H51.9403L50.0158 15.0526H53.9833L55.9128 12.0377H56.4951H58.6614V12.0427ZM68.2052 14.1835L66.6656 16.5748H63.0681L64.5979 14.1835H68.2052Z" fill="white"/>
<path fill-rule="evenodd" clip-rule="evenodd" d="M53 30.4806V26.2185H54.3867C54.9097 26.2185 55.2552 26.2381 55.4131 26.2823C55.6598 26.3462 55.8621 26.4837 56.0299 26.6997C56.1977 26.9158 56.2767 27.1907 56.2767 27.5295C56.2767 27.7898 56.2273 28.0107 56.1336 28.1875C56.0398 28.3643 55.9164 28.5067 55.7684 28.6098C55.6203 28.7129 55.4723 28.7767 55.3193 28.8111C55.1121 28.8504 54.816 28.8749 54.4261 28.8749H53.8636V30.4806H53V30.4806ZM53.8685 26.9354V28.1482H54.3422C54.6827 28.1482 54.9097 28.1237 55.0232 28.0795C55.1367 28.0353 55.2256 27.9666 55.2946 27.8683C55.3588 27.7751 55.3933 27.6621 55.3933 27.5345C55.3933 27.3773 55.3489 27.2497 55.2552 27.1514C55.1614 27.0483 55.0479 26.9845 54.9097 26.9599C54.8061 26.9403 54.5989 26.9305 54.288 26.9305H53.8685V26.9354ZM57.7225 26.9747V26.2185H58.5417V26.9747H57.7225ZM57.7225 30.4806V27.3921H58.5417V30.4806H57.7225ZM59.9284 28.8946C59.9284 28.6245 59.9974 28.3594 60.1307 28.104C60.2639 27.8487 60.4564 27.6572 60.7031 27.5197C60.9498 27.3871 61.2213 27.3184 61.5272 27.3184C61.996 27.3184 62.3809 27.4706 62.6819 27.7751C62.983 28.0795 63.131 28.4625 63.131 28.929C63.131 29.3954 62.978 29.7833 62.677 30.0927C62.376 30.402 61.9911 30.5542 61.5321 30.5542C61.2459 30.5542 60.9795 30.4904 60.7179 30.3627C60.4613 30.2351 60.2639 30.0485 60.1307 29.7981C59.9974 29.5526 59.9284 29.253 59.9284 28.8946ZM60.7722 28.9388C60.7722 29.2432 60.8462 29.4789 60.9893 29.6409C61.1374 29.803 61.315 29.8865 61.5272 29.8865C61.7394 29.8865 61.922 29.803 62.0651 29.6409C62.2082 29.4789 62.2822 29.2432 62.2822 28.929C62.2822 28.6245 62.2082 28.3937 62.0651 28.2317C61.922 28.0697 61.7394 27.9862 61.5272 27.9862C61.315 27.9862 61.1324 28.0697 60.9893 28.2317C60.8462 28.3987 60.7722 28.6343 60.7722 28.9388ZM67.3354 30.4806H66.5162V28.9044C66.5162 28.5705 66.4965 28.3545 66.4619 28.2563C66.4274 28.158 66.3682 28.0844 66.2892 28.0304C66.2103 27.9764 66.1116 27.9469 66.003 27.9469C65.8599 27.9469 65.7316 27.9862 65.6181 28.0648C65.5046 28.1433 65.4256 28.2464 65.3862 28.3741C65.3418 28.5018 65.322 28.7375 65.322 29.0812V30.4757H64.5028V27.3871H65.2628V27.8389C65.5342 27.4903 65.8747 27.3184 66.2892 27.3184C66.4718 27.3184 66.6346 27.3528 66.7876 27.4166C66.9406 27.4804 67.0541 27.5639 67.1281 27.667C67.2071 27.7701 67.2614 27.8831 67.291 28.0107C67.3206 28.1384 67.3354 28.3201 67.3354 28.5607V30.4806V30.4806ZM70.7009 29.5035L71.52 29.6409C71.4164 29.9405 71.2486 30.1663 71.0216 30.3235C70.7946 30.4806 70.5084 30.5592 70.1679 30.5592C69.63 30.5592 69.2303 30.3824 68.9688 30.0338C68.7665 29.7539 68.6628 29.3954 68.6628 28.9682C68.6628 28.4576 68.7961 28.0549 69.0675 27.7652C69.3339 27.4755 69.6744 27.3282 70.084 27.3282C70.543 27.3282 70.9081 27.4804 71.1746 27.7849C71.4411 28.0893 71.5694 28.5558 71.5546 29.1794H69.5017C69.5067 29.42 69.5757 29.6115 69.6991 29.7441C69.8225 29.8766 69.9804 29.9454 70.1679 29.9454C70.2962 29.9454 70.4048 29.911 70.4887 29.8423C70.5923 29.7686 70.6565 29.6557 70.7009 29.5035ZM70.7502 28.6736C70.7453 28.4379 70.6811 28.2563 70.5676 28.1335C70.4492 28.0107 70.311 27.9469 70.1432 27.9469C69.9656 27.9469 69.8175 28.0107 69.6991 28.1433C69.5807 28.271 69.5264 28.4527 69.5264 28.6736H70.7502V28.6736ZM74.7671 29.5035L75.5862 29.6409C75.4826 29.9405 75.3148 30.1663 75.0878 30.3235C74.8608 30.4806 74.5746 30.5592 74.2341 30.5592C73.6962 30.5592 73.2965 30.3824 73.035 30.0338C72.8327 29.7539 72.729 29.3954 72.729 28.9682C72.729 28.4576 72.8623 28.0549 73.1337 27.7652C73.4002 27.4755 73.7407 27.3282 74.1502 27.3282C74.6092 27.3282 74.9743 27.4804 75.2408 27.7849C75.5073 28.0893 75.6356 28.5558 75.6208 29.1794H73.5679C73.5729 29.42 73.642 29.6115 73.7653 29.7441C73.8887 29.8766 74.0466 29.9454 74.2341 29.9454C74.3624 29.9454 74.471 29.911 74.5549 29.8423C74.6585 29.7686 74.7227 29.6557 74.7671 29.5035ZM74.8164 28.6736C74.8115 28.4379 74.7473 28.2563 74.6338 28.1335C74.5154 28.0107 74.3772 27.9469 74.2095 27.9469C74.0318 27.9469 73.8838 28.0107 73.7653 28.1433C73.6469 28.271 73.5926 28.4527 73.5926 28.6736H74.8164V28.6736ZM77.8217 30.4806H77.0025V27.3921H77.7625V27.8291C77.8908 27.6228 78.0092 27.4853 78.1178 27.4215C78.2214 27.3577 78.3398 27.3233 78.4731 27.3233C78.6606 27.3233 78.8432 27.3724 79.0159 27.4755L78.7593 28.1875C78.6211 28.0991 78.4928 28.0549 78.3744 28.0549C78.2609 28.0549 78.1622 28.0844 78.0832 28.1482C78.0043 28.2121 77.9401 28.325 77.8957 28.4919C77.8513 28.6589 77.8266 29.0026 77.8266 29.528V30.4806H77.8217ZM81.7398 27.3921H82.5047V27.8438C82.6034 27.6867 82.7367 27.5639 82.9094 27.4657C83.0772 27.3724 83.2696 27.3233 83.4719 27.3233C83.8322 27.3233 84.1381 27.4657 84.3898 27.7456C84.6415 28.0255 84.7648 28.4183 84.7648 28.9191C84.7648 29.4347 84.6365 29.8374 84.3849 30.1221C84.1332 30.4069 83.8223 30.5493 83.4621 30.5493C83.2894 30.5493 83.1364 30.515 82.9933 30.4462C82.8551 30.3775 82.7071 30.2645 82.5541 30.0976V31.6443H81.7349V27.3921H81.7398ZM82.5491 28.8848C82.5491 29.2334 82.6182 29.4887 82.7564 29.6557C82.8946 29.8226 83.0624 29.9061 83.2597 29.9061C83.4522 29.9061 83.6101 29.8275 83.7335 29.6753C83.8618 29.5231 83.921 29.2727 83.921 28.924C83.921 28.6 83.8568 28.3594 83.7236 28.2022C83.5953 28.0451 83.4325 27.9665 83.24 27.9665C83.0377 27.9665 82.8748 28.0451 82.7416 28.1973C82.6133 28.3545 82.5491 28.5852 82.5491 28.8848ZM86.7683 28.3397L86.0281 28.2072C86.112 27.9076 86.2551 27.6818 86.4624 27.5394C86.6647 27.397 86.9707 27.3233 87.3753 27.3233C87.7405 27.3233 88.0119 27.3675 88.1945 27.451C88.3721 27.5394 88.5004 27.6474 88.5744 27.78C88.6485 27.9125 88.683 28.158 88.683 28.5116L88.6731 29.4642C88.6731 29.7342 88.6879 29.9356 88.7126 30.0632C88.7373 30.1909 88.7866 30.3284 88.8607 30.4757H88.0464C88.0267 30.4217 87.9971 30.3431 87.9675 30.24C87.9527 30.1909 87.9428 30.1614 87.9379 30.1467C87.7997 30.2842 87.6467 30.3873 87.4888 30.456C87.3309 30.5248 87.1582 30.5592 86.9805 30.5592C86.6647 30.5592 86.413 30.4708 86.2255 30.2989C86.0429 30.1271 85.9492 29.911 85.9492 29.6459C85.9492 29.474 85.9886 29.3169 86.0725 29.1794C86.1564 29.0419 86.2749 28.9388 86.4229 28.8651C86.5759 28.7915 86.793 28.7276 87.0743 28.6736C87.4592 28.6 87.7257 28.5361 87.8688 28.4723V28.3888C87.8688 28.2317 87.8293 28.1188 87.7503 28.05C87.6714 27.9813 87.5233 27.9469 87.3062 27.9469C87.1582 27.9469 87.0447 27.9764 86.9657 28.0353C86.8868 28.0942 86.8177 28.1973 86.7683 28.3397ZM87.8688 29.0026C87.7652 29.037 87.5974 29.0812 87.3704 29.1254C87.1434 29.1745 86.9953 29.2236 86.9213 29.2678C86.8127 29.3463 86.7585 29.4396 86.7585 29.5575C86.7585 29.6704 86.8029 29.7686 86.8868 29.8521C86.9707 29.9356 87.0792 29.9748 87.2125 29.9748C87.3605 29.9748 87.5036 29.9257 87.6368 29.8324C87.7355 29.7588 87.7997 29.6704 87.8342 29.5624C87.854 29.4936 87.8638 29.3611 87.8638 29.1646V29.0026H87.8688ZM89.8279 27.3921H90.7013L91.4465 29.582L92.1719 27.3921H93.0206L91.9251 30.3627L91.7277 30.898C91.6537 31.0796 91.5846 31.2122 91.5205 31.3104C91.4563 31.4037 91.3823 31.4823 91.2935 31.5412C91.2096 31.6001 91.106 31.6443 90.9777 31.6787C90.8543 31.7131 90.7112 31.7278 90.5582 31.7278C90.4003 31.7278 90.2473 31.7131 90.0943 31.6787L90.0203 31.0404C90.1486 31.0649 90.2671 31.0796 90.3707 31.0796C90.5631 31.0796 90.7013 31.0256 90.7951 30.9127C90.8888 30.7998 90.9579 30.6574 91.0073 30.4855L89.8279 27.3921ZM94.2296 27.3921H94.9847V27.8143C95.2561 27.4903 95.5768 27.3282 95.9519 27.3282C96.1492 27.3282 96.322 27.3675 96.47 27.451C96.618 27.5344 96.7365 27.6572 96.8302 27.8192C96.9684 27.6523 97.1165 27.5295 97.2744 27.451C97.4323 27.3675 97.6001 27.3282 97.7777 27.3282C98.0047 27.3282 98.1972 27.3724 98.3551 27.4657C98.513 27.559 98.6314 27.6916 98.7104 27.8733C98.7696 28.0058 98.7943 28.217 98.7943 28.5116V30.4855H97.9751V28.7227C97.9751 28.4183 97.9455 28.217 97.8912 28.1286C97.8172 28.0107 97.6988 27.9518 97.5408 27.9518C97.4273 27.9518 97.3188 27.9862 97.2151 28.0549C97.1165 28.1237 97.0424 28.2268 96.998 28.3594C96.9536 28.4919 96.9289 28.708 96.9289 28.9977V30.4806H96.1098V28.7915C96.1098 28.4919 96.095 28.2955 96.0654 28.2121C96.0357 28.1237 95.9913 28.0598 95.9321 28.0157C95.8729 27.9715 95.789 27.9518 95.6804 27.9518C95.5521 27.9518 95.4387 27.9862 95.34 28.0549C95.2363 28.1237 95.1672 28.2219 95.1228 28.3495C95.0784 28.4772 95.0587 28.6884 95.0587 28.983V30.4806H94.2395V27.3921H94.2296ZM102.14 29.5035L102.959 29.6409C102.856 29.9405 102.688 30.1663 102.461 30.3235C102.234 30.4806 101.948 30.5592 101.607 30.5592C101.069 30.5592 100.669 30.3824 100.408 30.0338C100.206 29.7539 100.102 29.3954 100.102 28.9682C100.102 28.4576 100.235 28.0549 100.507 27.7652C100.773 27.4755 101.114 27.3282 101.523 27.3282C101.982 27.3282 102.347 27.4804 102.614 27.7849C102.88 28.0893 103.009 28.5558 102.994 29.1794H100.941C100.946 29.42 101.015 29.6115 101.138 29.7441C101.262 29.8766 101.42 29.9454 101.607 29.9454C101.735 29.9454 101.844 29.911 101.928 29.8423C102.031 29.7686 102.096 29.6557 102.14 29.5035ZM102.189 28.6736C102.184 28.4379 102.12 28.2563 102.007 28.1335C101.888 28.0107 101.75 27.9469 101.582 27.9469C101.405 27.9469 101.257 28.0107 101.138 28.1433C101.02 28.271 100.966 28.4527 100.966 28.6736H102.189V28.6736ZM107.238 30.4806H106.418V28.9044C106.418 28.5705 106.399 28.3545 106.364 28.2563C106.33 28.158 106.27 28.0844 106.191 28.0304C106.112 27.9764 106.014 27.9469 105.905 27.9469C105.762 27.9469 105.634 27.9862 105.52 28.0648C105.407 28.1433 105.328 28.2464 105.288 28.3741C105.244 28.5018 105.224 28.7375 105.224 29.0812V30.4757H104.405V27.3871H105.165V27.8389C105.436 27.4903 105.777 27.3184 106.191 27.3184C106.374 27.3184 106.542 27.3528 106.69 27.4166C106.843 27.4804 106.956 27.5639 107.03 27.667C107.109 27.7701 107.164 27.8831 107.193 28.0107C107.223 28.1384 107.238 28.3201 107.238 28.5607V30.4806ZM110.223 27.3921V28.0402H109.661V29.2923C109.661 29.5476 109.665 29.695 109.675 29.7342C109.685 29.7735 109.71 29.8128 109.749 29.8373C109.789 29.8619 109.833 29.8766 109.888 29.8766C109.966 29.8766 110.075 29.8521 110.218 29.7981L110.287 30.4315C110.095 30.515 109.883 30.5542 109.641 30.5542C109.493 30.5542 109.36 30.5297 109.241 30.4806C109.123 30.4315 109.034 30.3677 108.98 30.2891C108.925 30.2105 108.886 30.1025 108.866 29.9699C108.851 29.8766 108.841 29.6802 108.841 29.3905V28.0402H108.466V27.3921H108.841V26.7783L109.661 26.2971V27.3921H110.223V27.3921Z" fill="white"/>
</svg>
