<svg width="34" height="38" viewBox="0 0 34 38" fill="none" xmlns="http://www.w3.org/2000/svg">
<path fill-rule="evenodd" clip-rule="evenodd" d="M25.7165 19.9601C26.2001 19.7244 26.7035 19.4887 27.2266 19.2481C34.831 15.7618 35.2751 6.91361 28.6083 2.95596C24.8974 0.751261 20.4462 -0.191504 16.227 0.034367C14.2581 0.30934 12.4668 1.2963 11.7512 3.23093C10.5817 6.39803 9.41218 12.3149 13.8485 15.04C16.1234 16.4787 18.5858 16.9108 20.7818 18.1679C21.3986 17.2153 21.6799 16.189 22.1142 16.4984C22.3461 16.5229 25.4204 18.1875 25.5734 18.3741C26.0274 18.7227 25.9731 19.3414 25.7165 19.9601ZM14.3765 7.57158C18.1763 5.29814 21.5121 11.2788 17.5742 13.4344C13.8386 15.4771 10.3745 9.96286 14.3765 7.57158Z" fill="#F0B31D"/>
<path fill-rule="evenodd" clip-rule="evenodd" d="M5.24754 31.6907C2.27683 21.06 5.86931 6.07892 10.735 1.04102C7.32999 2.16546 4.45798 4.18848 2.79498 7.03641C0.30294 11.328 0.31281 17.5983 1.38858 22.6853C1.76362 24.7034 3.31806 28.4401 5.24754 31.6907Z" fill="#A82070"/>
<path fill-rule="evenodd" clip-rule="evenodd" d="M17.2244 19.6557C9.58047 19.5182 11.0214 25.7542 14.4708 29.4369C15.0383 26.7461 17.4168 24.3597 23.7382 21.1828C22.3614 20.5837 19.9237 19.7048 17.2244 19.6557Z" fill="#A82070"/>
<path fill-rule="evenodd" clip-rule="evenodd" d="M14.2332 31.283C11.9928 29.9475 10.0238 27.6642 8.95794 25.9996C6.81627 22.6656 6.41162 30.0309 8.16838 35.7514L8.17332 35.7563C11.297 39.488 15.3089 37.4896 14.6279 34.023C14.4207 33.0409 14.2677 32.1374 14.2332 31.283Z" fill="#F0B31D"/>
</svg>
