<svg width="110" height="64" viewBox="0 0 110 64" fill="none" xmlns="http://www.w3.org/2000/svg">
<path fill-rule="evenodd" clip-rule="evenodd" d="M72.3331 44.3149H71.0698H70.1667H69.5844H65.9771C65.2172 44.3149 62.6363 44.0841 61.1312 46.6767L59.3498 49.4608C59.108 49.8389 58.8711 50.983 60.3515 50.983H61.1214H61.7037H65.2962L63.4259 53.8947L64.0279 53.9095H64.5066C66.9641 53.8947 67.8375 52.2154 67.9905 51.9699L72.9104 44.31H72.3331V44.3149ZM86.5747 45.9451H82.0495C81.5363 45.9647 80.7961 45.8567 79.8881 46.7062L80.8307 45.2085C81.1613 44.6979 81.4327 43.8091 83.4263 43.8091L84.3689 42.2771H87.0238L86.0812 43.8091H87.8972L86.5747 45.9451ZM49.204 50.2268H53.5614C54.7358 50.2268 55.0763 50.1286 55.6981 49.7407L54.5236 51.6262C54.1437 52.1418 53.7094 52.3628 52.3524 52.3628L51.4098 53.8947H48.7549L49.6975 52.3628H47.8815L49.204 50.2268ZM90.4484 51.2727C90.3103 51.7097 90.9173 51.7883 91.465 51.7833L97.9344 51.7588L96.5527 53.8997C94.49 53.8997 92.4322 53.8997 90.3695 53.8997C89.1358 53.8997 89.5701 52.3922 90.4484 51.2727ZM100.037 50.2268H104.562C105.075 50.2072 105.815 50.3152 106.723 49.4657L105.781 50.9633C105.45 51.474 105.179 52.3628 103.185 52.3628L102.242 53.8947H99.5876L100.53 52.3628H98.7141L100.037 50.2268ZM23.7655 44.4131H21.1106L22.5417 42.2722H25.1966L23.7655 44.4131ZM9.83968 46.4557H4.46083C3.27649 46.4557 2.72874 45.6406 3.67621 44.3149H11.2658L9.83968 46.4557ZM104.498 49.4657H103.372H99.4099C99.252 49.7161 98.3193 50.9977 95.9359 50.9977H95.1019L91.6032 50.983C91.0357 50.983 90.7199 50.5558 90.7199 50.1728C90.2511 50.9093 89.5651 50.9781 88.7312 50.9781H87.7195H73.9221C73.1424 52.1909 73.5125 51.6164 73.0486 52.3186C72.6736 52.8489 71.8248 53.7573 70.1717 53.8947H69.2982H68.7159L74.8744 44.31H75.4567H77.6231H78.2054L75.2939 48.8421H89.0865L91.9881 44.31H92.5704H94.7367H95.319L92.4174 48.8421H96.4737L99.3754 44.31H99.9577H102.124H102.706L100.777 47.3248H104.73L106.659 44.31H107.241H109.408H109.99L107.883 47.5998H107.878C107.177 48.7243 105.924 49.4657 104.498 49.4657ZM27.3974 45.3608H20.4888L19.0578 47.5016H24.1158C24.5896 47.5016 25.7098 47.4181 24.5649 48.8519H18.6186H17.9672H15.2827L18.1843 44.3198H17.602H15.4357H14.8534L11.9517 48.8519H11.5076H11.029H8.24083H3.91307H0.65122L0.236703 49.4706C-0.320921 50.3446 0.207095 50.9879 0.878218 50.9879H2.48694H6.81469H9.60281H10.0815H10.5848H11.1671H12.0899C12.7906 50.9633 13.3729 50.8308 13.7875 50.1826C13.7875 50.5411 14.0589 50.9339 14.5573 50.9879H16.541H17.1924H23.1931H23.7754H24.1307H25.9417H26.524L28.7742 47.4771C29.6427 46.1562 28.794 45.3608 27.3974 45.3608ZM36.6501 42.2722H37.2323L31.661 50.983H31.0787H28.9124H28.3301L33.9014 42.2722H34.4837H36.6501ZM44.3532 44.3149H43.5291H37.8097L36.3786 46.4557H42.1572L40.6274 48.847H34.9772L33.5461 50.9879H39.2605H39.8428H40.3856C41.7772 50.9879 43.001 50.2808 43.7215 49.2104L45.503 46.4361C45.799 45.8812 46.8255 44.3149 44.3532 44.3149ZM58.6639 44.3149H59.2462L57.0749 47.6882C56.3544 48.7586 55.1306 49.4657 53.739 49.4657H53.1962H52.6139H48.6513L46.9488 52.1172C46.2284 53.1877 45.0045 53.8947 43.613 53.8947H43.0701H42.4878L48.6118 44.31H49.1941H51.3605H51.9428L50.0182 47.3248H53.9857L55.9152 44.31H56.4975H58.6639V44.3149ZM68.2076 46.4557L66.668 48.847H63.0706L64.6003 46.4557H68.2076Z" fill="#6D6E71"/>
<path fill-rule="evenodd" clip-rule="evenodd" d="M63.7163 19.9601C64.1999 19.7244 64.7032 19.4887 65.2263 19.2481C72.8307 15.7618 73.2749 6.91361 66.608 2.95596C62.8971 0.751261 58.446 -0.191504 54.2268 0.034367C52.2578 0.30934 50.4665 1.2963 49.751 3.23093C48.5815 6.39803 47.4119 12.3149 51.8483 15.04C54.1232 16.4787 56.5856 16.9108 58.7816 18.1679C59.3984 17.2153 59.6797 16.189 60.1139 16.4984C60.3459 16.5229 63.4202 18.1875 63.5732 18.3741C64.0272 18.7227 63.9729 19.3414 63.7163 19.9601ZM52.3763 7.57158C56.176 5.29814 59.5119 11.2788 55.574 13.4344C51.8384 15.4771 48.3742 9.96286 52.3763 7.57158Z" fill="#F0B31D"/>
<path fill-rule="evenodd" clip-rule="evenodd" d="M43.2475 31.6907C40.2768 21.06 43.8693 6.07892 48.735 1.04102C45.33 2.16546 42.458 4.18848 40.795 7.03641C38.3029 11.328 38.3128 17.5983 39.3886 22.6853C39.7636 24.7034 41.3181 28.4401 43.2475 31.6907Z" fill="#A82070"/>
<path fill-rule="evenodd" clip-rule="evenodd" d="M55.2244 19.6557C47.5805 19.5182 49.0214 25.7542 52.4708 29.4369C53.0383 26.7461 55.4168 24.3597 61.7382 21.1828C60.3614 20.5837 57.9237 19.7048 55.2244 19.6557Z" fill="#A82070"/>
<path fill-rule="evenodd" clip-rule="evenodd" d="M52.2334 31.283C49.993 29.9475 48.0241 27.6642 46.9582 25.9996C44.8165 22.6656 44.4119 30.0309 46.1686 35.7514L46.1736 35.7563C49.2972 39.488 53.3092 37.4896 52.6282 34.023C52.4209 33.0409 52.2679 32.1374 52.2334 31.283Z" fill="#F0B31D"/>
<path fill-rule="evenodd" clip-rule="evenodd" d="M26.3564 62.7528V58.4907H27.7431C28.2662 58.4907 28.6116 58.5104 28.7695 58.5546C29.0163 58.6184 29.2186 58.7559 29.3864 58.9719C29.5541 59.188 29.6331 59.4629 29.6331 59.8018C29.6331 60.062 29.5838 60.283 29.49 60.4597C29.3962 60.6365 29.2729 60.7789 29.1248 60.882C28.9768 60.9851 28.8287 61.049 28.6758 61.0833C28.4685 61.1226 28.1724 61.1472 27.7826 61.1472H27.22V62.7528H26.3564ZM27.225 59.2076V60.4204H27.6987C28.0392 60.4204 28.2662 60.3959 28.3797 60.3517C28.4932 60.3075 28.582 60.2388 28.6511 60.1406C28.7152 60.0473 28.7498 59.9343 28.7498 59.8067C28.7498 59.6495 28.7054 59.5219 28.6116 59.4237C28.5179 59.3206 28.4044 59.2567 28.2662 59.2322C28.1626 59.2125 27.9553 59.2027 27.6444 59.2027H27.225V59.2076ZM31.079 59.2469V58.4907H31.8981V59.2469H31.079ZM31.079 62.7528V59.6643H31.8981V62.7528H31.079ZM33.2848 61.1668C33.2848 60.8967 33.3539 60.6316 33.4871 60.3763C33.6204 60.1209 33.8128 59.9294 34.0596 59.7919C34.3063 59.6594 34.5777 59.5906 34.8837 59.5906C35.3525 59.5906 35.7374 59.7428 36.0384 60.0473C36.3394 60.3517 36.4874 60.7347 36.4874 61.2012C36.4874 61.6676 36.3345 62.0556 36.0334 62.3649C35.7324 62.6742 35.3475 62.8265 34.8886 62.8265C34.6024 62.8265 34.3359 62.7626 34.0744 62.635C33.8178 62.5073 33.6204 62.3207 33.4871 62.0703C33.3539 61.8248 33.2848 61.5252 33.2848 61.1668ZM34.1286 61.211C34.1286 61.5154 34.2027 61.7511 34.3458 61.9132C34.4938 62.0752 34.6715 62.1587 34.8837 62.1587C35.0958 62.1587 35.2784 62.0752 35.4215 61.9132C35.5646 61.7511 35.6387 61.5154 35.6387 61.2012C35.6387 60.8967 35.5646 60.666 35.4215 60.5039C35.2784 60.3419 35.0958 60.2584 34.8837 60.2584C34.6715 60.2584 34.4889 60.3419 34.3458 60.5039C34.2027 60.6709 34.1286 60.9066 34.1286 61.211ZM40.6918 62.7528H39.8727V61.1766C39.8727 60.8427 39.8529 60.6267 39.8184 60.5285C39.7838 60.4303 39.7246 60.3566 39.6457 60.3026C39.5667 60.2486 39.468 60.2191 39.3595 60.2191C39.2163 60.2191 39.088 60.2584 38.9745 60.337C38.861 60.4155 38.7821 60.5187 38.7426 60.6463C38.6982 60.774 38.6785 61.0097 38.6785 61.3534V62.7479H37.8593V59.6594H38.6192V60.1111C38.8907 59.7625 39.2311 59.5906 39.6457 59.5906C39.8282 59.5906 39.9911 59.625 40.1441 59.6888C40.297 59.7527 40.4105 59.8361 40.4846 59.9392C40.5635 60.0424 40.6178 60.1553 40.6474 60.283C40.677 60.4106 40.6918 60.5923 40.6918 60.8329V62.7528ZM44.0573 61.7757L44.8765 61.9132C44.7728 62.2127 44.6051 62.4386 44.3781 62.5957C44.1511 62.7528 43.8649 62.8314 43.5244 62.8314C42.9865 62.8314 42.5868 62.6546 42.3252 62.306C42.1229 62.0261 42.0193 61.6676 42.0193 61.2405C42.0193 60.7298 42.1525 60.3271 42.4239 60.0374C42.6904 59.7477 43.0309 59.6004 43.4405 59.6004C43.8994 59.6004 44.2646 59.7527 44.531 60.0571C44.7975 60.3615 44.9258 60.828 44.911 61.4516H42.8582C42.8631 61.6922 42.9322 61.8837 43.0556 62.0163C43.1789 62.1489 43.3368 62.2176 43.5244 62.2176C43.6527 62.2176 43.7612 62.1832 43.8451 62.1145C43.9487 62.0408 44.0129 61.9279 44.0573 61.7757ZM44.1067 60.9458C44.1017 60.7102 44.0376 60.5285 43.9241 60.4057C43.8056 60.283 43.6675 60.2191 43.4997 60.2191C43.322 60.2191 43.174 60.283 43.0556 60.4155C42.9371 60.5432 42.8828 60.7249 42.8828 60.9458H44.1067ZM48.1235 61.7757L48.9427 61.9132C48.8391 62.2127 48.6713 62.4386 48.4443 62.5957C48.2173 62.7528 47.9311 62.8314 47.5906 62.8314C47.0527 62.8314 46.653 62.6546 46.3914 62.306C46.1891 62.0261 46.0855 61.6676 46.0855 61.2405C46.0855 60.7298 46.2187 60.3271 46.4901 60.0374C46.7566 59.7477 47.0971 59.6004 47.5067 59.6004C47.9656 59.6004 48.3308 59.7527 48.5973 60.0571C48.8637 60.3615 48.992 60.828 48.9772 61.4516H46.9244C46.9293 61.6922 46.9984 61.8837 47.1218 62.0163C47.2451 62.1489 47.4031 62.2176 47.5906 62.2176C47.7189 62.2176 47.8274 62.1832 47.9113 62.1145C48.015 62.0408 48.0791 61.9279 48.1235 61.7757ZM48.1729 60.9458C48.1679 60.7102 48.1038 60.5285 47.9903 60.4057C47.8719 60.283 47.7337 60.2191 47.5659 60.2191C47.3883 60.2191 47.2402 60.283 47.1218 60.4155C47.0033 60.5432 46.9491 60.7249 46.9491 60.9458H48.1729ZM51.1781 62.7528H50.359V59.6643H51.1189V60.1013C51.2472 59.8951 51.3656 59.7576 51.4742 59.6937C51.5778 59.6299 51.6963 59.5955 51.8295 59.5955C52.017 59.5955 52.1996 59.6446 52.3723 59.7477L52.1157 60.4597C51.9775 60.3713 51.8492 60.3272 51.7308 60.3272C51.6173 60.3272 51.5186 60.3566 51.4397 60.4204C51.3607 60.4843 51.2966 60.5972 51.2521 60.7642C51.2077 60.9311 51.1831 61.2748 51.1831 61.8002V62.7528H51.1781ZM55.0963 59.6643H55.8612V60.116C55.9599 59.9589 56.0931 59.8361 56.2658 59.7379C56.4336 59.6446 56.6261 59.5955 56.8284 59.5955C57.1886 59.5955 57.4946 59.7379 57.7462 60.0178C57.9979 60.2977 58.1213 60.6905 58.1213 61.1914C58.1213 61.7069 57.993 62.1096 57.7413 62.3944C57.4896 62.6792 57.1787 62.8216 56.8185 62.8216C56.6458 62.8216 56.4928 62.7872 56.3497 62.7184C56.2115 62.6497 56.0635 62.5368 55.9105 62.3698V63.9165H55.0914V59.6643H55.0963ZM55.9056 61.157C55.9056 61.5056 55.9747 61.7609 56.1128 61.9279C56.251 62.0948 56.4188 62.1783 56.6162 62.1783C56.8086 62.1783 56.9666 62.0997 57.0899 61.9475C57.2182 61.7953 57.2774 61.5449 57.2774 61.1963C57.2774 60.8722 57.2133 60.6316 57.0801 60.4745C56.9517 60.3173 56.7889 60.2388 56.5965 60.2388C56.3941 60.2388 56.2313 60.3173 56.098 60.4695C55.9697 60.6267 55.9056 60.8575 55.9056 61.157ZM60.1248 60.6119L59.3846 60.4794C59.4685 60.1798 59.6116 59.954 59.8188 59.8116C60.0211 59.6692 60.3271 59.5955 60.7318 59.5955C61.0969 59.5955 61.3683 59.6397 61.5509 59.7232C61.7286 59.8116 61.8569 59.9196 61.9309 60.0522C62.0049 60.1848 62.0395 60.4303 62.0395 60.7838L62.0296 61.7364C62.0296 62.0065 62.0444 62.2078 62.0691 62.3354C62.0937 62.4631 62.1431 62.6006 62.2171 62.7479H61.4029C61.3831 62.6939 61.3535 62.6153 61.3239 62.5122C61.3091 62.4631 61.2992 62.4336 61.2943 62.4189C61.1561 62.5564 61.0032 62.6595 60.8452 62.7283C60.6873 62.797 60.5146 62.8314 60.337 62.8314C60.0212 62.8314 59.7695 62.743 59.582 62.5711C59.3994 62.3993 59.3056 62.1832 59.3056 61.9181C59.3056 61.7462 59.3451 61.5891 59.429 61.4516C59.5129 61.3141 59.6313 61.211 59.7793 61.1373C59.9323 61.0637 60.1495 60.9999 60.4307 60.9458C60.8156 60.8722 61.0821 60.8084 61.2252 60.7445V60.661C61.2252 60.5039 61.1857 60.391 61.1068 60.3222C61.0278 60.2535 60.8798 60.2191 60.6627 60.2191C60.5146 60.2191 60.4011 60.2486 60.3222 60.3075C60.2432 60.3664 60.1741 60.4695 60.1248 60.6119ZM61.2252 61.2748C61.1216 61.3092 60.9538 61.3534 60.7268 61.3976C60.4998 61.4467 60.3518 61.4958 60.2778 61.54C60.1692 61.6185 60.1149 61.7118 60.1149 61.8297C60.1149 61.9426 60.1593 62.0408 60.2432 62.1243C60.3271 62.2078 60.4357 62.2471 60.5689 62.2471C60.7169 62.2471 60.8601 62.198 60.9933 62.1047C61.092 62.031 61.1561 61.9426 61.1907 61.8346C61.2104 61.7659 61.2203 61.6333 61.2203 61.4369V61.2748H61.2252ZM63.1843 59.6643H64.0578L64.8029 61.8542L65.5283 59.6643H66.3771L65.2816 62.635L65.0842 63.1702C65.0102 63.3519 64.9411 63.4844 64.8769 63.5826C64.8128 63.6759 64.7387 63.7545 64.6499 63.8134C64.566 63.8723 64.4624 63.9165 64.3341 63.9509C64.2107 63.9853 64.0676 64 63.9146 64C63.7567 64 63.6038 63.9853 63.4508 63.9509L63.3768 63.3126C63.5051 63.3371 63.6235 63.3519 63.7271 63.3519C63.9196 63.3519 64.0578 63.2978 64.1515 63.1849C64.2453 63.072 64.3144 62.9296 64.3637 62.7577L63.1843 59.6643ZM67.5861 59.6643H68.3411V60.0866C68.6125 59.7625 68.9333 59.6004 69.3083 59.6004C69.5057 59.6004 69.6784 59.6397 69.8265 59.7232C69.9745 59.8067 70.0929 59.9294 70.1867 60.0915C70.3249 59.9245 70.4729 59.8018 70.6308 59.7232C70.7887 59.6397 70.9565 59.6004 71.1342 59.6004C71.3611 59.6004 71.5536 59.6446 71.7115 59.7379C71.8694 59.8312 71.9879 59.9638 72.0668 60.1455C72.126 60.278 72.1507 60.4892 72.1507 60.7838V62.7577H71.3315V60.9949C71.3315 60.6905 71.3019 60.4892 71.2477 60.4008C71.1736 60.283 71.0552 60.224 70.8973 60.224C70.7838 60.224 70.6752 60.2584 70.5716 60.3272C70.4729 60.3959 70.3989 60.499 70.3545 60.6316C70.3101 60.7642 70.2854 60.9802 70.2854 61.2699V62.7528H69.4662V61.0637C69.4662 60.7642 69.4514 60.5678 69.4218 60.4843C69.3922 60.3959 69.3478 60.3321 69.2886 60.2879C69.2294 60.2437 69.1455 60.224 69.0369 60.224C68.9086 60.224 68.7951 60.2584 68.6964 60.3272C68.5928 60.3959 68.5237 60.4941 68.4793 60.6218C68.4349 60.7494 68.4151 60.9606 68.4151 61.2552V62.7528H67.596V59.6643H67.5861ZM75.4965 61.7757L76.3156 61.9132C76.212 62.2127 76.0442 62.4386 75.8172 62.5957C75.5902 62.7528 75.304 62.8314 74.9635 62.8314C74.4256 62.8314 74.0259 62.6546 73.7644 62.306C73.562 62.0261 73.4584 61.6676 73.4584 61.2405C73.4584 60.7298 73.5916 60.3271 73.8631 60.0374C74.1295 59.7477 74.47 59.6004 74.8796 59.6004C75.3385 59.6004 75.7037 59.7527 75.9702 60.0571C76.2367 60.3615 76.365 60.828 76.3502 61.4516H74.2973C74.3022 61.6922 74.3713 61.8837 74.4947 62.0163C74.6181 62.1489 74.776 62.2176 74.9635 62.2176C75.0918 62.2176 75.2004 62.1832 75.2843 62.1145C75.3879 62.0408 75.452 61.9279 75.4965 61.7757ZM75.5458 60.9458C75.5409 60.7102 75.4767 60.5285 75.3632 60.4057C75.2448 60.283 75.1066 60.2191 74.9388 60.2191C74.7612 60.2191 74.6131 60.283 74.4947 60.4155C74.3763 60.5432 74.322 60.7249 74.322 60.9458H75.5458ZM80.594 62.7528H79.7749V61.1766C79.7749 60.8427 79.7551 60.6267 79.7206 60.5285C79.686 60.4303 79.6268 60.3566 79.5479 60.3026C79.4689 60.2486 79.3702 60.2191 79.2616 60.2191C79.1185 60.2191 78.9902 60.2584 78.8767 60.337C78.7632 60.4155 78.6843 60.5187 78.6448 60.6463C78.6004 60.774 78.5807 61.0097 78.5807 61.3534V62.7479H77.7615V59.6594H78.5214V60.1111C78.7928 59.7625 79.1333 59.5906 79.5479 59.5906C79.7304 59.5906 79.8982 59.625 80.0463 59.6888C80.1992 59.7527 80.3127 59.8361 80.3868 59.9392C80.4657 60.0424 80.52 60.1553 80.5496 60.283C80.5792 60.4106 80.594 60.5923 80.594 60.8329V62.7528ZM83.5795 59.6643V60.3124H83.017V61.5645C83.017 61.8199 83.0219 61.9672 83.0318 62.0065C83.0416 62.0457 83.0663 62.085 83.1058 62.1096C83.1453 62.1341 83.1897 62.1488 83.244 62.1488C83.3229 62.1488 83.4315 62.1243 83.5746 62.0703L83.6437 62.7037C83.4512 62.7872 83.239 62.8265 82.9972 62.8265C82.8492 62.8265 82.716 62.8019 82.5975 62.7528C82.4791 62.7037 82.3903 62.6399 82.336 62.5613C82.2817 62.4827 82.2422 62.3747 82.2225 62.2421C82.2077 62.1489 82.1978 61.9524 82.1978 61.6627V60.3124H81.8228V59.6643H82.1978V59.0505L83.017 58.5693V59.6643H83.5795Z" fill="#58595B"/>
</svg>
